%TF.GenerationSoftware,KiCad,Pcbnew,(5.1.10)-1*%
%TF.CreationDate,2021-10-16T16:01:45-05:00*%
%TF.ProjectId,tictactoe,74696374-6163-4746-9f65-2e6b69636164,rev?*%
%TF.SameCoordinates,Original*%
%TF.FileFunction,Legend,Top*%
%TF.FilePolarity,Positive*%
%FSLAX46Y46*%
G04 Gerber Fmt 4.6, Leading zero omitted, Abs format (unit mm)*
G04 Created by KiCad (PCBNEW (5.1.10)-1) date 2021-10-16 16:01:45*
%MOMM*%
%LPD*%
G01*
G04 APERTURE LIST*
%ADD10C,0.100000*%
%ADD11C,0.150000*%
%ADD12C,0.300000*%
%ADD13C,0.400000*%
%ADD14C,0.254000*%
%ADD15C,0.180000*%
%ADD16C,0.152400*%
G04 APERTURE END LIST*
D10*
D11*
X177002200Y-166007200D02*
X177002200Y-198007200D01*
X285002200Y-198007200D01*
X285002200Y-166007200D01*
X177002200Y-166007200D01*
D10*
D11*
X10000000Y-10000000D02*
X10000000Y-200007200D01*
X287002200Y-200007200D01*
X287002200Y-10000000D01*
X10000000Y-10000000D01*
D10*
D11*
X12000000Y-12000000D02*
X12000000Y-198007200D01*
X285002200Y-198007200D01*
X285002200Y-12000000D01*
X12000000Y-12000000D01*
D10*
D11*
X60000000Y-12000000D02*
X60000000Y-10000000D01*
D10*
D11*
X110000000Y-12000000D02*
X110000000Y-10000000D01*
D10*
D11*
X160000000Y-12000000D02*
X160000000Y-10000000D01*
D10*
D11*
X210000000Y-12000000D02*
X210000000Y-10000000D01*
D10*
D11*
X260000000Y-12000000D02*
X260000000Y-10000000D01*
D10*
D11*
X36065476Y-11588095D02*
X35322619Y-11588095D01*
X35694047Y-11588095D02*
X35694047Y-10288095D01*
X35570238Y-10473809D01*
X35446428Y-10597619D01*
X35322619Y-10659523D01*
D10*
D11*
X85322619Y-10411904D02*
X85384523Y-10350000D01*
X85508333Y-10288095D01*
X85817857Y-10288095D01*
X85941666Y-10350000D01*
X86003571Y-10411904D01*
X86065476Y-10535714D01*
X86065476Y-10659523D01*
X86003571Y-10845238D01*
X85260714Y-11588095D01*
X86065476Y-11588095D01*
D10*
D11*
X135260714Y-10288095D02*
X136065476Y-10288095D01*
X135632142Y-10783333D01*
X135817857Y-10783333D01*
X135941666Y-10845238D01*
X136003571Y-10907142D01*
X136065476Y-11030952D01*
X136065476Y-11340476D01*
X136003571Y-11464285D01*
X135941666Y-11526190D01*
X135817857Y-11588095D01*
X135446428Y-11588095D01*
X135322619Y-11526190D01*
X135260714Y-11464285D01*
D10*
D11*
X185941666Y-10721428D02*
X185941666Y-11588095D01*
X185632142Y-10226190D02*
X185322619Y-11154761D01*
X186127380Y-11154761D01*
D10*
D11*
X236003571Y-10288095D02*
X235384523Y-10288095D01*
X235322619Y-10907142D01*
X235384523Y-10845238D01*
X235508333Y-10783333D01*
X235817857Y-10783333D01*
X235941666Y-10845238D01*
X236003571Y-10907142D01*
X236065476Y-11030952D01*
X236065476Y-11340476D01*
X236003571Y-11464285D01*
X235941666Y-11526190D01*
X235817857Y-11588095D01*
X235508333Y-11588095D01*
X235384523Y-11526190D01*
X235322619Y-11464285D01*
D10*
D11*
X285941666Y-10288095D02*
X285694047Y-10288095D01*
X285570238Y-10350000D01*
X285508333Y-10411904D01*
X285384523Y-10597619D01*
X285322619Y-10845238D01*
X285322619Y-11340476D01*
X285384523Y-11464285D01*
X285446428Y-11526190D01*
X285570238Y-11588095D01*
X285817857Y-11588095D01*
X285941666Y-11526190D01*
X286003571Y-11464285D01*
X286065476Y-11340476D01*
X286065476Y-11030952D01*
X286003571Y-10907142D01*
X285941666Y-10845238D01*
X285817857Y-10783333D01*
X285570238Y-10783333D01*
X285446428Y-10845238D01*
X285384523Y-10907142D01*
X285322619Y-11030952D01*
D10*
D11*
X60000000Y-198007200D02*
X60000000Y-200007200D01*
D10*
D11*
X110000000Y-198007200D02*
X110000000Y-200007200D01*
D10*
D11*
X160000000Y-198007200D02*
X160000000Y-200007200D01*
D10*
D11*
X210000000Y-198007200D02*
X210000000Y-200007200D01*
D10*
D11*
X260000000Y-198007200D02*
X260000000Y-200007200D01*
D10*
D11*
X36065476Y-199595295D02*
X35322619Y-199595295D01*
X35694047Y-199595295D02*
X35694047Y-198295295D01*
X35570238Y-198481009D01*
X35446428Y-198604819D01*
X35322619Y-198666723D01*
D10*
D11*
X85322619Y-198419104D02*
X85384523Y-198357200D01*
X85508333Y-198295295D01*
X85817857Y-198295295D01*
X85941666Y-198357200D01*
X86003571Y-198419104D01*
X86065476Y-198542914D01*
X86065476Y-198666723D01*
X86003571Y-198852438D01*
X85260714Y-199595295D01*
X86065476Y-199595295D01*
D10*
D11*
X135260714Y-198295295D02*
X136065476Y-198295295D01*
X135632142Y-198790533D01*
X135817857Y-198790533D01*
X135941666Y-198852438D01*
X136003571Y-198914342D01*
X136065476Y-199038152D01*
X136065476Y-199347676D01*
X136003571Y-199471485D01*
X135941666Y-199533390D01*
X135817857Y-199595295D01*
X135446428Y-199595295D01*
X135322619Y-199533390D01*
X135260714Y-199471485D01*
D10*
D11*
X185941666Y-198728628D02*
X185941666Y-199595295D01*
X185632142Y-198233390D02*
X185322619Y-199161961D01*
X186127380Y-199161961D01*
D10*
D11*
X236003571Y-198295295D02*
X235384523Y-198295295D01*
X235322619Y-198914342D01*
X235384523Y-198852438D01*
X235508333Y-198790533D01*
X235817857Y-198790533D01*
X235941666Y-198852438D01*
X236003571Y-198914342D01*
X236065476Y-199038152D01*
X236065476Y-199347676D01*
X236003571Y-199471485D01*
X235941666Y-199533390D01*
X235817857Y-199595295D01*
X235508333Y-199595295D01*
X235384523Y-199533390D01*
X235322619Y-199471485D01*
D10*
D11*
X285941666Y-198295295D02*
X285694047Y-198295295D01*
X285570238Y-198357200D01*
X285508333Y-198419104D01*
X285384523Y-198604819D01*
X285322619Y-198852438D01*
X285322619Y-199347676D01*
X285384523Y-199471485D01*
X285446428Y-199533390D01*
X285570238Y-199595295D01*
X285817857Y-199595295D01*
X285941666Y-199533390D01*
X286003571Y-199471485D01*
X286065476Y-199347676D01*
X286065476Y-199038152D01*
X286003571Y-198914342D01*
X285941666Y-198852438D01*
X285817857Y-198790533D01*
X285570238Y-198790533D01*
X285446428Y-198852438D01*
X285384523Y-198914342D01*
X285322619Y-199038152D01*
D10*
D11*
X10000000Y-60000000D02*
X12000000Y-60000000D01*
D10*
D11*
X10000000Y-110000000D02*
X12000000Y-110000000D01*
D10*
D11*
X10000000Y-160000000D02*
X12000000Y-160000000D01*
D10*
D11*
X10690476Y-35216666D02*
X11309523Y-35216666D01*
X10566666Y-35588095D02*
X11000000Y-34288095D01*
X11433333Y-35588095D01*
D10*
D11*
X11092857Y-84907142D02*
X11278571Y-84969047D01*
X11340476Y-85030952D01*
X11402380Y-85154761D01*
X11402380Y-85340476D01*
X11340476Y-85464285D01*
X11278571Y-85526190D01*
X11154761Y-85588095D01*
X10659523Y-85588095D01*
X10659523Y-84288095D01*
X11092857Y-84288095D01*
X11216666Y-84350000D01*
X11278571Y-84411904D01*
X11340476Y-84535714D01*
X11340476Y-84659523D01*
X11278571Y-84783333D01*
X11216666Y-84845238D01*
X11092857Y-84907142D01*
X10659523Y-84907142D01*
D10*
D11*
X11402380Y-135464285D02*
X11340476Y-135526190D01*
X11154761Y-135588095D01*
X11030952Y-135588095D01*
X10845238Y-135526190D01*
X10721428Y-135402380D01*
X10659523Y-135278571D01*
X10597619Y-135030952D01*
X10597619Y-134845238D01*
X10659523Y-134597619D01*
X10721428Y-134473809D01*
X10845238Y-134350000D01*
X11030952Y-134288095D01*
X11154761Y-134288095D01*
X11340476Y-134350000D01*
X11402380Y-134411904D01*
D10*
D11*
X10659523Y-185588095D02*
X10659523Y-184288095D01*
X10969047Y-184288095D01*
X11154761Y-184350000D01*
X11278571Y-184473809D01*
X11340476Y-184597619D01*
X11402380Y-184845238D01*
X11402380Y-185030952D01*
X11340476Y-185278571D01*
X11278571Y-185402380D01*
X11154761Y-185526190D01*
X10969047Y-185588095D01*
X10659523Y-185588095D01*
D10*
D11*
X287002200Y-60000000D02*
X285002200Y-60000000D01*
D10*
D11*
X287002200Y-110000000D02*
X285002200Y-110000000D01*
D10*
D11*
X287002200Y-160000000D02*
X285002200Y-160000000D01*
D10*
D11*
X285692676Y-35216666D02*
X286311723Y-35216666D01*
X285568866Y-35588095D02*
X286002200Y-34288095D01*
X286435533Y-35588095D01*
D10*
D11*
X286095057Y-84907142D02*
X286280771Y-84969047D01*
X286342676Y-85030952D01*
X286404580Y-85154761D01*
X286404580Y-85340476D01*
X286342676Y-85464285D01*
X286280771Y-85526190D01*
X286156961Y-85588095D01*
X285661723Y-85588095D01*
X285661723Y-84288095D01*
X286095057Y-84288095D01*
X286218866Y-84350000D01*
X286280771Y-84411904D01*
X286342676Y-84535714D01*
X286342676Y-84659523D01*
X286280771Y-84783333D01*
X286218866Y-84845238D01*
X286095057Y-84907142D01*
X285661723Y-84907142D01*
D10*
D11*
X286404580Y-135464285D02*
X286342676Y-135526190D01*
X286156961Y-135588095D01*
X286033152Y-135588095D01*
X285847438Y-135526190D01*
X285723628Y-135402380D01*
X285661723Y-135278571D01*
X285599819Y-135030952D01*
X285599819Y-134845238D01*
X285661723Y-134597619D01*
X285723628Y-134473809D01*
X285847438Y-134350000D01*
X286033152Y-134288095D01*
X286156961Y-134288095D01*
X286342676Y-134350000D01*
X286404580Y-134411904D01*
D10*
D11*
X285661723Y-185588095D02*
X285661723Y-184288095D01*
X285971247Y-184288095D01*
X286156961Y-184350000D01*
X286280771Y-184473809D01*
X286342676Y-184597619D01*
X286404580Y-184845238D01*
X286404580Y-185030952D01*
X286342676Y-185278571D01*
X286280771Y-185402380D01*
X286156961Y-185526190D01*
X285971247Y-185588095D01*
X285661723Y-185588095D01*
D10*
D11*
X200434342Y-193785771D02*
X200434342Y-192285771D01*
X200791485Y-192285771D01*
X201005771Y-192357200D01*
X201148628Y-192500057D01*
X201220057Y-192642914D01*
X201291485Y-192928628D01*
X201291485Y-193142914D01*
X201220057Y-193428628D01*
X201148628Y-193571485D01*
X201005771Y-193714342D01*
X200791485Y-193785771D01*
X200434342Y-193785771D01*
X202577200Y-193785771D02*
X202577200Y-193000057D01*
X202505771Y-192857200D01*
X202362914Y-192785771D01*
X202077200Y-192785771D01*
X201934342Y-192857200D01*
X202577200Y-193714342D02*
X202434342Y-193785771D01*
X202077200Y-193785771D01*
X201934342Y-193714342D01*
X201862914Y-193571485D01*
X201862914Y-193428628D01*
X201934342Y-193285771D01*
X202077200Y-193214342D01*
X202434342Y-193214342D01*
X202577200Y-193142914D01*
X203077200Y-192785771D02*
X203648628Y-192785771D01*
X203291485Y-192285771D02*
X203291485Y-193571485D01*
X203362914Y-193714342D01*
X203505771Y-193785771D01*
X203648628Y-193785771D01*
X204720057Y-193714342D02*
X204577200Y-193785771D01*
X204291485Y-193785771D01*
X204148628Y-193714342D01*
X204077200Y-193571485D01*
X204077200Y-193000057D01*
X204148628Y-192857200D01*
X204291485Y-192785771D01*
X204577200Y-192785771D01*
X204720057Y-192857200D01*
X204791485Y-193000057D01*
X204791485Y-193142914D01*
X204077200Y-193285771D01*
X205434342Y-193642914D02*
X205505771Y-193714342D01*
X205434342Y-193785771D01*
X205362914Y-193714342D01*
X205434342Y-193642914D01*
X205434342Y-193785771D01*
X205434342Y-192857200D02*
X205505771Y-192928628D01*
X205434342Y-193000057D01*
X205362914Y-192928628D01*
X205434342Y-192857200D01*
X205434342Y-193000057D01*
D10*
D11*
X177002200Y-194507200D02*
X285002200Y-194507200D01*
D10*
D11*
X178434342Y-196585771D02*
X178434342Y-195085771D01*
X179291485Y-196585771D02*
X178648628Y-195728628D01*
X179291485Y-195085771D02*
X178434342Y-195942914D01*
X179934342Y-196585771D02*
X179934342Y-195585771D01*
X179934342Y-195085771D02*
X179862914Y-195157200D01*
X179934342Y-195228628D01*
X180005771Y-195157200D01*
X179934342Y-195085771D01*
X179934342Y-195228628D01*
X181505771Y-196442914D02*
X181434342Y-196514342D01*
X181220057Y-196585771D01*
X181077200Y-196585771D01*
X180862914Y-196514342D01*
X180720057Y-196371485D01*
X180648628Y-196228628D01*
X180577200Y-195942914D01*
X180577200Y-195728628D01*
X180648628Y-195442914D01*
X180720057Y-195300057D01*
X180862914Y-195157200D01*
X181077200Y-195085771D01*
X181220057Y-195085771D01*
X181434342Y-195157200D01*
X181505771Y-195228628D01*
X182791485Y-196585771D02*
X182791485Y-195800057D01*
X182720057Y-195657200D01*
X182577200Y-195585771D01*
X182291485Y-195585771D01*
X182148628Y-195657200D01*
X182791485Y-196514342D02*
X182648628Y-196585771D01*
X182291485Y-196585771D01*
X182148628Y-196514342D01*
X182077200Y-196371485D01*
X182077200Y-196228628D01*
X182148628Y-196085771D01*
X182291485Y-196014342D01*
X182648628Y-196014342D01*
X182791485Y-195942914D01*
X184148628Y-196585771D02*
X184148628Y-195085771D01*
X184148628Y-196514342D02*
X184005771Y-196585771D01*
X183720057Y-196585771D01*
X183577200Y-196514342D01*
X183505771Y-196442914D01*
X183434342Y-196300057D01*
X183434342Y-195871485D01*
X183505771Y-195728628D01*
X183577200Y-195657200D01*
X183720057Y-195585771D01*
X184005771Y-195585771D01*
X184148628Y-195657200D01*
X186005771Y-195800057D02*
X186505771Y-195800057D01*
X186720057Y-196585771D02*
X186005771Y-196585771D01*
X186005771Y-195085771D01*
X186720057Y-195085771D01*
X187362914Y-196442914D02*
X187434342Y-196514342D01*
X187362914Y-196585771D01*
X187291485Y-196514342D01*
X187362914Y-196442914D01*
X187362914Y-196585771D01*
X188077200Y-196585771D02*
X188077200Y-195085771D01*
X188434342Y-195085771D01*
X188648628Y-195157200D01*
X188791485Y-195300057D01*
X188862914Y-195442914D01*
X188934342Y-195728628D01*
X188934342Y-195942914D01*
X188862914Y-196228628D01*
X188791485Y-196371485D01*
X188648628Y-196514342D01*
X188434342Y-196585771D01*
X188077200Y-196585771D01*
X189577200Y-196442914D02*
X189648628Y-196514342D01*
X189577200Y-196585771D01*
X189505771Y-196514342D01*
X189577200Y-196442914D01*
X189577200Y-196585771D01*
X190220057Y-196157200D02*
X190934342Y-196157200D01*
X190077200Y-196585771D02*
X190577200Y-195085771D01*
X191077200Y-196585771D01*
X191577200Y-196442914D02*
X191648628Y-196514342D01*
X191577200Y-196585771D01*
X191505771Y-196514342D01*
X191577200Y-196442914D01*
X191577200Y-196585771D01*
X194577200Y-196585771D02*
X194577200Y-195085771D01*
X194720057Y-196014342D02*
X195148628Y-196585771D01*
X195148628Y-195585771D02*
X194577200Y-196157200D01*
X195791485Y-196585771D02*
X195791485Y-195585771D01*
X195791485Y-195085771D02*
X195720057Y-195157200D01*
X195791485Y-195228628D01*
X195862914Y-195157200D01*
X195791485Y-195085771D01*
X195791485Y-195228628D01*
X197148628Y-196514342D02*
X197005771Y-196585771D01*
X196720057Y-196585771D01*
X196577200Y-196514342D01*
X196505771Y-196442914D01*
X196434342Y-196300057D01*
X196434342Y-195871485D01*
X196505771Y-195728628D01*
X196577200Y-195657200D01*
X196720057Y-195585771D01*
X197005771Y-195585771D01*
X197148628Y-195657200D01*
X198434342Y-196585771D02*
X198434342Y-195800057D01*
X198362914Y-195657200D01*
X198220057Y-195585771D01*
X197934342Y-195585771D01*
X197791485Y-195657200D01*
X198434342Y-196514342D02*
X198291485Y-196585771D01*
X197934342Y-196585771D01*
X197791485Y-196514342D01*
X197720057Y-196371485D01*
X197720057Y-196228628D01*
X197791485Y-196085771D01*
X197934342Y-196014342D01*
X198291485Y-196014342D01*
X198434342Y-195942914D01*
X199791485Y-196585771D02*
X199791485Y-195085771D01*
X199791485Y-196514342D02*
X199648628Y-196585771D01*
X199362914Y-196585771D01*
X199220057Y-196514342D01*
X199148628Y-196442914D01*
X199077200Y-196300057D01*
X199077200Y-195871485D01*
X199148628Y-195728628D01*
X199220057Y-195657200D01*
X199362914Y-195585771D01*
X199648628Y-195585771D01*
X199791485Y-195657200D01*
X202077200Y-197157200D02*
X202005771Y-197085771D01*
X201862914Y-196871485D01*
X201791485Y-196728628D01*
X201720057Y-196514342D01*
X201648628Y-196157200D01*
X201648628Y-195871485D01*
X201720057Y-195514342D01*
X201791485Y-195300057D01*
X201862914Y-195157200D01*
X202005771Y-194942914D01*
X202077200Y-194871485D01*
X203362914Y-195085771D02*
X202648628Y-195085771D01*
X202577200Y-195800057D01*
X202648628Y-195728628D01*
X202791485Y-195657200D01*
X203148628Y-195657200D01*
X203291485Y-195728628D01*
X203362914Y-195800057D01*
X203434342Y-195942914D01*
X203434342Y-196300057D01*
X203362914Y-196442914D01*
X203291485Y-196514342D01*
X203148628Y-196585771D01*
X202791485Y-196585771D01*
X202648628Y-196514342D01*
X202577200Y-196442914D01*
X204077200Y-196442914D02*
X204148628Y-196514342D01*
X204077200Y-196585771D01*
X204005771Y-196514342D01*
X204077200Y-196442914D01*
X204077200Y-196585771D01*
X205577200Y-196585771D02*
X204720057Y-196585771D01*
X205148628Y-196585771D02*
X205148628Y-195085771D01*
X205005771Y-195300057D01*
X204862914Y-195442914D01*
X204720057Y-195514342D01*
X206220057Y-196442914D02*
X206291485Y-196514342D01*
X206220057Y-196585771D01*
X206148628Y-196514342D01*
X206220057Y-196442914D01*
X206220057Y-196585771D01*
X207720057Y-196585771D02*
X206862914Y-196585771D01*
X207291485Y-196585771D02*
X207291485Y-195085771D01*
X207148628Y-195300057D01*
X207005771Y-195442914D01*
X206862914Y-195514342D01*
X208648628Y-195085771D02*
X208791485Y-195085771D01*
X208934342Y-195157200D01*
X209005771Y-195228628D01*
X209077200Y-195371485D01*
X209148628Y-195657200D01*
X209148628Y-196014342D01*
X209077200Y-196300057D01*
X209005771Y-196442914D01*
X208934342Y-196514342D01*
X208791485Y-196585771D01*
X208648628Y-196585771D01*
X208505771Y-196514342D01*
X208434342Y-196442914D01*
X208362914Y-196300057D01*
X208291485Y-196014342D01*
X208291485Y-195657200D01*
X208362914Y-195371485D01*
X208434342Y-195228628D01*
X208505771Y-195157200D01*
X208648628Y-195085771D01*
X209648628Y-197157200D02*
X209720057Y-197085771D01*
X209862914Y-196871485D01*
X209934342Y-196728628D01*
X210005771Y-196514342D01*
X210077200Y-196157200D01*
X210077200Y-195871485D01*
X210005771Y-195514342D01*
X209934342Y-195300057D01*
X209862914Y-195157200D01*
X209720057Y-194942914D01*
X209648628Y-194871485D01*
X210791485Y-196014342D02*
X211934342Y-196014342D01*
X213434342Y-196585771D02*
X212577200Y-196585771D01*
X213005771Y-196585771D02*
X213005771Y-195085771D01*
X212862914Y-195300057D01*
X212720057Y-195442914D01*
X212577200Y-195514342D01*
D10*
D11*
X177002200Y-191507200D02*
X285002200Y-191507200D01*
D10*
D12*
X264411485Y-193785771D02*
X263911485Y-193071485D01*
X263554342Y-193785771D02*
X263554342Y-192285771D01*
X264125771Y-192285771D01*
X264268628Y-192357200D01*
X264340057Y-192428628D01*
X264411485Y-192571485D01*
X264411485Y-192785771D01*
X264340057Y-192928628D01*
X264268628Y-193000057D01*
X264125771Y-193071485D01*
X263554342Y-193071485D01*
X265625771Y-193714342D02*
X265482914Y-193785771D01*
X265197200Y-193785771D01*
X265054342Y-193714342D01*
X264982914Y-193571485D01*
X264982914Y-193000057D01*
X265054342Y-192857200D01*
X265197200Y-192785771D01*
X265482914Y-192785771D01*
X265625771Y-192857200D01*
X265697200Y-193000057D01*
X265697200Y-193142914D01*
X264982914Y-193285771D01*
X266197200Y-192785771D02*
X266554342Y-193785771D01*
X266911485Y-192785771D01*
X267482914Y-193642914D02*
X267554342Y-193714342D01*
X267482914Y-193785771D01*
X267411485Y-193714342D01*
X267482914Y-193642914D01*
X267482914Y-193785771D01*
X267482914Y-192857200D02*
X267554342Y-192928628D01*
X267482914Y-193000057D01*
X267411485Y-192928628D01*
X267482914Y-192857200D01*
X267482914Y-193000057D01*
D10*
D11*
X178362914Y-193714342D02*
X178577200Y-193785771D01*
X178934342Y-193785771D01*
X179077200Y-193714342D01*
X179148628Y-193642914D01*
X179220057Y-193500057D01*
X179220057Y-193357200D01*
X179148628Y-193214342D01*
X179077200Y-193142914D01*
X178934342Y-193071485D01*
X178648628Y-193000057D01*
X178505771Y-192928628D01*
X178434342Y-192857200D01*
X178362914Y-192714342D01*
X178362914Y-192571485D01*
X178434342Y-192428628D01*
X178505771Y-192357200D01*
X178648628Y-192285771D01*
X179005771Y-192285771D01*
X179220057Y-192357200D01*
X179862914Y-193785771D02*
X179862914Y-192785771D01*
X179862914Y-192285771D02*
X179791485Y-192357200D01*
X179862914Y-192428628D01*
X179934342Y-192357200D01*
X179862914Y-192285771D01*
X179862914Y-192428628D01*
X180434342Y-192785771D02*
X181220057Y-192785771D01*
X180434342Y-193785771D01*
X181220057Y-193785771D01*
X182362914Y-193714342D02*
X182220057Y-193785771D01*
X181934342Y-193785771D01*
X181791485Y-193714342D01*
X181720057Y-193571485D01*
X181720057Y-193000057D01*
X181791485Y-192857200D01*
X181934342Y-192785771D01*
X182220057Y-192785771D01*
X182362914Y-192857200D01*
X182434342Y-193000057D01*
X182434342Y-193142914D01*
X181720057Y-193285771D01*
X183077200Y-193642914D02*
X183148628Y-193714342D01*
X183077200Y-193785771D01*
X183005771Y-193714342D01*
X183077200Y-193642914D01*
X183077200Y-193785771D01*
X183077200Y-192857200D02*
X183148628Y-192928628D01*
X183077200Y-193000057D01*
X183005771Y-192928628D01*
X183077200Y-192857200D01*
X183077200Y-193000057D01*
X184862914Y-193357200D02*
X185577200Y-193357200D01*
X184720057Y-193785771D02*
X185220057Y-192285771D01*
X185720057Y-193785771D01*
X186862914Y-192785771D02*
X186862914Y-193785771D01*
X186505771Y-192214342D02*
X186148628Y-193285771D01*
X187077200Y-193285771D01*
D10*
D11*
X263434342Y-196585771D02*
X263434342Y-195085771D01*
X264791485Y-196585771D02*
X264791485Y-195085771D01*
X264791485Y-196514342D02*
X264648628Y-196585771D01*
X264362914Y-196585771D01*
X264220057Y-196514342D01*
X264148628Y-196442914D01*
X264077200Y-196300057D01*
X264077200Y-195871485D01*
X264148628Y-195728628D01*
X264220057Y-195657200D01*
X264362914Y-195585771D01*
X264648628Y-195585771D01*
X264791485Y-195657200D01*
X265505771Y-196442914D02*
X265577200Y-196514342D01*
X265505771Y-196585771D01*
X265434342Y-196514342D01*
X265505771Y-196442914D01*
X265505771Y-196585771D01*
X265505771Y-195657200D02*
X265577200Y-195728628D01*
X265505771Y-195800057D01*
X265434342Y-195728628D01*
X265505771Y-195657200D01*
X265505771Y-195800057D01*
X268148628Y-196585771D02*
X267291485Y-196585771D01*
X267720057Y-196585771D02*
X267720057Y-195085771D01*
X267577200Y-195300057D01*
X267434342Y-195442914D01*
X267291485Y-195514342D01*
X269862914Y-195014342D02*
X268577200Y-196942914D01*
X271148628Y-196585771D02*
X270291485Y-196585771D01*
X270720057Y-196585771D02*
X270720057Y-195085771D01*
X270577200Y-195300057D01*
X270434342Y-195442914D01*
X270291485Y-195514342D01*
D10*
D11*
X177002200Y-187507200D02*
X285002200Y-187507200D01*
D10*
D13*
X178714580Y-188211961D02*
X179857438Y-188211961D01*
X179036009Y-190211961D02*
X179286009Y-188211961D01*
X180274104Y-190211961D02*
X180440771Y-188878628D01*
X180524104Y-188211961D02*
X180416961Y-188307200D01*
X180500295Y-188402438D01*
X180607438Y-188307200D01*
X180524104Y-188211961D01*
X180500295Y-188402438D01*
X181107438Y-188878628D02*
X181869342Y-188878628D01*
X181476485Y-188211961D02*
X181262200Y-189926247D01*
X181333628Y-190116723D01*
X181512200Y-190211961D01*
X181702676Y-190211961D01*
X182655057Y-190211961D02*
X182476485Y-190116723D01*
X182405057Y-189926247D01*
X182619342Y-188211961D01*
X184190771Y-190116723D02*
X183988390Y-190211961D01*
X183607438Y-190211961D01*
X183428866Y-190116723D01*
X183357438Y-189926247D01*
X183452676Y-189164342D01*
X183571723Y-188973866D01*
X183774104Y-188878628D01*
X184155057Y-188878628D01*
X184333628Y-188973866D01*
X184405057Y-189164342D01*
X184381247Y-189354819D01*
X183405057Y-189545295D01*
X185155057Y-190021485D02*
X185238390Y-190116723D01*
X185131247Y-190211961D01*
X185047914Y-190116723D01*
X185155057Y-190021485D01*
X185131247Y-190211961D01*
X185286009Y-188973866D02*
X185369342Y-189069104D01*
X185262200Y-189164342D01*
X185178866Y-189069104D01*
X185286009Y-188973866D01*
X185262200Y-189164342D01*
D10*
D11*
X178934342Y-185600057D02*
X178434342Y-185600057D01*
X178434342Y-186385771D02*
X178434342Y-184885771D01*
X179148628Y-184885771D01*
X179720057Y-186385771D02*
X179720057Y-185385771D01*
X179720057Y-184885771D02*
X179648628Y-184957200D01*
X179720057Y-185028628D01*
X179791485Y-184957200D01*
X179720057Y-184885771D01*
X179720057Y-185028628D01*
X180648628Y-186385771D02*
X180505771Y-186314342D01*
X180434342Y-186171485D01*
X180434342Y-184885771D01*
X181791485Y-186314342D02*
X181648628Y-186385771D01*
X181362914Y-186385771D01*
X181220057Y-186314342D01*
X181148628Y-186171485D01*
X181148628Y-185600057D01*
X181220057Y-185457200D01*
X181362914Y-185385771D01*
X181648628Y-185385771D01*
X181791485Y-185457200D01*
X181862914Y-185600057D01*
X181862914Y-185742914D01*
X181148628Y-185885771D01*
X182505771Y-186242914D02*
X182577200Y-186314342D01*
X182505771Y-186385771D01*
X182434342Y-186314342D01*
X182505771Y-186242914D01*
X182505771Y-186385771D01*
X182505771Y-185457200D02*
X182577200Y-185528628D01*
X182505771Y-185600057D01*
X182434342Y-185528628D01*
X182505771Y-185457200D01*
X182505771Y-185600057D01*
X184148628Y-185385771D02*
X184720057Y-185385771D01*
X184362914Y-184885771D02*
X184362914Y-186171485D01*
X184434342Y-186314342D01*
X184577200Y-186385771D01*
X184720057Y-186385771D01*
X185220057Y-186385771D02*
X185220057Y-185385771D01*
X185220057Y-184885771D02*
X185148628Y-184957200D01*
X185220057Y-185028628D01*
X185291485Y-184957200D01*
X185220057Y-184885771D01*
X185220057Y-185028628D01*
X186577200Y-186314342D02*
X186434342Y-186385771D01*
X186148628Y-186385771D01*
X186005771Y-186314342D01*
X185934342Y-186242914D01*
X185862914Y-186100057D01*
X185862914Y-185671485D01*
X185934342Y-185528628D01*
X186005771Y-185457200D01*
X186148628Y-185385771D01*
X186434342Y-185385771D01*
X186577200Y-185457200D01*
X187005771Y-185385771D02*
X187577200Y-185385771D01*
X187220057Y-184885771D02*
X187220057Y-186171485D01*
X187291485Y-186314342D01*
X187434342Y-186385771D01*
X187577200Y-186385771D01*
X188720057Y-186385771D02*
X188720057Y-185600057D01*
X188648628Y-185457200D01*
X188505771Y-185385771D01*
X188220057Y-185385771D01*
X188077200Y-185457200D01*
X188720057Y-186314342D02*
X188577200Y-186385771D01*
X188220057Y-186385771D01*
X188077200Y-186314342D01*
X188005771Y-186171485D01*
X188005771Y-186028628D01*
X188077200Y-185885771D01*
X188220057Y-185814342D01*
X188577200Y-185814342D01*
X188720057Y-185742914D01*
X190077200Y-186314342D02*
X189934342Y-186385771D01*
X189648628Y-186385771D01*
X189505771Y-186314342D01*
X189434342Y-186242914D01*
X189362914Y-186100057D01*
X189362914Y-185671485D01*
X189434342Y-185528628D01*
X189505771Y-185457200D01*
X189648628Y-185385771D01*
X189934342Y-185385771D01*
X190077200Y-185457200D01*
X190505771Y-185385771D02*
X191077200Y-185385771D01*
X190720057Y-184885771D02*
X190720057Y-186171485D01*
X190791485Y-186314342D01*
X190934342Y-186385771D01*
X191077200Y-186385771D01*
X191791485Y-186385771D02*
X191648628Y-186314342D01*
X191577200Y-186242914D01*
X191505771Y-186100057D01*
X191505771Y-185671485D01*
X191577200Y-185528628D01*
X191648628Y-185457200D01*
X191791485Y-185385771D01*
X192005771Y-185385771D01*
X192148628Y-185457200D01*
X192220057Y-185528628D01*
X192291485Y-185671485D01*
X192291485Y-186100057D01*
X192220057Y-186242914D01*
X192148628Y-186314342D01*
X192005771Y-186385771D01*
X191791485Y-186385771D01*
X193505771Y-186314342D02*
X193362914Y-186385771D01*
X193077200Y-186385771D01*
X192934342Y-186314342D01*
X192862914Y-186171485D01*
X192862914Y-185600057D01*
X192934342Y-185457200D01*
X193077200Y-185385771D01*
X193362914Y-185385771D01*
X193505771Y-185457200D01*
X193577200Y-185600057D01*
X193577200Y-185742914D01*
X192862914Y-185885771D01*
X194220057Y-186242914D02*
X194291485Y-186314342D01*
X194220057Y-186385771D01*
X194148628Y-186314342D01*
X194220057Y-186242914D01*
X194220057Y-186385771D01*
X194934342Y-186385771D02*
X194934342Y-184885771D01*
X195077200Y-185814342D02*
X195505771Y-186385771D01*
X195505771Y-185385771D02*
X194934342Y-185957200D01*
X196148628Y-186385771D02*
X196148628Y-185385771D01*
X196148628Y-184885771D02*
X196077200Y-184957200D01*
X196148628Y-185028628D01*
X196220057Y-184957200D01*
X196148628Y-184885771D01*
X196148628Y-185028628D01*
X197505771Y-186314342D02*
X197362914Y-186385771D01*
X197077200Y-186385771D01*
X196934342Y-186314342D01*
X196862914Y-186242914D01*
X196791485Y-186100057D01*
X196791485Y-185671485D01*
X196862914Y-185528628D01*
X196934342Y-185457200D01*
X197077200Y-185385771D01*
X197362914Y-185385771D01*
X197505771Y-185457200D01*
X198791485Y-186385771D02*
X198791485Y-185600057D01*
X198720057Y-185457200D01*
X198577200Y-185385771D01*
X198291485Y-185385771D01*
X198148628Y-185457200D01*
X198791485Y-186314342D02*
X198648628Y-186385771D01*
X198291485Y-186385771D01*
X198148628Y-186314342D01*
X198077200Y-186171485D01*
X198077200Y-186028628D01*
X198148628Y-185885771D01*
X198291485Y-185814342D01*
X198648628Y-185814342D01*
X198791485Y-185742914D01*
X200148628Y-186385771D02*
X200148628Y-184885771D01*
X200148628Y-186314342D02*
X200005771Y-186385771D01*
X199720057Y-186385771D01*
X199577200Y-186314342D01*
X199505771Y-186242914D01*
X199434342Y-186100057D01*
X199434342Y-185671485D01*
X199505771Y-185528628D01*
X199577200Y-185457200D01*
X199720057Y-185385771D01*
X200005771Y-185385771D01*
X200148628Y-185457200D01*
X200505771Y-186528628D02*
X201648628Y-186528628D01*
X202005771Y-185385771D02*
X202005771Y-186885771D01*
X202005771Y-185457200D02*
X202148628Y-185385771D01*
X202434342Y-185385771D01*
X202577200Y-185457200D01*
X202648628Y-185528628D01*
X202720057Y-185671485D01*
X202720057Y-186100057D01*
X202648628Y-186242914D01*
X202577200Y-186314342D01*
X202434342Y-186385771D01*
X202148628Y-186385771D01*
X202005771Y-186314342D01*
X204005771Y-186314342D02*
X203862914Y-186385771D01*
X203577200Y-186385771D01*
X203434342Y-186314342D01*
X203362914Y-186242914D01*
X203291485Y-186100057D01*
X203291485Y-185671485D01*
X203362914Y-185528628D01*
X203434342Y-185457200D01*
X203577200Y-185385771D01*
X203862914Y-185385771D01*
X204005771Y-185457200D01*
X204648628Y-186385771D02*
X204648628Y-184885771D01*
X204648628Y-185457200D02*
X204791485Y-185385771D01*
X205077200Y-185385771D01*
X205220057Y-185457200D01*
X205291485Y-185528628D01*
X205362914Y-185671485D01*
X205362914Y-186100057D01*
X205291485Y-186242914D01*
X205220057Y-186314342D01*
X205077200Y-186385771D01*
X204791485Y-186385771D01*
X204648628Y-186314342D01*
D10*
D11*
X177002200Y-181507200D02*
X285002200Y-181507200D01*
D10*
D11*
X178362914Y-183614342D02*
X178577200Y-183685771D01*
X178934342Y-183685771D01*
X179077200Y-183614342D01*
X179148628Y-183542914D01*
X179220057Y-183400057D01*
X179220057Y-183257200D01*
X179148628Y-183114342D01*
X179077200Y-183042914D01*
X178934342Y-182971485D01*
X178648628Y-182900057D01*
X178505771Y-182828628D01*
X178434342Y-182757200D01*
X178362914Y-182614342D01*
X178362914Y-182471485D01*
X178434342Y-182328628D01*
X178505771Y-182257200D01*
X178648628Y-182185771D01*
X179005771Y-182185771D01*
X179220057Y-182257200D01*
X179862914Y-183685771D02*
X179862914Y-182185771D01*
X180505771Y-183685771D02*
X180505771Y-182900057D01*
X180434342Y-182757200D01*
X180291485Y-182685771D01*
X180077200Y-182685771D01*
X179934342Y-182757200D01*
X179862914Y-182828628D01*
X181791485Y-183614342D02*
X181648628Y-183685771D01*
X181362914Y-183685771D01*
X181220057Y-183614342D01*
X181148628Y-183471485D01*
X181148628Y-182900057D01*
X181220057Y-182757200D01*
X181362914Y-182685771D01*
X181648628Y-182685771D01*
X181791485Y-182757200D01*
X181862914Y-182900057D01*
X181862914Y-183042914D01*
X181148628Y-183185771D01*
X183077200Y-183614342D02*
X182934342Y-183685771D01*
X182648628Y-183685771D01*
X182505771Y-183614342D01*
X182434342Y-183471485D01*
X182434342Y-182900057D01*
X182505771Y-182757200D01*
X182648628Y-182685771D01*
X182934342Y-182685771D01*
X183077200Y-182757200D01*
X183148628Y-182900057D01*
X183148628Y-183042914D01*
X182434342Y-183185771D01*
X183577200Y-182685771D02*
X184148628Y-182685771D01*
X183791485Y-182185771D02*
X183791485Y-183471485D01*
X183862914Y-183614342D01*
X184005771Y-183685771D01*
X184148628Y-183685771D01*
X184648628Y-183542914D02*
X184720057Y-183614342D01*
X184648628Y-183685771D01*
X184577200Y-183614342D01*
X184648628Y-183542914D01*
X184648628Y-183685771D01*
X184648628Y-182757200D02*
X184720057Y-182828628D01*
X184648628Y-182900057D01*
X184577200Y-182828628D01*
X184648628Y-182757200D01*
X184648628Y-182900057D01*
D10*
D11*
X197002200Y-191507200D02*
X197002200Y-194507200D01*
D10*
D11*
X261002200Y-191507200D02*
X261002200Y-198007200D01*
X12668190Y-262847D02*
X13639619Y-262847D01*
X13153904Y-1962847D02*
X13153904Y-262847D01*
X14206285Y-1962847D02*
X14206285Y-262847D01*
X14934857Y-1962847D02*
X14934857Y-1072371D01*
X14853904Y-910466D01*
X14692000Y-829514D01*
X14449142Y-829514D01*
X14287238Y-910466D01*
X14206285Y-991419D01*
X16472952Y-1962847D02*
X16472952Y-1072371D01*
X16392000Y-910466D01*
X16230095Y-829514D01*
X15906285Y-829514D01*
X15744380Y-910466D01*
X16472952Y-1881895D02*
X16311047Y-1962847D01*
X15906285Y-1962847D01*
X15744380Y-1881895D01*
X15663428Y-1719990D01*
X15663428Y-1558085D01*
X15744380Y-1396180D01*
X15906285Y-1315228D01*
X16311047Y-1315228D01*
X16472952Y-1234276D01*
X17282476Y-829514D02*
X17282476Y-1962847D01*
X17282476Y-991419D02*
X17363428Y-910466D01*
X17525333Y-829514D01*
X17768190Y-829514D01*
X17930095Y-910466D01*
X18011047Y-1072371D01*
X18011047Y-1962847D01*
X18820571Y-1962847D02*
X18820571Y-262847D01*
X18982476Y-1315228D02*
X19468190Y-1962847D01*
X19468190Y-829514D02*
X18820571Y-1477133D01*
X20115809Y-1881895D02*
X20277714Y-1962847D01*
X20601523Y-1962847D01*
X20763428Y-1881895D01*
X20844380Y-1719990D01*
X20844380Y-1639038D01*
X20763428Y-1477133D01*
X20601523Y-1396180D01*
X20358666Y-1396180D01*
X20196761Y-1315228D01*
X20115809Y-1153323D01*
X20115809Y-1072371D01*
X20196761Y-910466D01*
X20358666Y-829514D01*
X20601523Y-829514D01*
X20763428Y-910466D01*
X22625333Y-829514D02*
X23272952Y-829514D01*
X22868190Y-1962847D02*
X22868190Y-505704D01*
X22949142Y-343800D01*
X23111047Y-262847D01*
X23272952Y-262847D01*
X24082476Y-1962847D02*
X23920571Y-1881895D01*
X23839619Y-1800942D01*
X23758666Y-1639038D01*
X23758666Y-1153323D01*
X23839619Y-991419D01*
X23920571Y-910466D01*
X24082476Y-829514D01*
X24325333Y-829514D01*
X24487238Y-910466D01*
X24568190Y-991419D01*
X24649142Y-1153323D01*
X24649142Y-1639038D01*
X24568190Y-1800942D01*
X24487238Y-1881895D01*
X24325333Y-1962847D01*
X24082476Y-1962847D01*
X25377714Y-1962847D02*
X25377714Y-829514D01*
X25377714Y-1153323D02*
X25458666Y-991419D01*
X25539619Y-910466D01*
X25701523Y-829514D01*
X25863428Y-829514D01*
X27725333Y-829514D02*
X27725333Y-2529514D01*
X27725333Y-910466D02*
X27887238Y-829514D01*
X28211047Y-829514D01*
X28372952Y-910466D01*
X28453904Y-991419D01*
X28534857Y-1153323D01*
X28534857Y-1639038D01*
X28453904Y-1800942D01*
X28372952Y-1881895D01*
X28211047Y-1962847D01*
X27887238Y-1962847D01*
X27725333Y-1881895D01*
X29506285Y-1962847D02*
X29344380Y-1881895D01*
X29263428Y-1719990D01*
X29263428Y-262847D01*
X30882476Y-1962847D02*
X30882476Y-1072371D01*
X30801523Y-910466D01*
X30639619Y-829514D01*
X30315809Y-829514D01*
X30153904Y-910466D01*
X30882476Y-1881895D02*
X30720571Y-1962847D01*
X30315809Y-1962847D01*
X30153904Y-1881895D01*
X30072952Y-1719990D01*
X30072952Y-1558085D01*
X30153904Y-1396180D01*
X30315809Y-1315228D01*
X30720571Y-1315228D01*
X30882476Y-1234276D01*
X31530095Y-829514D02*
X31934857Y-1962847D01*
X32339619Y-829514D02*
X31934857Y-1962847D01*
X31772952Y-2367609D01*
X31691999Y-2448561D01*
X31530095Y-2529514D01*
X32987238Y-1962847D02*
X32987238Y-829514D01*
X32987238Y-262847D02*
X32906285Y-343800D01*
X32987238Y-424752D01*
X33068190Y-343800D01*
X32987238Y-262847D01*
X32987238Y-424752D01*
X33796761Y-829514D02*
X33796761Y-1962847D01*
X33796761Y-991419D02*
X33877714Y-910466D01*
X34039619Y-829514D01*
X34282476Y-829514D01*
X34444380Y-910466D01*
X34525333Y-1072371D01*
X34525333Y-1962847D01*
X36063428Y-829514D02*
X36063428Y-2205704D01*
X35982476Y-2367609D01*
X35901523Y-2448561D01*
X35739619Y-2529514D01*
X35496761Y-2529514D01*
X35334857Y-2448561D01*
X36063428Y-1881895D02*
X35901523Y-1962847D01*
X35577714Y-1962847D01*
X35415809Y-1881895D01*
X35334857Y-1800942D01*
X35253904Y-1639038D01*
X35253904Y-1153323D01*
X35334857Y-991419D01*
X35415809Y-910466D01*
X35577714Y-829514D01*
X35901523Y-829514D01*
X36063428Y-910466D01*
X36872952Y-1800942D02*
X36953904Y-1881895D01*
X36872952Y-1962847D01*
X36792000Y-1881895D01*
X36872952Y-1800942D01*
X36872952Y-1962847D01*
X36872952Y-1315228D02*
X36792000Y-343800D01*
X36872952Y-262847D01*
X36953904Y-343800D01*
X36872952Y-1315228D01*
X36872952Y-262847D01*
X9485619Y108021428D02*
X9628476Y107973809D01*
X9676095Y107926190D01*
X9723714Y107830952D01*
X9723714Y107688095D01*
X9676095Y107592857D01*
X9628476Y107545238D01*
X9533238Y107497619D01*
X9152285Y107497619D01*
X9152285Y108497619D01*
X9485619Y108497619D01*
X9580857Y108450000D01*
X9628476Y108402380D01*
X9676095Y108307142D01*
X9676095Y108211904D01*
X9628476Y108116666D01*
X9580857Y108069047D01*
X9485619Y108021428D01*
X9152285Y108021428D01*
X11438000Y108450000D02*
X11342761Y108497619D01*
X11199904Y108497619D01*
X11057047Y108450000D01*
X10961809Y108354761D01*
X10914190Y108259523D01*
X10866571Y108069047D01*
X10866571Y107926190D01*
X10914190Y107735714D01*
X10961809Y107640476D01*
X11057047Y107545238D01*
X11199904Y107497619D01*
X11295142Y107497619D01*
X11438000Y107545238D01*
X11485619Y107592857D01*
X11485619Y107926190D01*
X11295142Y107926190D01*
X14771333Y107497619D02*
X14438000Y107973809D01*
X14199904Y107497619D02*
X14199904Y108497619D01*
X14580857Y108497619D01*
X14676095Y108450000D01*
X14723714Y108402380D01*
X14771333Y108307142D01*
X14771333Y108164285D01*
X14723714Y108069047D01*
X14676095Y108021428D01*
X14580857Y107973809D01*
X14199904Y107973809D01*
D14*
X26413000Y58850840D02*
X26413000Y58450840D01*
X26413000Y58450840D02*
X26613000Y58650840D01*
X26613000Y58650840D02*
X26413000Y58850840D01*
X30812990Y59568080D02*
G75*
G03*
X30812990Y59568080I-2999990J0D01*
G01*
X30812990Y59568080D02*
G75*
G03*
X30812990Y59568080I-2999990J0D01*
G01*
X26613000Y58650840D02*
X26413000Y58850840D01*
X26413000Y58850840D02*
X26413000Y58450840D01*
X26413000Y58450840D02*
X26613000Y58650840D01*
X43101510Y69189600D02*
G75*
G03*
X43101510Y69189600I-2999990J0D01*
G01*
X41218760Y67789600D02*
X41018760Y67989600D01*
X40818760Y67815000D02*
X41218760Y67815000D01*
X12799360Y68192800D02*
X12599360Y67992800D01*
X41018760Y67989600D02*
X40818760Y67789600D01*
X26543960Y67992800D02*
X26943960Y67992800D01*
X41018760Y68015000D02*
X40818760Y67815000D01*
X14882110Y69392800D02*
G75*
G03*
X14882110Y69392800I-2999990J0D01*
G01*
X26543960Y67992800D02*
X26943960Y67992800D01*
X26743960Y68192800D02*
X26543960Y67992800D01*
X12599360Y67992800D02*
X12999360Y67992800D01*
X40818760Y67789600D02*
X41218760Y67789600D01*
X26943960Y67992800D02*
X26743960Y68192800D01*
X43101510Y69215000D02*
G75*
G03*
X43101510Y69215000I-2999990J0D01*
G01*
X26743960Y68192800D02*
X26543960Y67992800D01*
X41218760Y67815000D02*
X41018760Y68015000D01*
X12999360Y67992800D02*
X12799360Y68192800D01*
X26943960Y67992800D02*
X26743960Y68192800D01*
X28826710Y69392800D02*
G75*
G03*
X28826710Y69392800I-2999990J0D01*
G01*
X28826710Y69392800D02*
G75*
G03*
X28826710Y69392800I-2999990J0D01*
G01*
X14882110Y69392800D02*
G75*
G03*
X14882110Y69392800I-2999990J0D01*
G01*
X12999360Y67992800D02*
X12799360Y68192800D01*
X12599360Y67992800D02*
X12999360Y67992800D01*
X12799360Y68192800D02*
X12599360Y67992800D01*
X43457110Y87604600D02*
G75*
G03*
X43457110Y87604600I-2999990J0D01*
G01*
X41574360Y86204600D02*
X41374360Y86404600D01*
X41174360Y86230000D02*
X41574360Y86230000D01*
X13154960Y86607800D02*
X12954960Y86407800D01*
X41374360Y86404600D02*
X41174360Y86204600D01*
X26899560Y86407800D02*
X27299560Y86407800D01*
X41374360Y86430000D02*
X41174360Y86230000D01*
X15237710Y87807800D02*
G75*
G03*
X15237710Y87807800I-2999990J0D01*
G01*
X26899560Y86407800D02*
X27299560Y86407800D01*
X27099560Y86607800D02*
X26899560Y86407800D01*
X12954960Y86407800D02*
X13354960Y86407800D01*
X41174360Y86204600D02*
X41574360Y86204600D01*
X27299560Y86407800D02*
X27099560Y86607800D01*
X43457110Y87630000D02*
G75*
G03*
X43457110Y87630000I-2999990J0D01*
G01*
X27099560Y86607800D02*
X26899560Y86407800D01*
X41574360Y86230000D02*
X41374360Y86430000D01*
X13354960Y86407800D02*
X13154960Y86607800D01*
X27299560Y86407800D02*
X27099560Y86607800D01*
X29182310Y87807800D02*
G75*
G03*
X29182310Y87807800I-2999990J0D01*
G01*
X29182310Y87807800D02*
G75*
G03*
X29182310Y87807800I-2999990J0D01*
G01*
X15237710Y87807800D02*
G75*
G03*
X15237710Y87807800I-2999990J0D01*
G01*
X13354960Y86407800D02*
X13154960Y86607800D01*
X12954960Y86407800D02*
X13354960Y86407800D01*
X13154960Y86607800D02*
X12954960Y86407800D01*
X43253910Y106603800D02*
G75*
G03*
X43253910Y106603800I-2999990J0D01*
G01*
X41371160Y105203800D02*
X41171160Y105403800D01*
X40971160Y105203800D02*
X41371160Y105203800D01*
X41171160Y105403800D02*
X40971160Y105203800D01*
X28979110Y106781600D02*
G75*
G03*
X28979110Y106781600I-2999990J0D01*
G01*
X27096360Y105381600D02*
X26896360Y105581600D01*
X26696360Y105381600D02*
X27096360Y105381600D01*
X26896360Y105581600D02*
X26696360Y105381600D01*
X15034510Y106781600D02*
G75*
G03*
X15034510Y106781600I-2999990J0D01*
G01*
X13151760Y105381600D02*
X12951760Y105581600D01*
X12751760Y105381600D02*
X13151760Y105381600D01*
X12951760Y105581600D02*
X12751760Y105381600D01*
X43253910Y106578400D02*
G75*
G03*
X43253910Y106578400I-2999990J0D01*
G01*
X41371160Y105178400D02*
X41171160Y105378400D01*
X40971160Y105178400D02*
X41371160Y105178400D01*
X41171160Y105378400D02*
X40971160Y105178400D01*
X28979110Y106781600D02*
G75*
G03*
X28979110Y106781600I-2999990J0D01*
G01*
X27096360Y105381600D02*
X26896360Y105581600D01*
X26696360Y105381600D02*
X27096360Y105381600D01*
X26896360Y105581600D02*
X26696360Y105381600D01*
D11*
X24228066Y125731019D02*
X24799495Y125731019D01*
X24513780Y124731019D02*
X24513780Y125731019D01*
X25132828Y124731019D02*
X25132828Y125397685D01*
X25132828Y125731019D02*
X25085209Y125683400D01*
X25132828Y125635780D01*
X25180447Y125683400D01*
X25132828Y125731019D01*
X25132828Y125635780D01*
X26037590Y124778638D02*
X25942352Y124731019D01*
X25751876Y124731019D01*
X25656638Y124778638D01*
X25609019Y124826257D01*
X25561400Y124921495D01*
X25561400Y125207209D01*
X25609019Y125302447D01*
X25656638Y125350066D01*
X25751876Y125397685D01*
X25942352Y125397685D01*
X26037590Y125350066D01*
X26466161Y125111971D02*
X27228066Y125111971D01*
X27561400Y125731019D02*
X28132828Y125731019D01*
X27847114Y124731019D02*
X27847114Y125731019D01*
X28894733Y124731019D02*
X28894733Y125254828D01*
X28847114Y125350066D01*
X28751876Y125397685D01*
X28561400Y125397685D01*
X28466161Y125350066D01*
X28894733Y124778638D02*
X28799495Y124731019D01*
X28561400Y124731019D01*
X28466161Y124778638D01*
X28418542Y124873876D01*
X28418542Y124969114D01*
X28466161Y125064352D01*
X28561400Y125111971D01*
X28799495Y125111971D01*
X28894733Y125159590D01*
X29799495Y124778638D02*
X29704257Y124731019D01*
X29513780Y124731019D01*
X29418542Y124778638D01*
X29370923Y124826257D01*
X29323304Y124921495D01*
X29323304Y125207209D01*
X29370923Y125302447D01*
X29418542Y125350066D01*
X29513780Y125397685D01*
X29704257Y125397685D01*
X29799495Y125350066D01*
X30228066Y125111971D02*
X30989971Y125111971D01*
X31323304Y125731019D02*
X31894733Y125731019D01*
X31609019Y124731019D02*
X31609019Y125731019D01*
X32370923Y124731019D02*
X32275685Y124778638D01*
X32228066Y124826257D01*
X32180447Y124921495D01*
X32180447Y125207209D01*
X32228066Y125302447D01*
X32275685Y125350066D01*
X32370923Y125397685D01*
X32513780Y125397685D01*
X32609019Y125350066D01*
X32656638Y125302447D01*
X32704257Y125207209D01*
X32704257Y124921495D01*
X32656638Y124826257D01*
X32609019Y124778638D01*
X32513780Y124731019D01*
X32370923Y124731019D01*
X33513780Y124778638D02*
X33418542Y124731019D01*
X33228066Y124731019D01*
X33132828Y124778638D01*
X33085209Y124873876D01*
X33085209Y125254828D01*
X33132828Y125350066D01*
X33228066Y125397685D01*
X33418542Y125397685D01*
X33513780Y125350066D01*
X33561400Y125254828D01*
X33561400Y125159590D01*
X33085209Y125064352D01*
X34704257Y124778638D02*
X34847114Y124731019D01*
X35085209Y124731019D01*
X35180447Y124778638D01*
X35228066Y124826257D01*
X35275685Y124921495D01*
X35275685Y125016733D01*
X35228066Y125111971D01*
X35180447Y125159590D01*
X35085209Y125207209D01*
X34894733Y125254828D01*
X34799495Y125302447D01*
X34751876Y125350066D01*
X34704257Y125445304D01*
X34704257Y125540542D01*
X34751876Y125635780D01*
X34799495Y125683400D01*
X34894733Y125731019D01*
X35132828Y125731019D01*
X35275685Y125683400D01*
X35704257Y124731019D02*
X35704257Y125397685D01*
X35704257Y125302447D02*
X35751876Y125350066D01*
X35847114Y125397685D01*
X35989971Y125397685D01*
X36085209Y125350066D01*
X36132828Y125254828D01*
X36132828Y124731019D01*
X36132828Y125254828D02*
X36180447Y125350066D01*
X36275685Y125397685D01*
X36418542Y125397685D01*
X36513780Y125350066D01*
X36561400Y125254828D01*
X36561400Y124731019D01*
X37466161Y124731019D02*
X37466161Y125254828D01*
X37418542Y125350066D01*
X37323304Y125397685D01*
X37132828Y125397685D01*
X37037590Y125350066D01*
X37466161Y124778638D02*
X37370923Y124731019D01*
X37132828Y124731019D01*
X37037590Y124778638D01*
X36989971Y124873876D01*
X36989971Y124969114D01*
X37037590Y125064352D01*
X37132828Y125111971D01*
X37370923Y125111971D01*
X37466161Y125159590D01*
X37942352Y124731019D02*
X37942352Y125397685D01*
X37942352Y125207209D02*
X37989971Y125302447D01*
X38037590Y125350066D01*
X38132828Y125397685D01*
X38228066Y125397685D01*
X38418542Y125397685D02*
X38799495Y125397685D01*
X38561400Y125731019D02*
X38561400Y124873876D01*
X38609019Y124778638D01*
X38704257Y124731019D01*
X38799495Y124731019D01*
X40228066Y125254828D02*
X40370923Y125207209D01*
X40418542Y125159590D01*
X40466161Y125064352D01*
X40466161Y124921495D01*
X40418542Y124826257D01*
X40370923Y124778638D01*
X40275685Y124731019D01*
X39894733Y124731019D01*
X39894733Y125731019D01*
X40228066Y125731019D01*
X40323304Y125683400D01*
X40370923Y125635780D01*
X40418542Y125540542D01*
X40418542Y125445304D01*
X40370923Y125350066D01*
X40323304Y125302447D01*
X40228066Y125254828D01*
X39894733Y125254828D01*
X41037590Y124731019D02*
X40942352Y124778638D01*
X40894733Y124826257D01*
X40847114Y124921495D01*
X40847114Y125207209D01*
X40894733Y125302447D01*
X40942352Y125350066D01*
X41037590Y125397685D01*
X41180447Y125397685D01*
X41275685Y125350066D01*
X41323304Y125302447D01*
X41370923Y125207209D01*
X41370923Y124921495D01*
X41323304Y124826257D01*
X41275685Y124778638D01*
X41180447Y124731019D01*
X41037590Y124731019D01*
X42228066Y124731019D02*
X42228066Y125254828D01*
X42180447Y125350066D01*
X42085209Y125397685D01*
X41894733Y125397685D01*
X41799495Y125350066D01*
X42228066Y124778638D02*
X42132828Y124731019D01*
X41894733Y124731019D01*
X41799495Y124778638D01*
X41751876Y124873876D01*
X41751876Y124969114D01*
X41799495Y125064352D01*
X41894733Y125111971D01*
X42132828Y125111971D01*
X42228066Y125159590D01*
X42704257Y124731019D02*
X42704257Y125397685D01*
X42704257Y125207209D02*
X42751876Y125302447D01*
X42799495Y125350066D01*
X42894733Y125397685D01*
X42989971Y125397685D01*
X43751876Y124731019D02*
X43751876Y125731019D01*
X43751876Y124778638D02*
X43656638Y124731019D01*
X43466161Y124731019D01*
X43370923Y124778638D01*
X43323304Y124826257D01*
X43275685Y124921495D01*
X43275685Y125207209D01*
X43323304Y125302447D01*
X43370923Y125350066D01*
X43466161Y125397685D01*
X43656638Y125397685D01*
X43751876Y125350066D01*
X24204257Y123366733D02*
X24680447Y123366733D01*
X24109019Y123081019D02*
X24442352Y124081019D01*
X24775685Y123081019D01*
X25109019Y123081019D02*
X25109019Y123747685D01*
X25109019Y123557209D02*
X25156638Y123652447D01*
X25204257Y123700066D01*
X25299495Y123747685D01*
X25394733Y123747685D01*
X26156638Y123081019D02*
X26156638Y124081019D01*
X26156638Y123128638D02*
X26061400Y123081019D01*
X25870923Y123081019D01*
X25775685Y123128638D01*
X25728066Y123176257D01*
X25680447Y123271495D01*
X25680447Y123557209D01*
X25728066Y123652447D01*
X25775685Y123700066D01*
X25870923Y123747685D01*
X26061400Y123747685D01*
X26156638Y123700066D01*
X27061400Y123747685D02*
X27061400Y123081019D01*
X26632828Y123747685D02*
X26632828Y123223876D01*
X26680447Y123128638D01*
X26775685Y123081019D01*
X26918542Y123081019D01*
X27013780Y123128638D01*
X27061400Y123176257D01*
X27537590Y123081019D02*
X27537590Y123747685D01*
X27537590Y124081019D02*
X27489971Y124033400D01*
X27537590Y123985780D01*
X27585209Y124033400D01*
X27537590Y124081019D01*
X27537590Y123985780D01*
X28013780Y123747685D02*
X28013780Y123081019D01*
X28013780Y123652447D02*
X28061400Y123700066D01*
X28156638Y123747685D01*
X28299495Y123747685D01*
X28394733Y123700066D01*
X28442352Y123604828D01*
X28442352Y123081019D01*
X29061400Y123081019D02*
X28966161Y123128638D01*
X28918542Y123176257D01*
X28870923Y123271495D01*
X28870923Y123557209D01*
X28918542Y123652447D01*
X28966161Y123700066D01*
X29061400Y123747685D01*
X29204257Y123747685D01*
X29299495Y123700066D01*
X29347114Y123652447D01*
X29394733Y123557209D01*
X29394733Y123271495D01*
X29347114Y123176257D01*
X29299495Y123128638D01*
X29204257Y123081019D01*
X29061400Y123081019D01*
X30585209Y123081019D02*
X30585209Y124081019D01*
X30918542Y123366733D01*
X31251876Y124081019D01*
X31251876Y123081019D01*
X32109019Y123128638D02*
X32013780Y123081019D01*
X31823304Y123081019D01*
X31728066Y123128638D01*
X31680447Y123223876D01*
X31680447Y123604828D01*
X31728066Y123700066D01*
X31823304Y123747685D01*
X32013780Y123747685D01*
X32109019Y123700066D01*
X32156638Y123604828D01*
X32156638Y123509590D01*
X31680447Y123414352D01*
X33013780Y123747685D02*
X33013780Y122938161D01*
X32966161Y122842923D01*
X32918542Y122795304D01*
X32823304Y122747685D01*
X32680447Y122747685D01*
X32585209Y122795304D01*
X33013780Y123128638D02*
X32918542Y123081019D01*
X32728066Y123081019D01*
X32632828Y123128638D01*
X32585209Y123176257D01*
X32537590Y123271495D01*
X32537590Y123557209D01*
X32585209Y123652447D01*
X32632828Y123700066D01*
X32728066Y123747685D01*
X32918542Y123747685D01*
X33013780Y123700066D01*
X33918542Y123081019D02*
X33918542Y123604828D01*
X33870923Y123700066D01*
X33775685Y123747685D01*
X33585209Y123747685D01*
X33489971Y123700066D01*
X33918542Y123128638D02*
X33823304Y123081019D01*
X33585209Y123081019D01*
X33489971Y123128638D01*
X33442352Y123223876D01*
X33442352Y123319114D01*
X33489971Y123414352D01*
X33585209Y123461971D01*
X33823304Y123461971D01*
X33918542Y123509590D01*
X35109019Y123985780D02*
X35156638Y124033400D01*
X35251876Y124081019D01*
X35489971Y124081019D01*
X35585209Y124033400D01*
X35632828Y123985780D01*
X35680447Y123890542D01*
X35680447Y123795304D01*
X35632828Y123652447D01*
X35061400Y123081019D01*
X35680447Y123081019D01*
X36585209Y124081019D02*
X36109019Y124081019D01*
X36061400Y123604828D01*
X36109019Y123652447D01*
X36204257Y123700066D01*
X36442352Y123700066D01*
X36537590Y123652447D01*
X36585209Y123604828D01*
X36632828Y123509590D01*
X36632828Y123271495D01*
X36585209Y123176257D01*
X36537590Y123128638D01*
X36442352Y123081019D01*
X36204257Y123081019D01*
X36109019Y123128638D01*
X36061400Y123176257D01*
X37489971Y124081019D02*
X37299495Y124081019D01*
X37204257Y124033400D01*
X37156638Y123985780D01*
X37061400Y123842923D01*
X37013780Y123652447D01*
X37013780Y123271495D01*
X37061400Y123176257D01*
X37109019Y123128638D01*
X37204257Y123081019D01*
X37394733Y123081019D01*
X37489971Y123128638D01*
X37537590Y123176257D01*
X37585209Y123271495D01*
X37585209Y123509590D01*
X37537590Y123604828D01*
X37489971Y123652447D01*
X37394733Y123700066D01*
X37204257Y123700066D01*
X37109019Y123652447D01*
X37061400Y123604828D01*
X37013780Y123509590D01*
X38204257Y124081019D02*
X38299495Y124081019D01*
X38394733Y124033400D01*
X38442352Y123985780D01*
X38489971Y123890542D01*
X38537590Y123700066D01*
X38537590Y123461971D01*
X38489971Y123271495D01*
X38442352Y123176257D01*
X38394733Y123128638D01*
X38299495Y123081019D01*
X38204257Y123081019D01*
X38109019Y123128638D01*
X38061400Y123176257D01*
X38013780Y123271495D01*
X37966161Y123461971D01*
X37966161Y123700066D01*
X38013780Y123890542D01*
X38061400Y123985780D01*
X38109019Y124033400D01*
X38204257Y124081019D01*
X39680447Y123128638D02*
X39823304Y123081019D01*
X40061400Y123081019D01*
X40156638Y123128638D01*
X40204257Y123176257D01*
X40251876Y123271495D01*
X40251876Y123366733D01*
X40204257Y123461971D01*
X40156638Y123509590D01*
X40061400Y123557209D01*
X39870923Y123604828D01*
X39775685Y123652447D01*
X39728066Y123700066D01*
X39680447Y123795304D01*
X39680447Y123890542D01*
X39728066Y123985780D01*
X39775685Y124033400D01*
X39870923Y124081019D01*
X40109019Y124081019D01*
X40251876Y124033400D01*
X40680447Y123081019D02*
X40680447Y124081019D01*
X41109019Y123081019D02*
X41109019Y123604828D01*
X41061400Y123700066D01*
X40966161Y123747685D01*
X40823304Y123747685D01*
X40728066Y123700066D01*
X40680447Y123652447D01*
X41585209Y123081019D02*
X41585209Y123747685D01*
X41585209Y124081019D02*
X41537590Y124033400D01*
X41585209Y123985780D01*
X41632828Y124033400D01*
X41585209Y124081019D01*
X41585209Y123985780D01*
X42442352Y123128638D02*
X42347114Y123081019D01*
X42156638Y123081019D01*
X42061400Y123128638D01*
X42013780Y123223876D01*
X42013780Y123604828D01*
X42061400Y123700066D01*
X42156638Y123747685D01*
X42347114Y123747685D01*
X42442352Y123700066D01*
X42489971Y123604828D01*
X42489971Y123509590D01*
X42013780Y123414352D01*
X43061400Y123081019D02*
X42966161Y123128638D01*
X42918542Y123223876D01*
X42918542Y124081019D01*
X43870923Y123081019D02*
X43870923Y124081019D01*
X43870923Y123128638D02*
X43775685Y123081019D01*
X43585209Y123081019D01*
X43489971Y123128638D01*
X43442352Y123176257D01*
X43394733Y123271495D01*
X43394733Y123557209D01*
X43442352Y123652447D01*
X43489971Y123700066D01*
X43585209Y123747685D01*
X43775685Y123747685D01*
X43870923Y123700066D01*
X38384314Y3611619D02*
X38050980Y4087809D01*
X37812885Y3611619D02*
X37812885Y4611619D01*
X38193838Y4611619D01*
X38289076Y4564000D01*
X38336695Y4516380D01*
X38384314Y4421142D01*
X38384314Y4278285D01*
X38336695Y4183047D01*
X38289076Y4135428D01*
X38193838Y4087809D01*
X37812885Y4087809D01*
X38860504Y3611619D02*
X39050980Y3611619D01*
X39146219Y3659238D01*
X39193838Y3706857D01*
X39289076Y3849714D01*
X39336695Y4040190D01*
X39336695Y4421142D01*
X39289076Y4516380D01*
X39241457Y4564000D01*
X39146219Y4611619D01*
X38955742Y4611619D01*
X38860504Y4564000D01*
X38812885Y4516380D01*
X38765266Y4421142D01*
X38765266Y4183047D01*
X38812885Y4087809D01*
X38860504Y4040190D01*
X38955742Y3992571D01*
X39146219Y3992571D01*
X39241457Y4040190D01*
X39289076Y4087809D01*
X39336695Y4183047D01*
X39717647Y3659238D02*
X39860504Y3611619D01*
X40098600Y3611619D01*
X40193838Y3659238D01*
X40241457Y3706857D01*
X40289076Y3802095D01*
X40289076Y3897333D01*
X40241457Y3992571D01*
X40193838Y4040190D01*
X40098600Y4087809D01*
X39908123Y4135428D01*
X39812885Y4183047D01*
X39765266Y4230666D01*
X39717647Y4325904D01*
X39717647Y4421142D01*
X39765266Y4516380D01*
X39812885Y4564000D01*
X39908123Y4611619D01*
X40146219Y4611619D01*
X40289076Y4564000D01*
X40622409Y4611619D02*
X40860504Y3611619D01*
X41050980Y4325904D01*
X41241457Y3611619D01*
X41479552Y4611619D01*
X24236514Y3611619D02*
X23903180Y4087809D01*
X23665085Y3611619D02*
X23665085Y4611619D01*
X24046038Y4611619D01*
X24141276Y4564000D01*
X24188895Y4516380D01*
X24236514Y4421142D01*
X24236514Y4278285D01*
X24188895Y4183047D01*
X24141276Y4135428D01*
X24046038Y4087809D01*
X23665085Y4087809D01*
X24807942Y4183047D02*
X24712704Y4230666D01*
X24665085Y4278285D01*
X24617466Y4373523D01*
X24617466Y4421142D01*
X24665085Y4516380D01*
X24712704Y4564000D01*
X24807942Y4611619D01*
X24998419Y4611619D01*
X25093657Y4564000D01*
X25141276Y4516380D01*
X25188895Y4421142D01*
X25188895Y4373523D01*
X25141276Y4278285D01*
X25093657Y4230666D01*
X24998419Y4183047D01*
X24807942Y4183047D01*
X24712704Y4135428D01*
X24665085Y4087809D01*
X24617466Y3992571D01*
X24617466Y3802095D01*
X24665085Y3706857D01*
X24712704Y3659238D01*
X24807942Y3611619D01*
X24998419Y3611619D01*
X25093657Y3659238D01*
X25141276Y3706857D01*
X25188895Y3802095D01*
X25188895Y3992571D01*
X25141276Y4087809D01*
X25093657Y4135428D01*
X24998419Y4183047D01*
X25569847Y3659238D02*
X25712704Y3611619D01*
X25950800Y3611619D01*
X26046038Y3659238D01*
X26093657Y3706857D01*
X26141276Y3802095D01*
X26141276Y3897333D01*
X26093657Y3992571D01*
X26046038Y4040190D01*
X25950800Y4087809D01*
X25760323Y4135428D01*
X25665085Y4183047D01*
X25617466Y4230666D01*
X25569847Y4325904D01*
X25569847Y4421142D01*
X25617466Y4516380D01*
X25665085Y4564000D01*
X25760323Y4611619D01*
X25998419Y4611619D01*
X26141276Y4564000D01*
X26474609Y4611619D02*
X26712704Y3611619D01*
X26903180Y4325904D01*
X27093657Y3611619D01*
X27331752Y4611619D01*
X10876114Y3611619D02*
X10542780Y4087809D01*
X10304685Y3611619D02*
X10304685Y4611619D01*
X10685638Y4611619D01*
X10780876Y4564000D01*
X10828495Y4516380D01*
X10876114Y4421142D01*
X10876114Y4278285D01*
X10828495Y4183047D01*
X10780876Y4135428D01*
X10685638Y4087809D01*
X10304685Y4087809D01*
X11209447Y4611619D02*
X11876114Y4611619D01*
X11447542Y3611619D01*
X12209447Y3659238D02*
X12352304Y3611619D01*
X12590400Y3611619D01*
X12685638Y3659238D01*
X12733257Y3706857D01*
X12780876Y3802095D01*
X12780876Y3897333D01*
X12733257Y3992571D01*
X12685638Y4040190D01*
X12590400Y4087809D01*
X12399923Y4135428D01*
X12304685Y4183047D01*
X12257066Y4230666D01*
X12209447Y4325904D01*
X12209447Y4421142D01*
X12257066Y4516380D01*
X12304685Y4564000D01*
X12399923Y4611619D01*
X12638019Y4611619D01*
X12780876Y4564000D01*
X13114209Y4611619D02*
X13352304Y3611619D01*
X13542780Y4325904D01*
X13733257Y3611619D01*
X13971352Y4611619D01*
X38282714Y17302219D02*
X37949380Y17778409D01*
X37711285Y17302219D02*
X37711285Y18302219D01*
X38092238Y18302219D01*
X38187476Y18254600D01*
X38235095Y18206980D01*
X38282714Y18111742D01*
X38282714Y17968885D01*
X38235095Y17873647D01*
X38187476Y17826028D01*
X38092238Y17778409D01*
X37711285Y17778409D01*
X39139857Y18302219D02*
X38949380Y18302219D01*
X38854142Y18254600D01*
X38806523Y18206980D01*
X38711285Y18064123D01*
X38663666Y17873647D01*
X38663666Y17492695D01*
X38711285Y17397457D01*
X38758904Y17349838D01*
X38854142Y17302219D01*
X39044619Y17302219D01*
X39139857Y17349838D01*
X39187476Y17397457D01*
X39235095Y17492695D01*
X39235095Y17730790D01*
X39187476Y17826028D01*
X39139857Y17873647D01*
X39044619Y17921266D01*
X38854142Y17921266D01*
X38758904Y17873647D01*
X38711285Y17826028D01*
X38663666Y17730790D01*
X39616047Y17349838D02*
X39758904Y17302219D01*
X39997000Y17302219D01*
X40092238Y17349838D01*
X40139857Y17397457D01*
X40187476Y17492695D01*
X40187476Y17587933D01*
X40139857Y17683171D01*
X40092238Y17730790D01*
X39997000Y17778409D01*
X39806523Y17826028D01*
X39711285Y17873647D01*
X39663666Y17921266D01*
X39616047Y18016504D01*
X39616047Y18111742D01*
X39663666Y18206980D01*
X39711285Y18254600D01*
X39806523Y18302219D01*
X40044619Y18302219D01*
X40187476Y18254600D01*
X40520809Y18302219D02*
X40758904Y17302219D01*
X40949380Y18016504D01*
X41139857Y17302219D01*
X41377952Y18302219D01*
X24490514Y17226019D02*
X24157180Y17702209D01*
X23919085Y17226019D02*
X23919085Y18226019D01*
X24300038Y18226019D01*
X24395276Y18178400D01*
X24442895Y18130780D01*
X24490514Y18035542D01*
X24490514Y17892685D01*
X24442895Y17797447D01*
X24395276Y17749828D01*
X24300038Y17702209D01*
X23919085Y17702209D01*
X25395276Y18226019D02*
X24919085Y18226019D01*
X24871466Y17749828D01*
X24919085Y17797447D01*
X25014323Y17845066D01*
X25252419Y17845066D01*
X25347657Y17797447D01*
X25395276Y17749828D01*
X25442895Y17654590D01*
X25442895Y17416495D01*
X25395276Y17321257D01*
X25347657Y17273638D01*
X25252419Y17226019D01*
X25014323Y17226019D01*
X24919085Y17273638D01*
X24871466Y17321257D01*
X25823847Y17273638D02*
X25966704Y17226019D01*
X26204800Y17226019D01*
X26300038Y17273638D01*
X26347657Y17321257D01*
X26395276Y17416495D01*
X26395276Y17511733D01*
X26347657Y17606971D01*
X26300038Y17654590D01*
X26204800Y17702209D01*
X26014323Y17749828D01*
X25919085Y17797447D01*
X25871466Y17845066D01*
X25823847Y17940304D01*
X25823847Y18035542D01*
X25871466Y18130780D01*
X25919085Y18178400D01*
X26014323Y18226019D01*
X26252419Y18226019D01*
X26395276Y18178400D01*
X26728609Y18226019D02*
X26966704Y17226019D01*
X27157180Y17940304D01*
X27347657Y17226019D01*
X27585752Y18226019D01*
X10799914Y17403819D02*
X10466580Y17880009D01*
X10228485Y17403819D02*
X10228485Y18403819D01*
X10609438Y18403819D01*
X10704676Y18356200D01*
X10752295Y18308580D01*
X10799914Y18213342D01*
X10799914Y18070485D01*
X10752295Y17975247D01*
X10704676Y17927628D01*
X10609438Y17880009D01*
X10228485Y17880009D01*
X11657057Y18070485D02*
X11657057Y17403819D01*
X11418961Y18451438D02*
X11180866Y17737152D01*
X11799914Y17737152D01*
X12133247Y17451438D02*
X12276104Y17403819D01*
X12514200Y17403819D01*
X12609438Y17451438D01*
X12657057Y17499057D01*
X12704676Y17594295D01*
X12704676Y17689533D01*
X12657057Y17784771D01*
X12609438Y17832390D01*
X12514200Y17880009D01*
X12323723Y17927628D01*
X12228485Y17975247D01*
X12180866Y18022866D01*
X12133247Y18118104D01*
X12133247Y18213342D01*
X12180866Y18308580D01*
X12228485Y18356200D01*
X12323723Y18403819D01*
X12561819Y18403819D01*
X12704676Y18356200D01*
X13038009Y18403819D02*
X13276104Y17403819D01*
X13466580Y18118104D01*
X13657057Y17403819D01*
X13895152Y18403819D01*
X38206514Y31678619D02*
X37873180Y32154809D01*
X37635085Y31678619D02*
X37635085Y32678619D01*
X38016038Y32678619D01*
X38111276Y32631000D01*
X38158895Y32583380D01*
X38206514Y32488142D01*
X38206514Y32345285D01*
X38158895Y32250047D01*
X38111276Y32202428D01*
X38016038Y32154809D01*
X37635085Y32154809D01*
X38539847Y32678619D02*
X39158895Y32678619D01*
X38825561Y32297666D01*
X38968419Y32297666D01*
X39063657Y32250047D01*
X39111276Y32202428D01*
X39158895Y32107190D01*
X39158895Y31869095D01*
X39111276Y31773857D01*
X39063657Y31726238D01*
X38968419Y31678619D01*
X38682704Y31678619D01*
X38587466Y31726238D01*
X38539847Y31773857D01*
X39539847Y31726238D02*
X39682704Y31678619D01*
X39920800Y31678619D01*
X40016038Y31726238D01*
X40063657Y31773857D01*
X40111276Y31869095D01*
X40111276Y31964333D01*
X40063657Y32059571D01*
X40016038Y32107190D01*
X39920800Y32154809D01*
X39730323Y32202428D01*
X39635085Y32250047D01*
X39587466Y32297666D01*
X39539847Y32392904D01*
X39539847Y32488142D01*
X39587466Y32583380D01*
X39635085Y32631000D01*
X39730323Y32678619D01*
X39968419Y32678619D01*
X40111276Y32631000D01*
X40444609Y32678619D02*
X40682704Y31678619D01*
X40873180Y32392904D01*
X41063657Y31678619D01*
X41301752Y32678619D01*
X24490514Y31678619D02*
X24157180Y32154809D01*
X23919085Y31678619D02*
X23919085Y32678619D01*
X24300038Y32678619D01*
X24395276Y32631000D01*
X24442895Y32583380D01*
X24490514Y32488142D01*
X24490514Y32345285D01*
X24442895Y32250047D01*
X24395276Y32202428D01*
X24300038Y32154809D01*
X23919085Y32154809D01*
X24871466Y32583380D02*
X24919085Y32631000D01*
X25014323Y32678619D01*
X25252419Y32678619D01*
X25347657Y32631000D01*
X25395276Y32583380D01*
X25442895Y32488142D01*
X25442895Y32392904D01*
X25395276Y32250047D01*
X24823847Y31678619D01*
X25442895Y31678619D01*
X25823847Y31726238D02*
X25966704Y31678619D01*
X26204800Y31678619D01*
X26300038Y31726238D01*
X26347657Y31773857D01*
X26395276Y31869095D01*
X26395276Y31964333D01*
X26347657Y32059571D01*
X26300038Y32107190D01*
X26204800Y32154809D01*
X26014323Y32202428D01*
X25919085Y32250047D01*
X25871466Y32297666D01*
X25823847Y32392904D01*
X25823847Y32488142D01*
X25871466Y32583380D01*
X25919085Y32631000D01*
X26014323Y32678619D01*
X26252419Y32678619D01*
X26395276Y32631000D01*
X26728609Y32678619D02*
X26966704Y31678619D01*
X27157180Y32392904D01*
X27347657Y31678619D01*
X27585752Y32678619D01*
X10622114Y31678619D02*
X10288780Y32154809D01*
X10050685Y31678619D02*
X10050685Y32678619D01*
X10431638Y32678619D01*
X10526876Y32631000D01*
X10574495Y32583380D01*
X10622114Y32488142D01*
X10622114Y32345285D01*
X10574495Y32250047D01*
X10526876Y32202428D01*
X10431638Y32154809D01*
X10050685Y32154809D01*
X11574495Y31678619D02*
X11003066Y31678619D01*
X11288780Y31678619D02*
X11288780Y32678619D01*
X11193542Y32535761D01*
X11098304Y32440523D01*
X11003066Y32392904D01*
X11955447Y31726238D02*
X12098304Y31678619D01*
X12336400Y31678619D01*
X12431638Y31726238D01*
X12479257Y31773857D01*
X12526876Y31869095D01*
X12526876Y31964333D01*
X12479257Y32059571D01*
X12431638Y32107190D01*
X12336400Y32154809D01*
X12145923Y32202428D01*
X12050685Y32250047D01*
X12003066Y32297666D01*
X11955447Y32392904D01*
X11955447Y32488142D01*
X12003066Y32583380D01*
X12050685Y32631000D01*
X12145923Y32678619D01*
X12384019Y32678619D01*
X12526876Y32631000D01*
X12860209Y32678619D02*
X13098304Y31678619D01*
X13288780Y32392904D01*
X13479257Y31678619D01*
X13717352Y32678619D01*
X20045419Y62294876D02*
X20521609Y62628209D01*
X20045419Y62866304D02*
X21045419Y62866304D01*
X21045419Y62485352D01*
X20997800Y62390114D01*
X20950180Y62342495D01*
X20854942Y62294876D01*
X20712085Y62294876D01*
X20616847Y62342495D01*
X20569228Y62390114D01*
X20521609Y62485352D01*
X20521609Y62866304D01*
X20045419Y61342495D02*
X20045419Y61913923D01*
X20045419Y61628209D02*
X21045419Y61628209D01*
X20902561Y61723447D01*
X20807323Y61818685D01*
X20759704Y61913923D01*
X21045419Y60723447D02*
X21045419Y60628209D01*
X20997800Y60532971D01*
X20950180Y60485352D01*
X20854942Y60437733D01*
X20664466Y60390114D01*
X20426371Y60390114D01*
X20235895Y60437733D01*
X20140657Y60485352D01*
X20093038Y60532971D01*
X20045419Y60628209D01*
X20045419Y60723447D01*
X20093038Y60818685D01*
X20140657Y60866304D01*
X20235895Y60913923D01*
X20426371Y60961542D01*
X20664466Y60961542D01*
X20854942Y60913923D01*
X20950180Y60866304D01*
X20997800Y60818685D01*
X21045419Y60723447D01*
X20093038Y60009161D02*
X20045419Y59866304D01*
X20045419Y59628209D01*
X20093038Y59532971D01*
X20140657Y59485352D01*
X20235895Y59437733D01*
X20331133Y59437733D01*
X20426371Y59485352D01*
X20473990Y59532971D01*
X20521609Y59628209D01*
X20569228Y59818685D01*
X20616847Y59913923D01*
X20664466Y59961542D01*
X20759704Y60009161D01*
X20854942Y60009161D01*
X20950180Y59961542D01*
X20997800Y59913923D01*
X21045419Y59818685D01*
X21045419Y59580590D01*
X20997800Y59437733D01*
X21045419Y59104400D02*
X20045419Y58866304D01*
X20759704Y58675828D01*
X20045419Y58485352D01*
X21045419Y58247257D01*
X36231771Y55402219D02*
X35898438Y55878409D01*
X35660342Y55402219D02*
X35660342Y56402219D01*
X36041295Y56402219D01*
X36136533Y56354600D01*
X36184152Y56306980D01*
X36231771Y56211742D01*
X36231771Y56068885D01*
X36184152Y55973647D01*
X36136533Y55926028D01*
X36041295Y55878409D01*
X35660342Y55878409D01*
X37184152Y55402219D02*
X36612723Y55402219D01*
X36898438Y55402219D02*
X36898438Y56402219D01*
X36803200Y56259361D01*
X36707961Y56164123D01*
X36612723Y56116504D01*
X37803200Y56402219D02*
X37898438Y56402219D01*
X37993676Y56354600D01*
X38041295Y56306980D01*
X38088914Y56211742D01*
X38136533Y56021266D01*
X38136533Y55783171D01*
X38088914Y55592695D01*
X38041295Y55497457D01*
X37993676Y55449838D01*
X37898438Y55402219D01*
X37803200Y55402219D01*
X37707961Y55449838D01*
X37660342Y55497457D01*
X37612723Y55592695D01*
X37565104Y55783171D01*
X37565104Y56021266D01*
X37612723Y56211742D01*
X37660342Y56306980D01*
X37707961Y56354600D01*
X37803200Y56402219D01*
X38898438Y55926028D02*
X39041295Y55878409D01*
X39088914Y55830790D01*
X39136533Y55735552D01*
X39136533Y55592695D01*
X39088914Y55497457D01*
X39041295Y55449838D01*
X38946057Y55402219D01*
X38565104Y55402219D01*
X38565104Y56402219D01*
X38898438Y56402219D01*
X38993676Y56354600D01*
X39041295Y56306980D01*
X39088914Y56211742D01*
X39088914Y56116504D01*
X39041295Y56021266D01*
X38993676Y55973647D01*
X38898438Y55926028D01*
X38565104Y55926028D01*
X40041295Y55402219D02*
X39565104Y55402219D01*
X39565104Y56402219D01*
X40374628Y56402219D02*
X40374628Y55592695D01*
X40422247Y55497457D01*
X40469866Y55449838D01*
X40565104Y55402219D01*
X40755580Y55402219D01*
X40850819Y55449838D01*
X40898438Y55497457D01*
X40946057Y55592695D01*
X40946057Y56402219D01*
X36187333Y58932819D02*
X35854000Y59409009D01*
X35615904Y58932819D02*
X35615904Y59932819D01*
X35996857Y59932819D01*
X36092095Y59885200D01*
X36139714Y59837580D01*
X36187333Y59742342D01*
X36187333Y59599485D01*
X36139714Y59504247D01*
X36092095Y59456628D01*
X35996857Y59409009D01*
X35615904Y59409009D01*
X37139714Y58932819D02*
X36568285Y58932819D01*
X36854000Y58932819D02*
X36854000Y59932819D01*
X36758761Y59789961D01*
X36663523Y59694723D01*
X36568285Y59647104D01*
X37758761Y59932819D02*
X37854000Y59932819D01*
X37949238Y59885200D01*
X37996857Y59837580D01*
X38044476Y59742342D01*
X38092095Y59551866D01*
X38092095Y59313771D01*
X38044476Y59123295D01*
X37996857Y59028057D01*
X37949238Y58980438D01*
X37854000Y58932819D01*
X37758761Y58932819D01*
X37663523Y58980438D01*
X37615904Y59028057D01*
X37568285Y59123295D01*
X37520666Y59313771D01*
X37520666Y59551866D01*
X37568285Y59742342D01*
X37615904Y59837580D01*
X37663523Y59885200D01*
X37758761Y59932819D01*
X39044476Y59885200D02*
X38949238Y59932819D01*
X38806380Y59932819D01*
X38663523Y59885200D01*
X38568285Y59789961D01*
X38520666Y59694723D01*
X38473047Y59504247D01*
X38473047Y59361390D01*
X38520666Y59170914D01*
X38568285Y59075676D01*
X38663523Y58980438D01*
X38806380Y58932819D01*
X38901619Y58932819D01*
X39044476Y58980438D01*
X39092095Y59028057D01*
X39092095Y59361390D01*
X38901619Y59361390D01*
X40092095Y58932819D02*
X39758761Y59409009D01*
X39520666Y58932819D02*
X39520666Y59932819D01*
X39901619Y59932819D01*
X39996857Y59885200D01*
X40044476Y59837580D01*
X40092095Y59742342D01*
X40092095Y59599485D01*
X40044476Y59504247D01*
X39996857Y59456628D01*
X39901619Y59409009D01*
X39520666Y59409009D01*
X40520666Y58932819D02*
X40520666Y59932819D01*
X41092095Y58932819D01*
X41092095Y59932819D01*
X36030161Y62412619D02*
X35696828Y62888809D01*
X35458733Y62412619D02*
X35458733Y63412619D01*
X35839685Y63412619D01*
X35934923Y63365000D01*
X35982542Y63317380D01*
X36030161Y63222142D01*
X36030161Y63079285D01*
X35982542Y62984047D01*
X35934923Y62936428D01*
X35839685Y62888809D01*
X35458733Y62888809D01*
X36982542Y62412619D02*
X36411114Y62412619D01*
X36696828Y62412619D02*
X36696828Y63412619D01*
X36601590Y63269761D01*
X36506352Y63174523D01*
X36411114Y63126904D01*
X37601590Y63412619D02*
X37696828Y63412619D01*
X37792066Y63365000D01*
X37839685Y63317380D01*
X37887304Y63222142D01*
X37934923Y63031666D01*
X37934923Y62793571D01*
X37887304Y62603095D01*
X37839685Y62507857D01*
X37792066Y62460238D01*
X37696828Y62412619D01*
X37601590Y62412619D01*
X37506352Y62460238D01*
X37458733Y62507857D01*
X37411114Y62603095D01*
X37363495Y62793571D01*
X37363495Y63031666D01*
X37411114Y63222142D01*
X37458733Y63317380D01*
X37506352Y63365000D01*
X37601590Y63412619D01*
X38934923Y62412619D02*
X38601590Y62888809D01*
X38363495Y62412619D02*
X38363495Y63412619D01*
X38744447Y63412619D01*
X38839685Y63365000D01*
X38887304Y63317380D01*
X38934923Y63222142D01*
X38934923Y63079285D01*
X38887304Y62984047D01*
X38839685Y62936428D01*
X38744447Y62888809D01*
X38363495Y62888809D01*
X39363495Y62936428D02*
X39696828Y62936428D01*
X39839685Y62412619D02*
X39363495Y62412619D01*
X39363495Y63412619D01*
X39839685Y63412619D01*
X40268257Y62412619D02*
X40268257Y63412619D01*
X40506352Y63412619D01*
X40649209Y63365000D01*
X40744447Y63269761D01*
X40792066Y63174523D01*
X40839685Y62984047D01*
X40839685Y62841190D01*
X40792066Y62650714D01*
X40744447Y62555476D01*
X40649209Y62460238D01*
X40506352Y62412619D01*
X40268257Y62412619D01*
X29792752Y72496419D02*
X29316561Y72496419D01*
X29316561Y73496419D01*
X30126085Y73020228D02*
X30459419Y73020228D01*
X30602276Y72496419D02*
X30126085Y72496419D01*
X30126085Y73496419D01*
X30602276Y73496419D01*
X31030847Y72496419D02*
X31030847Y73496419D01*
X31268942Y73496419D01*
X31411800Y73448800D01*
X31507038Y73353561D01*
X31554657Y73258323D01*
X31602276Y73067847D01*
X31602276Y72924990D01*
X31554657Y72734514D01*
X31507038Y72639276D01*
X31411800Y72544038D01*
X31268942Y72496419D01*
X31030847Y72496419D01*
X32173704Y73067847D02*
X32078466Y73115466D01*
X32030847Y73163085D01*
X31983228Y73258323D01*
X31983228Y73305942D01*
X32030847Y73401180D01*
X32078466Y73448800D01*
X32173704Y73496419D01*
X32364180Y73496419D01*
X32459419Y73448800D01*
X32507038Y73401180D01*
X32554657Y73305942D01*
X32554657Y73258323D01*
X32507038Y73163085D01*
X32459419Y73115466D01*
X32364180Y73067847D01*
X32173704Y73067847D01*
X32078466Y73020228D01*
X32030847Y72972609D01*
X31983228Y72877371D01*
X31983228Y72686895D01*
X32030847Y72591657D01*
X32078466Y72544038D01*
X32173704Y72496419D01*
X32364180Y72496419D01*
X32459419Y72544038D01*
X32507038Y72591657D01*
X32554657Y72686895D01*
X32554657Y72877371D01*
X32507038Y72972609D01*
X32459419Y73020228D01*
X32364180Y73067847D01*
X15695752Y72623419D02*
X15219561Y72623419D01*
X15219561Y73623419D01*
X16029085Y73147228D02*
X16362419Y73147228D01*
X16505276Y72623419D02*
X16029085Y72623419D01*
X16029085Y73623419D01*
X16505276Y73623419D01*
X16933847Y72623419D02*
X16933847Y73623419D01*
X17171942Y73623419D01*
X17314800Y73575800D01*
X17410038Y73480561D01*
X17457657Y73385323D01*
X17505276Y73194847D01*
X17505276Y73051990D01*
X17457657Y72861514D01*
X17410038Y72766276D01*
X17314800Y72671038D01*
X17171942Y72623419D01*
X16933847Y72623419D01*
X17838609Y73623419D02*
X18505276Y73623419D01*
X18076704Y72623419D01*
X29843552Y90809819D02*
X29367361Y90809819D01*
X29367361Y91809819D01*
X30176885Y91333628D02*
X30510219Y91333628D01*
X30653076Y90809819D02*
X30176885Y90809819D01*
X30176885Y91809819D01*
X30653076Y91809819D01*
X31081647Y90809819D02*
X31081647Y91809819D01*
X31319742Y91809819D01*
X31462600Y91762200D01*
X31557838Y91666961D01*
X31605457Y91571723D01*
X31653076Y91381247D01*
X31653076Y91238390D01*
X31605457Y91047914D01*
X31557838Y90952676D01*
X31462600Y90857438D01*
X31319742Y90809819D01*
X31081647Y90809819D01*
X32557838Y91809819D02*
X32081647Y91809819D01*
X32034028Y91333628D01*
X32081647Y91381247D01*
X32176885Y91428866D01*
X32414980Y91428866D01*
X32510219Y91381247D01*
X32557838Y91333628D01*
X32605457Y91238390D01*
X32605457Y91000295D01*
X32557838Y90905057D01*
X32510219Y90857438D01*
X32414980Y90809819D01*
X32176885Y90809819D01*
X32081647Y90857438D01*
X32034028Y90905057D01*
X15467152Y90809819D02*
X14990961Y90809819D01*
X14990961Y91809819D01*
X15800485Y91333628D02*
X16133819Y91333628D01*
X16276676Y90809819D02*
X15800485Y90809819D01*
X15800485Y91809819D01*
X16276676Y91809819D01*
X16705247Y90809819D02*
X16705247Y91809819D01*
X16943342Y91809819D01*
X17086200Y91762200D01*
X17181438Y91666961D01*
X17229057Y91571723D01*
X17276676Y91381247D01*
X17276676Y91238390D01*
X17229057Y91047914D01*
X17181438Y90952676D01*
X17086200Y90857438D01*
X16943342Y90809819D01*
X16705247Y90809819D01*
X18133819Y91476485D02*
X18133819Y90809819D01*
X17895723Y91857438D02*
X17657628Y91143152D01*
X18276676Y91143152D01*
X15416352Y109224819D02*
X14940161Y109224819D01*
X14940161Y110224819D01*
X15749685Y109748628D02*
X16083019Y109748628D01*
X16225876Y109224819D02*
X15749685Y109224819D01*
X15749685Y110224819D01*
X16225876Y110224819D01*
X16654447Y109224819D02*
X16654447Y110224819D01*
X16892542Y110224819D01*
X17035400Y110177200D01*
X17130638Y110081961D01*
X17178257Y109986723D01*
X17225876Y109796247D01*
X17225876Y109653390D01*
X17178257Y109462914D01*
X17130638Y109367676D01*
X17035400Y109272438D01*
X16892542Y109224819D01*
X16654447Y109224819D01*
X18178257Y109224819D02*
X17606828Y109224819D01*
X17892542Y109224819D02*
X17892542Y110224819D01*
X17797304Y110081961D01*
X17702066Y109986723D01*
X17606828Y109939104D01*
X29741952Y109250219D02*
X29265761Y109250219D01*
X29265761Y110250219D01*
X30075285Y109774028D02*
X30408619Y109774028D01*
X30551476Y109250219D02*
X30075285Y109250219D01*
X30075285Y110250219D01*
X30551476Y110250219D01*
X30980047Y109250219D02*
X30980047Y110250219D01*
X31218142Y110250219D01*
X31361000Y110202600D01*
X31456238Y110107361D01*
X31503857Y110012123D01*
X31551476Y109821647D01*
X31551476Y109678790D01*
X31503857Y109488314D01*
X31456238Y109393076D01*
X31361000Y109297838D01*
X31218142Y109250219D01*
X30980047Y109250219D01*
X31932428Y110154980D02*
X31980047Y110202600D01*
X32075285Y110250219D01*
X32313380Y110250219D01*
X32408619Y110202600D01*
X32456238Y110154980D01*
X32503857Y110059742D01*
X32503857Y109964504D01*
X32456238Y109821647D01*
X31884809Y109250219D01*
X32503857Y109250219D01*
D14*
X43750300Y74719780D02*
X37250290Y74719780D01*
X15302300Y74719780D02*
X8802290Y74719780D01*
X8802290Y77019810D02*
X15302300Y77019810D01*
X29526300Y77818580D02*
X23026290Y77818580D01*
X23026290Y77818580D02*
X23026290Y80118610D01*
X15276900Y83238180D02*
X15276900Y80998210D01*
X23000890Y83268210D02*
X29500900Y83268210D01*
X15302300Y76989780D02*
X15302300Y74749810D01*
X29526300Y74719780D02*
X23026290Y74719780D01*
X29526300Y80088580D02*
X29526300Y77848610D01*
X43750300Y76989780D02*
X43750300Y74749810D01*
X29526300Y76989780D02*
X29526300Y74749810D01*
X8776890Y80968180D02*
X8776890Y83268210D01*
X43724900Y80968180D02*
X37224890Y80968180D01*
X23000890Y80968180D02*
X23000890Y83268210D01*
X29500900Y83238180D02*
X29500900Y80998210D01*
X8802290Y77818580D02*
X8802290Y80118610D01*
X43724900Y83238180D02*
X43724900Y80998210D01*
X8776890Y83268210D02*
X15276900Y83268210D01*
X8802290Y74719780D02*
X8802290Y77019810D01*
X23026290Y74719780D02*
X23026290Y77019810D01*
X37250290Y77019810D02*
X43750300Y77019810D01*
X37250290Y74719780D02*
X37250290Y77019810D01*
X37224890Y80968180D02*
X37224890Y83268210D01*
X15302300Y77818580D02*
X8802290Y77818580D01*
X43750300Y80088580D02*
X43750300Y77848610D01*
X15276900Y80968180D02*
X8776890Y80968180D01*
X29500900Y80968180D02*
X23000890Y80968180D01*
X37224890Y83268210D02*
X43724900Y83268210D01*
X37250290Y77818580D02*
X37250290Y80118610D01*
X8802290Y80118610D02*
X15302300Y80118610D01*
X43750300Y77818580D02*
X37250290Y77818580D01*
X37250290Y80118610D02*
X43750300Y80118610D01*
X23026290Y80118610D02*
X29526300Y80118610D01*
X23026290Y77019810D02*
X29526300Y77019810D01*
X15302300Y80088580D02*
X15302300Y77848610D01*
D11*
X24541361Y75392019D02*
X24208028Y75868209D01*
X23969933Y75392019D02*
X23969933Y76392019D01*
X24350885Y76392019D01*
X24446123Y76344400D01*
X24493742Y76296780D01*
X24541361Y76201542D01*
X24541361Y76058685D01*
X24493742Y75963447D01*
X24446123Y75915828D01*
X24350885Y75868209D01*
X23969933Y75868209D01*
X25112790Y75963447D02*
X25017552Y76011066D01*
X24969933Y76058685D01*
X24922314Y76153923D01*
X24922314Y76201542D01*
X24969933Y76296780D01*
X25017552Y76344400D01*
X25112790Y76392019D01*
X25303266Y76392019D01*
X25398504Y76344400D01*
X25446123Y76296780D01*
X25493742Y76201542D01*
X25493742Y76153923D01*
X25446123Y76058685D01*
X25398504Y76011066D01*
X25303266Y75963447D01*
X25112790Y75963447D01*
X25017552Y75915828D01*
X24969933Y75868209D01*
X24922314Y75772971D01*
X24922314Y75582495D01*
X24969933Y75487257D01*
X25017552Y75439638D01*
X25112790Y75392019D01*
X25303266Y75392019D01*
X25398504Y75439638D01*
X25446123Y75487257D01*
X25493742Y75582495D01*
X25493742Y75772971D01*
X25446123Y75868209D01*
X25398504Y75915828D01*
X25303266Y75963447D01*
X26255647Y75915828D02*
X26398504Y75868209D01*
X26446123Y75820590D01*
X26493742Y75725352D01*
X26493742Y75582495D01*
X26446123Y75487257D01*
X26398504Y75439638D01*
X26303266Y75392019D01*
X25922314Y75392019D01*
X25922314Y76392019D01*
X26255647Y76392019D01*
X26350885Y76344400D01*
X26398504Y76296780D01*
X26446123Y76201542D01*
X26446123Y76106304D01*
X26398504Y76011066D01*
X26350885Y75963447D01*
X26255647Y75915828D01*
X25922314Y75915828D01*
X27398504Y75392019D02*
X26922314Y75392019D01*
X26922314Y76392019D01*
X27731838Y76392019D02*
X27731838Y75582495D01*
X27779457Y75487257D01*
X27827076Y75439638D01*
X27922314Y75392019D01*
X28112790Y75392019D01*
X28208028Y75439638D01*
X28255647Y75487257D01*
X28303266Y75582495D01*
X28303266Y76392019D01*
X38841561Y75392019D02*
X38508228Y75868209D01*
X38270133Y75392019D02*
X38270133Y76392019D01*
X38651085Y76392019D01*
X38746323Y76344400D01*
X38793942Y76296780D01*
X38841561Y76201542D01*
X38841561Y76058685D01*
X38793942Y75963447D01*
X38746323Y75915828D01*
X38651085Y75868209D01*
X38270133Y75868209D01*
X39317752Y75392019D02*
X39508228Y75392019D01*
X39603466Y75439638D01*
X39651085Y75487257D01*
X39746323Y75630114D01*
X39793942Y75820590D01*
X39793942Y76201542D01*
X39746323Y76296780D01*
X39698704Y76344400D01*
X39603466Y76392019D01*
X39412990Y76392019D01*
X39317752Y76344400D01*
X39270133Y76296780D01*
X39222514Y76201542D01*
X39222514Y75963447D01*
X39270133Y75868209D01*
X39317752Y75820590D01*
X39412990Y75772971D01*
X39603466Y75772971D01*
X39698704Y75820590D01*
X39746323Y75868209D01*
X39793942Y75963447D01*
X40555847Y75915828D02*
X40698704Y75868209D01*
X40746323Y75820590D01*
X40793942Y75725352D01*
X40793942Y75582495D01*
X40746323Y75487257D01*
X40698704Y75439638D01*
X40603466Y75392019D01*
X40222514Y75392019D01*
X40222514Y76392019D01*
X40555847Y76392019D01*
X40651085Y76344400D01*
X40698704Y76296780D01*
X40746323Y76201542D01*
X40746323Y76106304D01*
X40698704Y76011066D01*
X40651085Y75963447D01*
X40555847Y75915828D01*
X40222514Y75915828D01*
X41698704Y75392019D02*
X41222514Y75392019D01*
X41222514Y76392019D01*
X42032038Y76392019D02*
X42032038Y75582495D01*
X42079657Y75487257D01*
X42127276Y75439638D01*
X42222514Y75392019D01*
X42412990Y75392019D01*
X42508228Y75439638D01*
X42555847Y75487257D01*
X42603466Y75582495D01*
X42603466Y76392019D01*
X38746323Y78490819D02*
X38412990Y78967009D01*
X38174895Y78490819D02*
X38174895Y79490819D01*
X38555847Y79490819D01*
X38651085Y79443200D01*
X38698704Y79395580D01*
X38746323Y79300342D01*
X38746323Y79157485D01*
X38698704Y79062247D01*
X38651085Y79014628D01*
X38555847Y78967009D01*
X38174895Y78967009D01*
X39222514Y78490819D02*
X39412990Y78490819D01*
X39508228Y78538438D01*
X39555847Y78586057D01*
X39651085Y78728914D01*
X39698704Y78919390D01*
X39698704Y79300342D01*
X39651085Y79395580D01*
X39603466Y79443200D01*
X39508228Y79490819D01*
X39317752Y79490819D01*
X39222514Y79443200D01*
X39174895Y79395580D01*
X39127276Y79300342D01*
X39127276Y79062247D01*
X39174895Y78967009D01*
X39222514Y78919390D01*
X39317752Y78871771D01*
X39508228Y78871771D01*
X39603466Y78919390D01*
X39651085Y78967009D01*
X39698704Y79062247D01*
X40651085Y79443200D02*
X40555847Y79490819D01*
X40412990Y79490819D01*
X40270133Y79443200D01*
X40174895Y79347961D01*
X40127276Y79252723D01*
X40079657Y79062247D01*
X40079657Y78919390D01*
X40127276Y78728914D01*
X40174895Y78633676D01*
X40270133Y78538438D01*
X40412990Y78490819D01*
X40508228Y78490819D01*
X40651085Y78538438D01*
X40698704Y78586057D01*
X40698704Y78919390D01*
X40508228Y78919390D01*
X41698704Y78490819D02*
X41365371Y78967009D01*
X41127276Y78490819D02*
X41127276Y79490819D01*
X41508228Y79490819D01*
X41603466Y79443200D01*
X41651085Y79395580D01*
X41698704Y79300342D01*
X41698704Y79157485D01*
X41651085Y79062247D01*
X41603466Y79014628D01*
X41508228Y78967009D01*
X41127276Y78967009D01*
X42127276Y78490819D02*
X42127276Y79490819D01*
X42698704Y78490819D01*
X42698704Y79490819D01*
X38919352Y81640419D02*
X38586019Y82116609D01*
X38347923Y81640419D02*
X38347923Y82640419D01*
X38728876Y82640419D01*
X38824114Y82592800D01*
X38871733Y82545180D01*
X38919352Y82449942D01*
X38919352Y82307085D01*
X38871733Y82211847D01*
X38824114Y82164228D01*
X38728876Y82116609D01*
X38347923Y82116609D01*
X39395542Y81640419D02*
X39586019Y81640419D01*
X39681257Y81688038D01*
X39728876Y81735657D01*
X39824114Y81878514D01*
X39871733Y82068990D01*
X39871733Y82449942D01*
X39824114Y82545180D01*
X39776495Y82592800D01*
X39681257Y82640419D01*
X39490780Y82640419D01*
X39395542Y82592800D01*
X39347923Y82545180D01*
X39300304Y82449942D01*
X39300304Y82211847D01*
X39347923Y82116609D01*
X39395542Y82068990D01*
X39490780Y82021371D01*
X39681257Y82021371D01*
X39776495Y82068990D01*
X39824114Y82116609D01*
X39871733Y82211847D01*
X40871733Y81640419D02*
X40538400Y82116609D01*
X40300304Y81640419D02*
X40300304Y82640419D01*
X40681257Y82640419D01*
X40776495Y82592800D01*
X40824114Y82545180D01*
X40871733Y82449942D01*
X40871733Y82307085D01*
X40824114Y82211847D01*
X40776495Y82164228D01*
X40681257Y82116609D01*
X40300304Y82116609D01*
X41300304Y82164228D02*
X41633638Y82164228D01*
X41776495Y81640419D02*
X41300304Y81640419D01*
X41300304Y82640419D01*
X41776495Y82640419D01*
X42205066Y81640419D02*
X42205066Y82640419D01*
X42443161Y82640419D01*
X42586019Y82592800D01*
X42681257Y82497561D01*
X42728876Y82402323D01*
X42776495Y82211847D01*
X42776495Y82068990D01*
X42728876Y81878514D01*
X42681257Y81783276D01*
X42586019Y81688038D01*
X42443161Y81640419D01*
X42205066Y81640419D01*
X24365152Y81640419D02*
X24031819Y82116609D01*
X23793723Y81640419D02*
X23793723Y82640419D01*
X24174676Y82640419D01*
X24269914Y82592800D01*
X24317533Y82545180D01*
X24365152Y82449942D01*
X24365152Y82307085D01*
X24317533Y82211847D01*
X24269914Y82164228D01*
X24174676Y82116609D01*
X23793723Y82116609D01*
X24936580Y82211847D02*
X24841342Y82259466D01*
X24793723Y82307085D01*
X24746104Y82402323D01*
X24746104Y82449942D01*
X24793723Y82545180D01*
X24841342Y82592800D01*
X24936580Y82640419D01*
X25127057Y82640419D01*
X25222295Y82592800D01*
X25269914Y82545180D01*
X25317533Y82449942D01*
X25317533Y82402323D01*
X25269914Y82307085D01*
X25222295Y82259466D01*
X25127057Y82211847D01*
X24936580Y82211847D01*
X24841342Y82164228D01*
X24793723Y82116609D01*
X24746104Y82021371D01*
X24746104Y81830895D01*
X24793723Y81735657D01*
X24841342Y81688038D01*
X24936580Y81640419D01*
X25127057Y81640419D01*
X25222295Y81688038D01*
X25269914Y81735657D01*
X25317533Y81830895D01*
X25317533Y82021371D01*
X25269914Y82116609D01*
X25222295Y82164228D01*
X25127057Y82211847D01*
X26317533Y81640419D02*
X25984200Y82116609D01*
X25746104Y81640419D02*
X25746104Y82640419D01*
X26127057Y82640419D01*
X26222295Y82592800D01*
X26269914Y82545180D01*
X26317533Y82449942D01*
X26317533Y82307085D01*
X26269914Y82211847D01*
X26222295Y82164228D01*
X26127057Y82116609D01*
X25746104Y82116609D01*
X26746104Y82164228D02*
X27079438Y82164228D01*
X27222295Y81640419D02*
X26746104Y81640419D01*
X26746104Y82640419D01*
X27222295Y82640419D01*
X27650866Y81640419D02*
X27650866Y82640419D01*
X27888961Y82640419D01*
X28031819Y82592800D01*
X28127057Y82497561D01*
X28174676Y82402323D01*
X28222295Y82211847D01*
X28222295Y82068990D01*
X28174676Y81878514D01*
X28127057Y81783276D01*
X28031819Y81688038D01*
X27888961Y81640419D01*
X27650866Y81640419D01*
X24369923Y78465419D02*
X24036590Y78941609D01*
X23798495Y78465419D02*
X23798495Y79465419D01*
X24179447Y79465419D01*
X24274685Y79417800D01*
X24322304Y79370180D01*
X24369923Y79274942D01*
X24369923Y79132085D01*
X24322304Y79036847D01*
X24274685Y78989228D01*
X24179447Y78941609D01*
X23798495Y78941609D01*
X24941352Y79036847D02*
X24846114Y79084466D01*
X24798495Y79132085D01*
X24750876Y79227323D01*
X24750876Y79274942D01*
X24798495Y79370180D01*
X24846114Y79417800D01*
X24941352Y79465419D01*
X25131828Y79465419D01*
X25227066Y79417800D01*
X25274685Y79370180D01*
X25322304Y79274942D01*
X25322304Y79227323D01*
X25274685Y79132085D01*
X25227066Y79084466D01*
X25131828Y79036847D01*
X24941352Y79036847D01*
X24846114Y78989228D01*
X24798495Y78941609D01*
X24750876Y78846371D01*
X24750876Y78655895D01*
X24798495Y78560657D01*
X24846114Y78513038D01*
X24941352Y78465419D01*
X25131828Y78465419D01*
X25227066Y78513038D01*
X25274685Y78560657D01*
X25322304Y78655895D01*
X25322304Y78846371D01*
X25274685Y78941609D01*
X25227066Y78989228D01*
X25131828Y79036847D01*
X26274685Y79417800D02*
X26179447Y79465419D01*
X26036590Y79465419D01*
X25893733Y79417800D01*
X25798495Y79322561D01*
X25750876Y79227323D01*
X25703257Y79036847D01*
X25703257Y78893990D01*
X25750876Y78703514D01*
X25798495Y78608276D01*
X25893733Y78513038D01*
X26036590Y78465419D01*
X26131828Y78465419D01*
X26274685Y78513038D01*
X26322304Y78560657D01*
X26322304Y78893990D01*
X26131828Y78893990D01*
X27322304Y78465419D02*
X26988971Y78941609D01*
X26750876Y78465419D02*
X26750876Y79465419D01*
X27131828Y79465419D01*
X27227066Y79417800D01*
X27274685Y79370180D01*
X27322304Y79274942D01*
X27322304Y79132085D01*
X27274685Y79036847D01*
X27227066Y78989228D01*
X27131828Y78941609D01*
X26750876Y78941609D01*
X27750876Y78465419D02*
X27750876Y79465419D01*
X28322304Y78465419D01*
X28322304Y79465419D01*
X10088761Y75468219D02*
X9755428Y75944409D01*
X9517333Y75468219D02*
X9517333Y76468219D01*
X9898285Y76468219D01*
X9993523Y76420600D01*
X10041142Y76372980D01*
X10088761Y76277742D01*
X10088761Y76134885D01*
X10041142Y76039647D01*
X9993523Y75992028D01*
X9898285Y75944409D01*
X9517333Y75944409D01*
X10422095Y76468219D02*
X11088761Y76468219D01*
X10660190Y75468219D01*
X11803047Y75992028D02*
X11945904Y75944409D01*
X11993523Y75896790D01*
X12041142Y75801552D01*
X12041142Y75658695D01*
X11993523Y75563457D01*
X11945904Y75515838D01*
X11850666Y75468219D01*
X11469714Y75468219D01*
X11469714Y76468219D01*
X11803047Y76468219D01*
X11898285Y76420600D01*
X11945904Y76372980D01*
X11993523Y76277742D01*
X11993523Y76182504D01*
X11945904Y76087266D01*
X11898285Y76039647D01*
X11803047Y75992028D01*
X11469714Y75992028D01*
X12945904Y75468219D02*
X12469714Y75468219D01*
X12469714Y76468219D01*
X13279238Y76468219D02*
X13279238Y75658695D01*
X13326857Y75563457D01*
X13374476Y75515838D01*
X13469714Y75468219D01*
X13660190Y75468219D01*
X13755428Y75515838D01*
X13803047Y75563457D01*
X13850666Y75658695D01*
X13850666Y76468219D01*
X10095123Y78592419D02*
X9761790Y79068609D01*
X9523695Y78592419D02*
X9523695Y79592419D01*
X9904647Y79592419D01*
X9999885Y79544800D01*
X10047504Y79497180D01*
X10095123Y79401942D01*
X10095123Y79259085D01*
X10047504Y79163847D01*
X9999885Y79116228D01*
X9904647Y79068609D01*
X9523695Y79068609D01*
X10428457Y79592419D02*
X11095123Y79592419D01*
X10666552Y78592419D01*
X11999885Y79544800D02*
X11904647Y79592419D01*
X11761790Y79592419D01*
X11618933Y79544800D01*
X11523695Y79449561D01*
X11476076Y79354323D01*
X11428457Y79163847D01*
X11428457Y79020990D01*
X11476076Y78830514D01*
X11523695Y78735276D01*
X11618933Y78640038D01*
X11761790Y78592419D01*
X11857028Y78592419D01*
X11999885Y78640038D01*
X12047504Y78687657D01*
X12047504Y79020990D01*
X11857028Y79020990D01*
X13047504Y78592419D02*
X12714171Y79068609D01*
X12476076Y78592419D02*
X12476076Y79592419D01*
X12857028Y79592419D01*
X12952266Y79544800D01*
X12999885Y79497180D01*
X13047504Y79401942D01*
X13047504Y79259085D01*
X12999885Y79163847D01*
X12952266Y79116228D01*
X12857028Y79068609D01*
X12476076Y79068609D01*
X13476076Y78592419D02*
X13476076Y79592419D01*
X14047504Y78592419D01*
X14047504Y79592419D01*
X10191952Y81538819D02*
X9858619Y82015009D01*
X9620523Y81538819D02*
X9620523Y82538819D01*
X10001476Y82538819D01*
X10096714Y82491200D01*
X10144333Y82443580D01*
X10191952Y82348342D01*
X10191952Y82205485D01*
X10144333Y82110247D01*
X10096714Y82062628D01*
X10001476Y82015009D01*
X9620523Y82015009D01*
X10525285Y82538819D02*
X11191952Y82538819D01*
X10763380Y81538819D01*
X12144333Y81538819D02*
X11811000Y82015009D01*
X11572904Y81538819D02*
X11572904Y82538819D01*
X11953857Y82538819D01*
X12049095Y82491200D01*
X12096714Y82443580D01*
X12144333Y82348342D01*
X12144333Y82205485D01*
X12096714Y82110247D01*
X12049095Y82062628D01*
X11953857Y82015009D01*
X11572904Y82015009D01*
X12572904Y82062628D02*
X12906238Y82062628D01*
X13049095Y81538819D02*
X12572904Y81538819D01*
X12572904Y82538819D01*
X13049095Y82538819D01*
X13477666Y81538819D02*
X13477666Y82538819D01*
X13715761Y82538819D01*
X13858619Y82491200D01*
X13953857Y82395961D01*
X14001476Y82300723D01*
X14049095Y82110247D01*
X14049095Y81967390D01*
X14001476Y81776914D01*
X13953857Y81681676D01*
X13858619Y81586438D01*
X13715761Y81538819D01*
X13477666Y81538819D01*
X43559552Y75265019D02*
X43083361Y75265019D01*
X43083361Y76265019D01*
X43892885Y75788828D02*
X44226219Y75788828D01*
X44369076Y75265019D02*
X43892885Y75265019D01*
X43892885Y76265019D01*
X44369076Y76265019D01*
X44797647Y75265019D02*
X44797647Y76265019D01*
X45035742Y76265019D01*
X45178600Y76217400D01*
X45273838Y76122161D01*
X45321457Y76026923D01*
X45369076Y75836447D01*
X45369076Y75693590D01*
X45321457Y75503114D01*
X45273838Y75407876D01*
X45178600Y75312638D01*
X45035742Y75265019D01*
X44797647Y75265019D01*
X45845266Y75265019D02*
X46035742Y75265019D01*
X46130980Y75312638D01*
X46178600Y75360257D01*
X46273838Y75503114D01*
X46321457Y75693590D01*
X46321457Y76074542D01*
X46273838Y76169780D01*
X46226219Y76217400D01*
X46130980Y76265019D01*
X45940504Y76265019D01*
X45845266Y76217400D01*
X45797647Y76169780D01*
X45750028Y76074542D01*
X45750028Y75836447D01*
X45797647Y75741209D01*
X45845266Y75693590D01*
X45940504Y75645971D01*
X46130980Y75645971D01*
X46226219Y75693590D01*
X46273838Y75741209D01*
X46321457Y75836447D01*
D14*
X43750300Y92880780D02*
X37250290Y92880780D01*
X15302300Y92880780D02*
X8802290Y92880780D01*
X8802290Y95180810D02*
X15302300Y95180810D01*
X29526300Y95979580D02*
X23026290Y95979580D01*
X23026290Y95979580D02*
X23026290Y98279610D01*
X15276900Y101399180D02*
X15276900Y99159210D01*
X23000890Y101429210D02*
X29500900Y101429210D01*
X15302300Y95150780D02*
X15302300Y92910810D01*
X29526300Y92880780D02*
X23026290Y92880780D01*
X29526300Y98249580D02*
X29526300Y96009610D01*
X43750300Y95150780D02*
X43750300Y92910810D01*
X29526300Y95150780D02*
X29526300Y92910810D01*
X8776890Y99129180D02*
X8776890Y101429210D01*
X43724900Y99129180D02*
X37224890Y99129180D01*
X23000890Y99129180D02*
X23000890Y101429210D01*
X29500900Y101399180D02*
X29500900Y99159210D01*
X8802290Y95979580D02*
X8802290Y98279610D01*
X43724900Y101399180D02*
X43724900Y99159210D01*
X8776890Y101429210D02*
X15276900Y101429210D01*
X8802290Y92880780D02*
X8802290Y95180810D01*
X23026290Y92880780D02*
X23026290Y95180810D01*
X37250290Y95180810D02*
X43750300Y95180810D01*
X37250290Y92880780D02*
X37250290Y95180810D01*
X37224890Y99129180D02*
X37224890Y101429210D01*
X15302300Y95979580D02*
X8802290Y95979580D01*
X43750300Y98249580D02*
X43750300Y96009610D01*
X15276900Y99129180D02*
X8776890Y99129180D01*
X29500900Y99129180D02*
X23000890Y99129180D01*
X37224890Y101429210D02*
X43724900Y101429210D01*
X37250290Y95979580D02*
X37250290Y98279610D01*
X8802290Y98279610D02*
X15302300Y98279610D01*
X43750300Y95979580D02*
X37250290Y95979580D01*
X37250290Y98279610D02*
X43750300Y98279610D01*
X23026290Y98279610D02*
X29526300Y98279610D01*
X23026290Y95180810D02*
X29526300Y95180810D01*
X15302300Y98249580D02*
X15302300Y96009610D01*
D11*
X24541361Y93553019D02*
X24208028Y94029209D01*
X23969933Y93553019D02*
X23969933Y94553019D01*
X24350885Y94553019D01*
X24446123Y94505400D01*
X24493742Y94457780D01*
X24541361Y94362542D01*
X24541361Y94219685D01*
X24493742Y94124447D01*
X24446123Y94076828D01*
X24350885Y94029209D01*
X23969933Y94029209D01*
X25446123Y94553019D02*
X24969933Y94553019D01*
X24922314Y94076828D01*
X24969933Y94124447D01*
X25065171Y94172066D01*
X25303266Y94172066D01*
X25398504Y94124447D01*
X25446123Y94076828D01*
X25493742Y93981590D01*
X25493742Y93743495D01*
X25446123Y93648257D01*
X25398504Y93600638D01*
X25303266Y93553019D01*
X25065171Y93553019D01*
X24969933Y93600638D01*
X24922314Y93648257D01*
X26255647Y94076828D02*
X26398504Y94029209D01*
X26446123Y93981590D01*
X26493742Y93886352D01*
X26493742Y93743495D01*
X26446123Y93648257D01*
X26398504Y93600638D01*
X26303266Y93553019D01*
X25922314Y93553019D01*
X25922314Y94553019D01*
X26255647Y94553019D01*
X26350885Y94505400D01*
X26398504Y94457780D01*
X26446123Y94362542D01*
X26446123Y94267304D01*
X26398504Y94172066D01*
X26350885Y94124447D01*
X26255647Y94076828D01*
X25922314Y94076828D01*
X27398504Y93553019D02*
X26922314Y93553019D01*
X26922314Y94553019D01*
X27731838Y94553019D02*
X27731838Y93743495D01*
X27779457Y93648257D01*
X27827076Y93600638D01*
X27922314Y93553019D01*
X28112790Y93553019D01*
X28208028Y93600638D01*
X28255647Y93648257D01*
X28303266Y93743495D01*
X28303266Y94553019D01*
X38841561Y93553019D02*
X38508228Y94029209D01*
X38270133Y93553019D02*
X38270133Y94553019D01*
X38651085Y94553019D01*
X38746323Y94505400D01*
X38793942Y94457780D01*
X38841561Y94362542D01*
X38841561Y94219685D01*
X38793942Y94124447D01*
X38746323Y94076828D01*
X38651085Y94029209D01*
X38270133Y94029209D01*
X39698704Y94553019D02*
X39508228Y94553019D01*
X39412990Y94505400D01*
X39365371Y94457780D01*
X39270133Y94314923D01*
X39222514Y94124447D01*
X39222514Y93743495D01*
X39270133Y93648257D01*
X39317752Y93600638D01*
X39412990Y93553019D01*
X39603466Y93553019D01*
X39698704Y93600638D01*
X39746323Y93648257D01*
X39793942Y93743495D01*
X39793942Y93981590D01*
X39746323Y94076828D01*
X39698704Y94124447D01*
X39603466Y94172066D01*
X39412990Y94172066D01*
X39317752Y94124447D01*
X39270133Y94076828D01*
X39222514Y93981590D01*
X40555847Y94076828D02*
X40698704Y94029209D01*
X40746323Y93981590D01*
X40793942Y93886352D01*
X40793942Y93743495D01*
X40746323Y93648257D01*
X40698704Y93600638D01*
X40603466Y93553019D01*
X40222514Y93553019D01*
X40222514Y94553019D01*
X40555847Y94553019D01*
X40651085Y94505400D01*
X40698704Y94457780D01*
X40746323Y94362542D01*
X40746323Y94267304D01*
X40698704Y94172066D01*
X40651085Y94124447D01*
X40555847Y94076828D01*
X40222514Y94076828D01*
X41698704Y93553019D02*
X41222514Y93553019D01*
X41222514Y94553019D01*
X42032038Y94553019D02*
X42032038Y93743495D01*
X42079657Y93648257D01*
X42127276Y93600638D01*
X42222514Y93553019D01*
X42412990Y93553019D01*
X42508228Y93600638D01*
X42555847Y93648257D01*
X42603466Y93743495D01*
X42603466Y94553019D01*
X38746323Y96651819D02*
X38412990Y97128009D01*
X38174895Y96651819D02*
X38174895Y97651819D01*
X38555847Y97651819D01*
X38651085Y97604200D01*
X38698704Y97556580D01*
X38746323Y97461342D01*
X38746323Y97318485D01*
X38698704Y97223247D01*
X38651085Y97175628D01*
X38555847Y97128009D01*
X38174895Y97128009D01*
X39603466Y97651819D02*
X39412990Y97651819D01*
X39317752Y97604200D01*
X39270133Y97556580D01*
X39174895Y97413723D01*
X39127276Y97223247D01*
X39127276Y96842295D01*
X39174895Y96747057D01*
X39222514Y96699438D01*
X39317752Y96651819D01*
X39508228Y96651819D01*
X39603466Y96699438D01*
X39651085Y96747057D01*
X39698704Y96842295D01*
X39698704Y97080390D01*
X39651085Y97175628D01*
X39603466Y97223247D01*
X39508228Y97270866D01*
X39317752Y97270866D01*
X39222514Y97223247D01*
X39174895Y97175628D01*
X39127276Y97080390D01*
X40651085Y97604200D02*
X40555847Y97651819D01*
X40412990Y97651819D01*
X40270133Y97604200D01*
X40174895Y97508961D01*
X40127276Y97413723D01*
X40079657Y97223247D01*
X40079657Y97080390D01*
X40127276Y96889914D01*
X40174895Y96794676D01*
X40270133Y96699438D01*
X40412990Y96651819D01*
X40508228Y96651819D01*
X40651085Y96699438D01*
X40698704Y96747057D01*
X40698704Y97080390D01*
X40508228Y97080390D01*
X41698704Y96651819D02*
X41365371Y97128009D01*
X41127276Y96651819D02*
X41127276Y97651819D01*
X41508228Y97651819D01*
X41603466Y97604200D01*
X41651085Y97556580D01*
X41698704Y97461342D01*
X41698704Y97318485D01*
X41651085Y97223247D01*
X41603466Y97175628D01*
X41508228Y97128009D01*
X41127276Y97128009D01*
X42127276Y96651819D02*
X42127276Y97651819D01*
X42698704Y96651819D01*
X42698704Y97651819D01*
X38919352Y99801419D02*
X38586019Y100277609D01*
X38347923Y99801419D02*
X38347923Y100801419D01*
X38728876Y100801419D01*
X38824114Y100753800D01*
X38871733Y100706180D01*
X38919352Y100610942D01*
X38919352Y100468085D01*
X38871733Y100372847D01*
X38824114Y100325228D01*
X38728876Y100277609D01*
X38347923Y100277609D01*
X39776495Y100801419D02*
X39586019Y100801419D01*
X39490780Y100753800D01*
X39443161Y100706180D01*
X39347923Y100563323D01*
X39300304Y100372847D01*
X39300304Y99991895D01*
X39347923Y99896657D01*
X39395542Y99849038D01*
X39490780Y99801419D01*
X39681257Y99801419D01*
X39776495Y99849038D01*
X39824114Y99896657D01*
X39871733Y99991895D01*
X39871733Y100229990D01*
X39824114Y100325228D01*
X39776495Y100372847D01*
X39681257Y100420466D01*
X39490780Y100420466D01*
X39395542Y100372847D01*
X39347923Y100325228D01*
X39300304Y100229990D01*
X40871733Y99801419D02*
X40538400Y100277609D01*
X40300304Y99801419D02*
X40300304Y100801419D01*
X40681257Y100801419D01*
X40776495Y100753800D01*
X40824114Y100706180D01*
X40871733Y100610942D01*
X40871733Y100468085D01*
X40824114Y100372847D01*
X40776495Y100325228D01*
X40681257Y100277609D01*
X40300304Y100277609D01*
X41300304Y100325228D02*
X41633638Y100325228D01*
X41776495Y99801419D02*
X41300304Y99801419D01*
X41300304Y100801419D01*
X41776495Y100801419D01*
X42205066Y99801419D02*
X42205066Y100801419D01*
X42443161Y100801419D01*
X42586019Y100753800D01*
X42681257Y100658561D01*
X42728876Y100563323D01*
X42776495Y100372847D01*
X42776495Y100229990D01*
X42728876Y100039514D01*
X42681257Y99944276D01*
X42586019Y99849038D01*
X42443161Y99801419D01*
X42205066Y99801419D01*
X24365152Y99801419D02*
X24031819Y100277609D01*
X23793723Y99801419D02*
X23793723Y100801419D01*
X24174676Y100801419D01*
X24269914Y100753800D01*
X24317533Y100706180D01*
X24365152Y100610942D01*
X24365152Y100468085D01*
X24317533Y100372847D01*
X24269914Y100325228D01*
X24174676Y100277609D01*
X23793723Y100277609D01*
X25269914Y100801419D02*
X24793723Y100801419D01*
X24746104Y100325228D01*
X24793723Y100372847D01*
X24888961Y100420466D01*
X25127057Y100420466D01*
X25222295Y100372847D01*
X25269914Y100325228D01*
X25317533Y100229990D01*
X25317533Y99991895D01*
X25269914Y99896657D01*
X25222295Y99849038D01*
X25127057Y99801419D01*
X24888961Y99801419D01*
X24793723Y99849038D01*
X24746104Y99896657D01*
X26317533Y99801419D02*
X25984200Y100277609D01*
X25746104Y99801419D02*
X25746104Y100801419D01*
X26127057Y100801419D01*
X26222295Y100753800D01*
X26269914Y100706180D01*
X26317533Y100610942D01*
X26317533Y100468085D01*
X26269914Y100372847D01*
X26222295Y100325228D01*
X26127057Y100277609D01*
X25746104Y100277609D01*
X26746104Y100325228D02*
X27079438Y100325228D01*
X27222295Y99801419D02*
X26746104Y99801419D01*
X26746104Y100801419D01*
X27222295Y100801419D01*
X27650866Y99801419D02*
X27650866Y100801419D01*
X27888961Y100801419D01*
X28031819Y100753800D01*
X28127057Y100658561D01*
X28174676Y100563323D01*
X28222295Y100372847D01*
X28222295Y100229990D01*
X28174676Y100039514D01*
X28127057Y99944276D01*
X28031819Y99849038D01*
X27888961Y99801419D01*
X27650866Y99801419D01*
X24369923Y96626419D02*
X24036590Y97102609D01*
X23798495Y96626419D02*
X23798495Y97626419D01*
X24179447Y97626419D01*
X24274685Y97578800D01*
X24322304Y97531180D01*
X24369923Y97435942D01*
X24369923Y97293085D01*
X24322304Y97197847D01*
X24274685Y97150228D01*
X24179447Y97102609D01*
X23798495Y97102609D01*
X25274685Y97626419D02*
X24798495Y97626419D01*
X24750876Y97150228D01*
X24798495Y97197847D01*
X24893733Y97245466D01*
X25131828Y97245466D01*
X25227066Y97197847D01*
X25274685Y97150228D01*
X25322304Y97054990D01*
X25322304Y96816895D01*
X25274685Y96721657D01*
X25227066Y96674038D01*
X25131828Y96626419D01*
X24893733Y96626419D01*
X24798495Y96674038D01*
X24750876Y96721657D01*
X26274685Y97578800D02*
X26179447Y97626419D01*
X26036590Y97626419D01*
X25893733Y97578800D01*
X25798495Y97483561D01*
X25750876Y97388323D01*
X25703257Y97197847D01*
X25703257Y97054990D01*
X25750876Y96864514D01*
X25798495Y96769276D01*
X25893733Y96674038D01*
X26036590Y96626419D01*
X26131828Y96626419D01*
X26274685Y96674038D01*
X26322304Y96721657D01*
X26322304Y97054990D01*
X26131828Y97054990D01*
X27322304Y96626419D02*
X26988971Y97102609D01*
X26750876Y96626419D02*
X26750876Y97626419D01*
X27131828Y97626419D01*
X27227066Y97578800D01*
X27274685Y97531180D01*
X27322304Y97435942D01*
X27322304Y97293085D01*
X27274685Y97197847D01*
X27227066Y97150228D01*
X27131828Y97102609D01*
X26750876Y97102609D01*
X27750876Y96626419D02*
X27750876Y97626419D01*
X28322304Y96626419D01*
X28322304Y97626419D01*
X10088761Y93629219D02*
X9755428Y94105409D01*
X9517333Y93629219D02*
X9517333Y94629219D01*
X9898285Y94629219D01*
X9993523Y94581600D01*
X10041142Y94533980D01*
X10088761Y94438742D01*
X10088761Y94295885D01*
X10041142Y94200647D01*
X9993523Y94153028D01*
X9898285Y94105409D01*
X9517333Y94105409D01*
X10945904Y94295885D02*
X10945904Y93629219D01*
X10707809Y94676838D02*
X10469714Y93962552D01*
X11088761Y93962552D01*
X11803047Y94153028D02*
X11945904Y94105409D01*
X11993523Y94057790D01*
X12041142Y93962552D01*
X12041142Y93819695D01*
X11993523Y93724457D01*
X11945904Y93676838D01*
X11850666Y93629219D01*
X11469714Y93629219D01*
X11469714Y94629219D01*
X11803047Y94629219D01*
X11898285Y94581600D01*
X11945904Y94533980D01*
X11993523Y94438742D01*
X11993523Y94343504D01*
X11945904Y94248266D01*
X11898285Y94200647D01*
X11803047Y94153028D01*
X11469714Y94153028D01*
X12945904Y93629219D02*
X12469714Y93629219D01*
X12469714Y94629219D01*
X13279238Y94629219D02*
X13279238Y93819695D01*
X13326857Y93724457D01*
X13374476Y93676838D01*
X13469714Y93629219D01*
X13660190Y93629219D01*
X13755428Y93676838D01*
X13803047Y93724457D01*
X13850666Y93819695D01*
X13850666Y94629219D01*
X10095123Y96753419D02*
X9761790Y97229609D01*
X9523695Y96753419D02*
X9523695Y97753419D01*
X9904647Y97753419D01*
X9999885Y97705800D01*
X10047504Y97658180D01*
X10095123Y97562942D01*
X10095123Y97420085D01*
X10047504Y97324847D01*
X9999885Y97277228D01*
X9904647Y97229609D01*
X9523695Y97229609D01*
X10952266Y97420085D02*
X10952266Y96753419D01*
X10714171Y97801038D02*
X10476076Y97086752D01*
X11095123Y97086752D01*
X11999885Y97705800D02*
X11904647Y97753419D01*
X11761790Y97753419D01*
X11618933Y97705800D01*
X11523695Y97610561D01*
X11476076Y97515323D01*
X11428457Y97324847D01*
X11428457Y97181990D01*
X11476076Y96991514D01*
X11523695Y96896276D01*
X11618933Y96801038D01*
X11761790Y96753419D01*
X11857028Y96753419D01*
X11999885Y96801038D01*
X12047504Y96848657D01*
X12047504Y97181990D01*
X11857028Y97181990D01*
X13047504Y96753419D02*
X12714171Y97229609D01*
X12476076Y96753419D02*
X12476076Y97753419D01*
X12857028Y97753419D01*
X12952266Y97705800D01*
X12999885Y97658180D01*
X13047504Y97562942D01*
X13047504Y97420085D01*
X12999885Y97324847D01*
X12952266Y97277228D01*
X12857028Y97229609D01*
X12476076Y97229609D01*
X13476076Y96753419D02*
X13476076Y97753419D01*
X14047504Y96753419D01*
X14047504Y97753419D01*
X10191952Y99699819D02*
X9858619Y100176009D01*
X9620523Y99699819D02*
X9620523Y100699819D01*
X10001476Y100699819D01*
X10096714Y100652200D01*
X10144333Y100604580D01*
X10191952Y100509342D01*
X10191952Y100366485D01*
X10144333Y100271247D01*
X10096714Y100223628D01*
X10001476Y100176009D01*
X9620523Y100176009D01*
X11049095Y100366485D02*
X11049095Y99699819D01*
X10811000Y100747438D02*
X10572904Y100033152D01*
X11191952Y100033152D01*
X12144333Y99699819D02*
X11811000Y100176009D01*
X11572904Y99699819D02*
X11572904Y100699819D01*
X11953857Y100699819D01*
X12049095Y100652200D01*
X12096714Y100604580D01*
X12144333Y100509342D01*
X12144333Y100366485D01*
X12096714Y100271247D01*
X12049095Y100223628D01*
X11953857Y100176009D01*
X11572904Y100176009D01*
X12572904Y100223628D02*
X12906238Y100223628D01*
X13049095Y99699819D02*
X12572904Y99699819D01*
X12572904Y100699819D01*
X13049095Y100699819D01*
X13477666Y99699819D02*
X13477666Y100699819D01*
X13715761Y100699819D01*
X13858619Y100652200D01*
X13953857Y100556961D01*
X14001476Y100461723D01*
X14049095Y100271247D01*
X14049095Y100128390D01*
X14001476Y99937914D01*
X13953857Y99842676D01*
X13858619Y99747438D01*
X13715761Y99699819D01*
X13477666Y99699819D01*
X43559552Y93426019D02*
X43083361Y93426019D01*
X43083361Y94426019D01*
X43892885Y93949828D02*
X44226219Y93949828D01*
X44369076Y93426019D02*
X43892885Y93426019D01*
X43892885Y94426019D01*
X44369076Y94426019D01*
X44797647Y93426019D02*
X44797647Y94426019D01*
X45035742Y94426019D01*
X45178600Y94378400D01*
X45273838Y94283161D01*
X45321457Y94187923D01*
X45369076Y93997447D01*
X45369076Y93854590D01*
X45321457Y93664114D01*
X45273838Y93568876D01*
X45178600Y93473638D01*
X45035742Y93426019D01*
X44797647Y93426019D01*
X46226219Y94426019D02*
X46035742Y94426019D01*
X45940504Y94378400D01*
X45892885Y94330780D01*
X45797647Y94187923D01*
X45750028Y93997447D01*
X45750028Y93616495D01*
X45797647Y93521257D01*
X45845266Y93473638D01*
X45940504Y93426019D01*
X46130980Y93426019D01*
X46226219Y93473638D01*
X46273838Y93521257D01*
X46321457Y93616495D01*
X46321457Y93854590D01*
X46273838Y93949828D01*
X46226219Y93997447D01*
X46130980Y94045066D01*
X45940504Y94045066D01*
X45845266Y93997447D01*
X45797647Y93949828D01*
X45750028Y93854590D01*
X38739961Y111942619D02*
X38406628Y112418809D01*
X38168533Y111942619D02*
X38168533Y112942619D01*
X38549485Y112942619D01*
X38644723Y112895000D01*
X38692342Y112847380D01*
X38739961Y112752142D01*
X38739961Y112609285D01*
X38692342Y112514047D01*
X38644723Y112466428D01*
X38549485Y112418809D01*
X38168533Y112418809D01*
X39073295Y112942619D02*
X39692342Y112942619D01*
X39359009Y112561666D01*
X39501866Y112561666D01*
X39597104Y112514047D01*
X39644723Y112466428D01*
X39692342Y112371190D01*
X39692342Y112133095D01*
X39644723Y112037857D01*
X39597104Y111990238D01*
X39501866Y111942619D01*
X39216152Y111942619D01*
X39120914Y111990238D01*
X39073295Y112037857D01*
X40454247Y112466428D02*
X40597104Y112418809D01*
X40644723Y112371190D01*
X40692342Y112275952D01*
X40692342Y112133095D01*
X40644723Y112037857D01*
X40597104Y111990238D01*
X40501866Y111942619D01*
X40120914Y111942619D01*
X40120914Y112942619D01*
X40454247Y112942619D01*
X40549485Y112895000D01*
X40597104Y112847380D01*
X40644723Y112752142D01*
X40644723Y112656904D01*
X40597104Y112561666D01*
X40549485Y112514047D01*
X40454247Y112466428D01*
X40120914Y112466428D01*
X41597104Y111942619D02*
X41120914Y111942619D01*
X41120914Y112942619D01*
X41930438Y112942619D02*
X41930438Y112133095D01*
X41978057Y112037857D01*
X42025676Y111990238D01*
X42120914Y111942619D01*
X42311390Y111942619D01*
X42406628Y111990238D01*
X42454247Y112037857D01*
X42501866Y112133095D01*
X42501866Y112942619D01*
X38644723Y115041419D02*
X38311390Y115517609D01*
X38073295Y115041419D02*
X38073295Y116041419D01*
X38454247Y116041419D01*
X38549485Y115993800D01*
X38597104Y115946180D01*
X38644723Y115850942D01*
X38644723Y115708085D01*
X38597104Y115612847D01*
X38549485Y115565228D01*
X38454247Y115517609D01*
X38073295Y115517609D01*
X38978057Y116041419D02*
X39597104Y116041419D01*
X39263771Y115660466D01*
X39406628Y115660466D01*
X39501866Y115612847D01*
X39549485Y115565228D01*
X39597104Y115469990D01*
X39597104Y115231895D01*
X39549485Y115136657D01*
X39501866Y115089038D01*
X39406628Y115041419D01*
X39120914Y115041419D01*
X39025676Y115089038D01*
X38978057Y115136657D01*
X40549485Y115993800D02*
X40454247Y116041419D01*
X40311390Y116041419D01*
X40168533Y115993800D01*
X40073295Y115898561D01*
X40025676Y115803323D01*
X39978057Y115612847D01*
X39978057Y115469990D01*
X40025676Y115279514D01*
X40073295Y115184276D01*
X40168533Y115089038D01*
X40311390Y115041419D01*
X40406628Y115041419D01*
X40549485Y115089038D01*
X40597104Y115136657D01*
X40597104Y115469990D01*
X40406628Y115469990D01*
X41597104Y115041419D02*
X41263771Y115517609D01*
X41025676Y115041419D02*
X41025676Y116041419D01*
X41406628Y116041419D01*
X41501866Y115993800D01*
X41549485Y115946180D01*
X41597104Y115850942D01*
X41597104Y115708085D01*
X41549485Y115612847D01*
X41501866Y115565228D01*
X41406628Y115517609D01*
X41025676Y115517609D01*
X42025676Y115041419D02*
X42025676Y116041419D01*
X42597104Y115041419D01*
X42597104Y116041419D01*
X38817752Y118191019D02*
X38484419Y118667209D01*
X38246323Y118191019D02*
X38246323Y119191019D01*
X38627276Y119191019D01*
X38722514Y119143400D01*
X38770133Y119095780D01*
X38817752Y119000542D01*
X38817752Y118857685D01*
X38770133Y118762447D01*
X38722514Y118714828D01*
X38627276Y118667209D01*
X38246323Y118667209D01*
X39151085Y119191019D02*
X39770133Y119191019D01*
X39436800Y118810066D01*
X39579657Y118810066D01*
X39674895Y118762447D01*
X39722514Y118714828D01*
X39770133Y118619590D01*
X39770133Y118381495D01*
X39722514Y118286257D01*
X39674895Y118238638D01*
X39579657Y118191019D01*
X39293942Y118191019D01*
X39198704Y118238638D01*
X39151085Y118286257D01*
X40770133Y118191019D02*
X40436800Y118667209D01*
X40198704Y118191019D02*
X40198704Y119191019D01*
X40579657Y119191019D01*
X40674895Y119143400D01*
X40722514Y119095780D01*
X40770133Y119000542D01*
X40770133Y118857685D01*
X40722514Y118762447D01*
X40674895Y118714828D01*
X40579657Y118667209D01*
X40198704Y118667209D01*
X41198704Y118714828D02*
X41532038Y118714828D01*
X41674895Y118191019D02*
X41198704Y118191019D01*
X41198704Y119191019D01*
X41674895Y119191019D01*
X42103466Y118191019D02*
X42103466Y119191019D01*
X42341561Y119191019D01*
X42484419Y119143400D01*
X42579657Y119048161D01*
X42627276Y118952923D01*
X42674895Y118762447D01*
X42674895Y118619590D01*
X42627276Y118429114D01*
X42579657Y118333876D01*
X42484419Y118238638D01*
X42341561Y118191019D01*
X42103466Y118191019D01*
X24439761Y111942619D02*
X24106428Y112418809D01*
X23868333Y111942619D02*
X23868333Y112942619D01*
X24249285Y112942619D01*
X24344523Y112895000D01*
X24392142Y112847380D01*
X24439761Y112752142D01*
X24439761Y112609285D01*
X24392142Y112514047D01*
X24344523Y112466428D01*
X24249285Y112418809D01*
X23868333Y112418809D01*
X24820714Y112847380D02*
X24868333Y112895000D01*
X24963571Y112942619D01*
X25201666Y112942619D01*
X25296904Y112895000D01*
X25344523Y112847380D01*
X25392142Y112752142D01*
X25392142Y112656904D01*
X25344523Y112514047D01*
X24773095Y111942619D01*
X25392142Y111942619D01*
X26154047Y112466428D02*
X26296904Y112418809D01*
X26344523Y112371190D01*
X26392142Y112275952D01*
X26392142Y112133095D01*
X26344523Y112037857D01*
X26296904Y111990238D01*
X26201666Y111942619D01*
X25820714Y111942619D01*
X25820714Y112942619D01*
X26154047Y112942619D01*
X26249285Y112895000D01*
X26296904Y112847380D01*
X26344523Y112752142D01*
X26344523Y112656904D01*
X26296904Y112561666D01*
X26249285Y112514047D01*
X26154047Y112466428D01*
X25820714Y112466428D01*
X27296904Y111942619D02*
X26820714Y111942619D01*
X26820714Y112942619D01*
X27630238Y112942619D02*
X27630238Y112133095D01*
X27677857Y112037857D01*
X27725476Y111990238D01*
X27820714Y111942619D01*
X28011190Y111942619D01*
X28106428Y111990238D01*
X28154047Y112037857D01*
X28201666Y112133095D01*
X28201666Y112942619D01*
X24268323Y115016019D02*
X23934990Y115492209D01*
X23696895Y115016019D02*
X23696895Y116016019D01*
X24077847Y116016019D01*
X24173085Y115968400D01*
X24220704Y115920780D01*
X24268323Y115825542D01*
X24268323Y115682685D01*
X24220704Y115587447D01*
X24173085Y115539828D01*
X24077847Y115492209D01*
X23696895Y115492209D01*
X24649276Y115920780D02*
X24696895Y115968400D01*
X24792133Y116016019D01*
X25030228Y116016019D01*
X25125466Y115968400D01*
X25173085Y115920780D01*
X25220704Y115825542D01*
X25220704Y115730304D01*
X25173085Y115587447D01*
X24601657Y115016019D01*
X25220704Y115016019D01*
X26173085Y115968400D02*
X26077847Y116016019D01*
X25934990Y116016019D01*
X25792133Y115968400D01*
X25696895Y115873161D01*
X25649276Y115777923D01*
X25601657Y115587447D01*
X25601657Y115444590D01*
X25649276Y115254114D01*
X25696895Y115158876D01*
X25792133Y115063638D01*
X25934990Y115016019D01*
X26030228Y115016019D01*
X26173085Y115063638D01*
X26220704Y115111257D01*
X26220704Y115444590D01*
X26030228Y115444590D01*
X27220704Y115016019D02*
X26887371Y115492209D01*
X26649276Y115016019D02*
X26649276Y116016019D01*
X27030228Y116016019D01*
X27125466Y115968400D01*
X27173085Y115920780D01*
X27220704Y115825542D01*
X27220704Y115682685D01*
X27173085Y115587447D01*
X27125466Y115539828D01*
X27030228Y115492209D01*
X26649276Y115492209D01*
X27649276Y115016019D02*
X27649276Y116016019D01*
X28220704Y115016019D01*
X28220704Y116016019D01*
X24263552Y118191019D02*
X23930219Y118667209D01*
X23692123Y118191019D02*
X23692123Y119191019D01*
X24073076Y119191019D01*
X24168314Y119143400D01*
X24215933Y119095780D01*
X24263552Y119000542D01*
X24263552Y118857685D01*
X24215933Y118762447D01*
X24168314Y118714828D01*
X24073076Y118667209D01*
X23692123Y118667209D01*
X24644504Y119095780D02*
X24692123Y119143400D01*
X24787361Y119191019D01*
X25025457Y119191019D01*
X25120695Y119143400D01*
X25168314Y119095780D01*
X25215933Y119000542D01*
X25215933Y118905304D01*
X25168314Y118762447D01*
X24596885Y118191019D01*
X25215933Y118191019D01*
X26215933Y118191019D02*
X25882600Y118667209D01*
X25644504Y118191019D02*
X25644504Y119191019D01*
X26025457Y119191019D01*
X26120695Y119143400D01*
X26168314Y119095780D01*
X26215933Y119000542D01*
X26215933Y118857685D01*
X26168314Y118762447D01*
X26120695Y118714828D01*
X26025457Y118667209D01*
X25644504Y118667209D01*
X26644504Y118714828D02*
X26977838Y118714828D01*
X27120695Y118191019D02*
X26644504Y118191019D01*
X26644504Y119191019D01*
X27120695Y119191019D01*
X27549266Y118191019D02*
X27549266Y119191019D01*
X27787361Y119191019D01*
X27930219Y119143400D01*
X28025457Y119048161D01*
X28073076Y118952923D01*
X28120695Y118762447D01*
X28120695Y118619590D01*
X28073076Y118429114D01*
X28025457Y118333876D01*
X27930219Y118238638D01*
X27787361Y118191019D01*
X27549266Y118191019D01*
X9987161Y112018819D02*
X9653828Y112495009D01*
X9415733Y112018819D02*
X9415733Y113018819D01*
X9796685Y113018819D01*
X9891923Y112971200D01*
X9939542Y112923580D01*
X9987161Y112828342D01*
X9987161Y112685485D01*
X9939542Y112590247D01*
X9891923Y112542628D01*
X9796685Y112495009D01*
X9415733Y112495009D01*
X10939542Y112018819D02*
X10368114Y112018819D01*
X10653828Y112018819D02*
X10653828Y113018819D01*
X10558590Y112875961D01*
X10463352Y112780723D01*
X10368114Y112733104D01*
X11701447Y112542628D02*
X11844304Y112495009D01*
X11891923Y112447390D01*
X11939542Y112352152D01*
X11939542Y112209295D01*
X11891923Y112114057D01*
X11844304Y112066438D01*
X11749066Y112018819D01*
X11368114Y112018819D01*
X11368114Y113018819D01*
X11701447Y113018819D01*
X11796685Y112971200D01*
X11844304Y112923580D01*
X11891923Y112828342D01*
X11891923Y112733104D01*
X11844304Y112637866D01*
X11796685Y112590247D01*
X11701447Y112542628D01*
X11368114Y112542628D01*
X12844304Y112018819D02*
X12368114Y112018819D01*
X12368114Y113018819D01*
X13177638Y113018819D02*
X13177638Y112209295D01*
X13225257Y112114057D01*
X13272876Y112066438D01*
X13368114Y112018819D01*
X13558590Y112018819D01*
X13653828Y112066438D01*
X13701447Y112114057D01*
X13749066Y112209295D01*
X13749066Y113018819D01*
X9993523Y115143019D02*
X9660190Y115619209D01*
X9422095Y115143019D02*
X9422095Y116143019D01*
X9803047Y116143019D01*
X9898285Y116095400D01*
X9945904Y116047780D01*
X9993523Y115952542D01*
X9993523Y115809685D01*
X9945904Y115714447D01*
X9898285Y115666828D01*
X9803047Y115619209D01*
X9422095Y115619209D01*
X10945904Y115143019D02*
X10374476Y115143019D01*
X10660190Y115143019D02*
X10660190Y116143019D01*
X10564952Y116000161D01*
X10469714Y115904923D01*
X10374476Y115857304D01*
X11898285Y116095400D02*
X11803047Y116143019D01*
X11660190Y116143019D01*
X11517333Y116095400D01*
X11422095Y116000161D01*
X11374476Y115904923D01*
X11326857Y115714447D01*
X11326857Y115571590D01*
X11374476Y115381114D01*
X11422095Y115285876D01*
X11517333Y115190638D01*
X11660190Y115143019D01*
X11755428Y115143019D01*
X11898285Y115190638D01*
X11945904Y115238257D01*
X11945904Y115571590D01*
X11755428Y115571590D01*
X12945904Y115143019D02*
X12612571Y115619209D01*
X12374476Y115143019D02*
X12374476Y116143019D01*
X12755428Y116143019D01*
X12850666Y116095400D01*
X12898285Y116047780D01*
X12945904Y115952542D01*
X12945904Y115809685D01*
X12898285Y115714447D01*
X12850666Y115666828D01*
X12755428Y115619209D01*
X12374476Y115619209D01*
X13374476Y115143019D02*
X13374476Y116143019D01*
X13945904Y115143019D01*
X13945904Y116143019D01*
X10090352Y118089419D02*
X9757019Y118565609D01*
X9518923Y118089419D02*
X9518923Y119089419D01*
X9899876Y119089419D01*
X9995114Y119041800D01*
X10042733Y118994180D01*
X10090352Y118898942D01*
X10090352Y118756085D01*
X10042733Y118660847D01*
X9995114Y118613228D01*
X9899876Y118565609D01*
X9518923Y118565609D01*
X11042733Y118089419D02*
X10471304Y118089419D01*
X10757019Y118089419D02*
X10757019Y119089419D01*
X10661780Y118946561D01*
X10566542Y118851323D01*
X10471304Y118803704D01*
X12042733Y118089419D02*
X11709400Y118565609D01*
X11471304Y118089419D02*
X11471304Y119089419D01*
X11852257Y119089419D01*
X11947495Y119041800D01*
X11995114Y118994180D01*
X12042733Y118898942D01*
X12042733Y118756085D01*
X11995114Y118660847D01*
X11947495Y118613228D01*
X11852257Y118565609D01*
X11471304Y118565609D01*
X12471304Y118613228D02*
X12804638Y118613228D01*
X12947495Y118089419D02*
X12471304Y118089419D01*
X12471304Y119089419D01*
X12947495Y119089419D01*
X13376066Y118089419D02*
X13376066Y119089419D01*
X13614161Y119089419D01*
X13757019Y119041800D01*
X13852257Y118946561D01*
X13899876Y118851323D01*
X13947495Y118660847D01*
X13947495Y118517990D01*
X13899876Y118327514D01*
X13852257Y118232276D01*
X13757019Y118137038D01*
X13614161Y118089419D01*
X13376066Y118089419D01*
X43457952Y111815619D02*
X42981761Y111815619D01*
X42981761Y112815619D01*
X43791285Y112339428D02*
X44124619Y112339428D01*
X44267476Y111815619D02*
X43791285Y111815619D01*
X43791285Y112815619D01*
X44267476Y112815619D01*
X44696047Y111815619D02*
X44696047Y112815619D01*
X44934142Y112815619D01*
X45077000Y112768000D01*
X45172238Y112672761D01*
X45219857Y112577523D01*
X45267476Y112387047D01*
X45267476Y112244190D01*
X45219857Y112053714D01*
X45172238Y111958476D01*
X45077000Y111863238D01*
X44934142Y111815619D01*
X44696047Y111815619D01*
X45600809Y112815619D02*
X46219857Y112815619D01*
X45886523Y112434666D01*
X46029380Y112434666D01*
X46124619Y112387047D01*
X46172238Y112339428D01*
X46219857Y112244190D01*
X46219857Y112006095D01*
X46172238Y111910857D01*
X46124619Y111863238D01*
X46029380Y111815619D01*
X45743666Y111815619D01*
X45648428Y111863238D01*
X45600809Y111910857D01*
D14*
X15200700Y111270380D02*
X8700690Y111270380D01*
X43648700Y111270380D02*
X37148690Y111270380D01*
X37148690Y114369180D02*
X37148690Y116669210D01*
X8700690Y116669210D02*
X15200700Y116669210D01*
X8700690Y114369180D02*
X8700690Y116669210D01*
X43648700Y114369180D02*
X37148690Y114369180D01*
X37148690Y116669210D02*
X43648700Y116669210D01*
X22924690Y116669210D02*
X29424700Y116669210D01*
X8700690Y111270380D02*
X8700690Y113570410D01*
X22924690Y113570410D02*
X29424700Y113570410D01*
X15200700Y116639180D02*
X15200700Y114399210D01*
X8700690Y113570410D02*
X15200700Y113570410D01*
X29424700Y114369180D02*
X22924690Y114369180D01*
X37148690Y113570410D02*
X43648700Y113570410D01*
X15200700Y114369180D02*
X8700690Y114369180D01*
X22924690Y114369180D02*
X22924690Y116669210D01*
X29424700Y111270380D02*
X22924690Y111270380D01*
X43648700Y116639180D02*
X43648700Y114399210D01*
X37148690Y111270380D02*
X37148690Y113570410D01*
X15200700Y113540380D02*
X15200700Y111300410D01*
X43648700Y113540380D02*
X43648700Y111300410D01*
X29424700Y113540380D02*
X29424700Y111300410D01*
X29424700Y116639180D02*
X29424700Y114399210D01*
X22924690Y111270380D02*
X22924690Y113570410D01*
X15175300Y119788780D02*
X15175300Y117548810D01*
X37123290Y119818810D02*
X43623300Y119818810D01*
X8675290Y119818810D02*
X15175300Y119818810D01*
X43623300Y117518780D02*
X37123290Y117518780D01*
X37123290Y117518780D02*
X37123290Y119818810D01*
X29399300Y119788780D02*
X29399300Y117548810D01*
X22899290Y119818810D02*
X29399300Y119818810D01*
X15175300Y117518780D02*
X8675290Y117518780D01*
X43623300Y119788780D02*
X43623300Y117548810D01*
X29399300Y117518780D02*
X22899290Y117518780D01*
X22899290Y117518780D02*
X22899290Y119818810D01*
X8675290Y117518780D02*
X8675290Y119818810D01*
D11*
X6474580Y124807219D02*
X6474580Y125807219D01*
X6474580Y125331028D02*
X7046009Y125331028D01*
X7046009Y124807219D02*
X7046009Y125807219D01*
X7426961Y125473885D02*
X7665057Y124807219D01*
X7903152Y125473885D02*
X7665057Y124807219D01*
X7569819Y124569123D01*
X7522199Y124521504D01*
X7426961Y124473885D01*
X8284104Y124807219D02*
X8284104Y125473885D01*
X8284104Y125283409D02*
X8331723Y125378647D01*
X8379342Y125426266D01*
X8474580Y125473885D01*
X8569819Y125473885D01*
X9331723Y125473885D02*
X9331723Y124807219D01*
X8903152Y125473885D02*
X8903152Y124950076D01*
X8950771Y124854838D01*
X9046009Y124807219D01*
X9188866Y124807219D01*
X9284104Y124854838D01*
X9331723Y124902457D01*
X9807914Y124807219D02*
X9807914Y125473885D01*
X9807914Y125378647D02*
X9855533Y125426266D01*
X9950771Y125473885D01*
X10093628Y125473885D01*
X10188866Y125426266D01*
X10236485Y125331028D01*
X10236485Y124807219D01*
X10236485Y125331028D02*
X10284104Y125426266D01*
X10379342Y125473885D01*
X10522200Y125473885D01*
X10617438Y125426266D01*
X10665057Y125331028D01*
X10665057Y124807219D01*
X11903152Y124807219D02*
X11903152Y125807219D01*
X12141247Y125807219D01*
X12284104Y125759600D01*
X12379342Y125664361D01*
X12426961Y125569123D01*
X12474580Y125378647D01*
X12474580Y125235790D01*
X12426961Y125045314D01*
X12379342Y124950076D01*
X12284104Y124854838D01*
X12141247Y124807219D01*
X11903152Y124807219D01*
X12903152Y124807219D02*
X12903152Y125473885D01*
X12903152Y125807219D02*
X12855533Y125759600D01*
X12903152Y125711980D01*
X12950771Y125759600D01*
X12903152Y125807219D01*
X12903152Y125711980D01*
X13807914Y124854838D02*
X13712676Y124807219D01*
X13522199Y124807219D01*
X13426961Y124854838D01*
X13379342Y124902457D01*
X13331723Y124997695D01*
X13331723Y125283409D01*
X13379342Y125378647D01*
X13426961Y125426266D01*
X13522199Y125473885D01*
X13712676Y125473885D01*
X13807914Y125426266D01*
X14236485Y124807219D02*
X14236485Y125807219D01*
X14331723Y125188171D02*
X14617438Y124807219D01*
X14617438Y125473885D02*
X14236485Y125092933D01*
X15046009Y124807219D02*
X15046009Y125473885D01*
X15046009Y125807219D02*
X14998390Y125759600D01*
X15046009Y125711980D01*
X15093628Y125759600D01*
X15046009Y125807219D01*
X15046009Y125711980D01*
X15522200Y125473885D02*
X15522200Y124807219D01*
X15522200Y125378647D02*
X15569819Y125426266D01*
X15665057Y125473885D01*
X15807914Y125473885D01*
X15903152Y125426266D01*
X15950771Y125331028D01*
X15950771Y124807219D01*
X16379342Y124854838D02*
X16474580Y124807219D01*
X16665057Y124807219D01*
X16760295Y124854838D01*
X16807914Y124950076D01*
X16807914Y124997695D01*
X16760295Y125092933D01*
X16665057Y125140552D01*
X16522200Y125140552D01*
X16426961Y125188171D01*
X16379342Y125283409D01*
X16379342Y125331028D01*
X16426961Y125426266D01*
X16522200Y125473885D01*
X16665057Y125473885D01*
X16760295Y125426266D01*
X17379342Y124807219D02*
X17284104Y124854838D01*
X17236485Y124902457D01*
X17188866Y124997695D01*
X17188866Y125283409D01*
X17236485Y125378647D01*
X17284104Y125426266D01*
X17379342Y125473885D01*
X17522200Y125473885D01*
X17617438Y125426266D01*
X17665057Y125378647D01*
X17712676Y125283409D01*
X17712676Y124997695D01*
X17665057Y124902457D01*
X17617438Y124854838D01*
X17522200Y124807219D01*
X17379342Y124807219D01*
X18141247Y125473885D02*
X18141247Y124807219D01*
X18141247Y125378647D02*
X18188866Y125426266D01*
X18284104Y125473885D01*
X18426961Y125473885D01*
X18522200Y125426266D01*
X18569819Y125331028D01*
X18569819Y124807219D01*
X7379342Y124157219D02*
X7569819Y124157219D01*
X7665057Y124109600D01*
X7760295Y124014361D01*
X7807914Y123823885D01*
X7807914Y123490552D01*
X7760295Y123300076D01*
X7665057Y123204838D01*
X7569819Y123157219D01*
X7379342Y123157219D01*
X7284104Y123204838D01*
X7188866Y123300076D01*
X7141247Y123490552D01*
X7141247Y123823885D01*
X7188866Y124014361D01*
X7284104Y124109600D01*
X7379342Y124157219D01*
X8379342Y123157219D02*
X8284104Y123204838D01*
X8236485Y123300076D01*
X8236485Y124157219D01*
X8760295Y123157219D02*
X8760295Y123823885D01*
X8760295Y124157219D02*
X8712676Y124109600D01*
X8760295Y124061980D01*
X8807914Y124109600D01*
X8760295Y124157219D01*
X8760295Y124061980D01*
X9141247Y123823885D02*
X9379342Y123157219D01*
X9617438Y123823885D01*
X10379342Y123204838D02*
X10284104Y123157219D01*
X10093628Y123157219D01*
X9998390Y123204838D01*
X9950771Y123300076D01*
X9950771Y123681028D01*
X9998390Y123776266D01*
X10093628Y123823885D01*
X10284104Y123823885D01*
X10379342Y123776266D01*
X10426961Y123681028D01*
X10426961Y123585790D01*
X9950771Y123490552D01*
X10855533Y123157219D02*
X10855533Y123823885D01*
X10855533Y123633409D02*
X10903152Y123728647D01*
X10950771Y123776266D01*
X11046009Y123823885D01*
X11141247Y123823885D01*
X12522200Y124157219D02*
X12522200Y123442933D01*
X12474580Y123300076D01*
X12379342Y123204838D01*
X12236485Y123157219D01*
X12141247Y123157219D01*
X13141247Y123157219D02*
X13046009Y123204838D01*
X12998390Y123252457D01*
X12950771Y123347695D01*
X12950771Y123633409D01*
X12998390Y123728647D01*
X13046009Y123776266D01*
X13141247Y123823885D01*
X13284104Y123823885D01*
X13379342Y123776266D01*
X13426961Y123728647D01*
X13474580Y123633409D01*
X13474580Y123347695D01*
X13426961Y123252457D01*
X13379342Y123204838D01*
X13284104Y123157219D01*
X13141247Y123157219D01*
X13903152Y123157219D02*
X13903152Y124157219D01*
X14331723Y123157219D02*
X14331723Y123681028D01*
X14284104Y123776266D01*
X14188866Y123823885D01*
X14046009Y123823885D01*
X13950771Y123776266D01*
X13903152Y123728647D01*
X14807914Y123823885D02*
X14807914Y123157219D01*
X14807914Y123728647D02*
X14855533Y123776266D01*
X14950771Y123823885D01*
X15093628Y123823885D01*
X15188866Y123776266D01*
X15236485Y123681028D01*
X15236485Y123157219D01*
X15665057Y123204838D02*
X15760295Y123157219D01*
X15950771Y123157219D01*
X16046009Y123204838D01*
X16093628Y123300076D01*
X16093628Y123347695D01*
X16046009Y123442933D01*
X15950771Y123490552D01*
X15807914Y123490552D01*
X15712676Y123538171D01*
X15665057Y123633409D01*
X15665057Y123681028D01*
X15712676Y123776266D01*
X15807914Y123823885D01*
X15950771Y123823885D01*
X16046009Y123776266D01*
X16665057Y123157219D02*
X16569819Y123204838D01*
X16522200Y123252457D01*
X16474580Y123347695D01*
X16474580Y123633409D01*
X16522200Y123728647D01*
X16569819Y123776266D01*
X16665057Y123823885D01*
X16807914Y123823885D01*
X16903152Y123776266D01*
X16950771Y123728647D01*
X16998390Y123633409D01*
X16998390Y123347695D01*
X16950771Y123252457D01*
X16903152Y123204838D01*
X16807914Y123157219D01*
X16665057Y123157219D01*
X17426961Y123823885D02*
X17426961Y123157219D01*
X17426961Y123728647D02*
X17474580Y123776266D01*
X17569819Y123823885D01*
X17712676Y123823885D01*
X17807914Y123776266D01*
X17855533Y123681028D01*
X17855533Y123157219D01*
D15*
X4890542Y130013752D02*
X5919114Y130013752D01*
X5404828Y128313752D02*
X5404828Y130013752D01*
X6519114Y128313752D02*
X6519114Y129447085D01*
X6519114Y130013752D02*
X6433399Y129932800D01*
X6519114Y129851847D01*
X6604828Y129932800D01*
X6519114Y130013752D01*
X6519114Y129851847D01*
X8147685Y128394704D02*
X7976257Y128313752D01*
X7633399Y128313752D01*
X7461971Y128394704D01*
X7376257Y128475657D01*
X7290542Y128637561D01*
X7290542Y129123276D01*
X7376257Y129285180D01*
X7461971Y129366133D01*
X7633399Y129447085D01*
X7976257Y129447085D01*
X8147685Y129366133D01*
X10033399Y130013752D02*
X11061971Y130013752D01*
X10547685Y128313752D02*
X10547685Y130013752D01*
X12433399Y128313752D02*
X12433399Y129204228D01*
X12347685Y129366133D01*
X12176257Y129447085D01*
X11833399Y129447085D01*
X11661971Y129366133D01*
X12433399Y128394704D02*
X12261971Y128313752D01*
X11833399Y128313752D01*
X11661971Y128394704D01*
X11576257Y128556609D01*
X11576257Y128718514D01*
X11661971Y128880419D01*
X11833399Y128961371D01*
X12261971Y128961371D01*
X12433399Y129042323D01*
X14061971Y128394704D02*
X13890542Y128313752D01*
X13547685Y128313752D01*
X13376257Y128394704D01*
X13290542Y128475657D01*
X13204828Y128637561D01*
X13204828Y129123276D01*
X13290542Y129285180D01*
X13376257Y129366133D01*
X13547685Y129447085D01*
X13890542Y129447085D01*
X14061971Y129366133D01*
X15947685Y130013752D02*
X16976257Y130013752D01*
X16461971Y128313752D02*
X16461971Y130013752D01*
X17833399Y128313752D02*
X17661971Y128394704D01*
X17576257Y128475657D01*
X17490542Y128637561D01*
X17490542Y129123276D01*
X17576257Y129285180D01*
X17661971Y129366133D01*
X17833399Y129447085D01*
X18090542Y129447085D01*
X18261971Y129366133D01*
X18347685Y129285180D01*
X18433399Y129123276D01*
X18433399Y128637561D01*
X18347685Y128475657D01*
X18261971Y128394704D01*
X18090542Y128313752D01*
X17833399Y128313752D01*
X19890542Y128394704D02*
X19719114Y128313752D01*
X19376257Y128313752D01*
X19204828Y128394704D01*
X19119114Y128556609D01*
X19119114Y129204228D01*
X19204828Y129366133D01*
X19376257Y129447085D01*
X19719114Y129447085D01*
X19890542Y129366133D01*
X19976257Y129204228D01*
X19976257Y129042323D01*
X19119114Y128880419D01*
X22119114Y128961371D02*
X23490542Y128961371D01*
X25719114Y129204228D02*
X26319114Y129204228D01*
X26576257Y128313752D02*
X25719114Y128313752D01*
X25719114Y130013752D01*
X26576257Y130013752D01*
X28376257Y128475657D02*
X28290542Y128394704D01*
X28033399Y128313752D01*
X27861971Y128313752D01*
X27604828Y128394704D01*
X27433399Y128556609D01*
X27347685Y128718514D01*
X27261971Y129042323D01*
X27261971Y129285180D01*
X27347685Y129608990D01*
X27433399Y129770895D01*
X27604828Y129932800D01*
X27861971Y130013752D01*
X28033399Y130013752D01*
X28290542Y129932800D01*
X28376257Y129851847D01*
X29147685Y129204228D02*
X29747685Y129204228D01*
X30004828Y128313752D02*
X29147685Y128313752D01*
X29147685Y130013752D01*
X30004828Y130013752D01*
X32147685Y128313752D02*
X32147685Y130013752D01*
X32147685Y129204228D02*
X33176257Y129204228D01*
X33176257Y128313752D02*
X33176257Y130013752D01*
X34290542Y128313752D02*
X34119114Y128394704D01*
X34033399Y128475657D01*
X33947685Y128637561D01*
X33947685Y129123276D01*
X34033399Y129285180D01*
X34119114Y129366133D01*
X34290542Y129447085D01*
X34547685Y129447085D01*
X34719114Y129366133D01*
X34804828Y129285180D01*
X34890542Y129123276D01*
X34890542Y128637561D01*
X34804828Y128475657D01*
X34719114Y128394704D01*
X34547685Y128313752D01*
X34290542Y128313752D01*
X35661971Y129447085D02*
X35661971Y128313752D01*
X35661971Y129285180D02*
X35747685Y129366133D01*
X35919114Y129447085D01*
X36176257Y129447085D01*
X36347685Y129366133D01*
X36433399Y129204228D01*
X36433399Y128313752D01*
X37547685Y128313752D02*
X37376257Y128394704D01*
X37290542Y128475657D01*
X37204828Y128637561D01*
X37204828Y129123276D01*
X37290542Y129285180D01*
X37376257Y129366133D01*
X37547685Y129447085D01*
X37804828Y129447085D01*
X37976257Y129366133D01*
X38061971Y129285180D01*
X38147685Y129123276D01*
X38147685Y128637561D01*
X38061971Y128475657D01*
X37976257Y128394704D01*
X37804828Y128313752D01*
X37547685Y128313752D01*
X38919114Y128313752D02*
X38919114Y129447085D01*
X38919114Y129123276D02*
X39004828Y129285180D01*
X39090542Y129366133D01*
X39261971Y129447085D01*
X39433399Y129447085D01*
X39947685Y128394704D02*
X40119114Y128313752D01*
X40461971Y128313752D01*
X40633399Y128394704D01*
X40719114Y128556609D01*
X40719114Y128637561D01*
X40633399Y128799466D01*
X40461971Y128880419D01*
X40204828Y128880419D01*
X40033399Y128961371D01*
X39947685Y129123276D01*
X39947685Y129204228D01*
X40033399Y129366133D01*
X40204828Y129447085D01*
X40461971Y129447085D01*
X40633399Y129366133D01*
X43719114Y128313752D02*
X42861971Y128313752D01*
X42861971Y130013752D01*
X45090542Y128313752D02*
X45090542Y129204228D01*
X45004828Y129366133D01*
X44833400Y129447085D01*
X44490542Y129447085D01*
X44319114Y129366133D01*
X45090542Y128394704D02*
X44919114Y128313752D01*
X44490542Y128313752D01*
X44319114Y128394704D01*
X44233400Y128556609D01*
X44233400Y128718514D01*
X44319114Y128880419D01*
X44490542Y128961371D01*
X44919114Y128961371D01*
X45090542Y129042323D01*
X45947685Y128313752D02*
X45947685Y130013752D01*
X45947685Y129366133D02*
X46119114Y129447085D01*
X46461971Y129447085D01*
X46633400Y129366133D01*
X46719114Y129285180D01*
X46804828Y129123276D01*
X46804828Y128637561D01*
X46719114Y128475657D01*
X46633400Y128394704D01*
X46461971Y128313752D01*
X46119114Y128313752D01*
X45947685Y128394704D01*
D16*
X12421870Y43634150D02*
X12317720Y43738290D01*
X12317720Y43738290D02*
X12162790Y43789090D01*
X12162790Y43789090D02*
X11954510Y43789090D01*
X11954510Y43789090D02*
X11799560Y43738290D01*
X11799560Y43738290D02*
X11695430Y43634150D01*
X11695430Y43634150D02*
X11695430Y43530010D01*
X11695430Y43530010D02*
X11746220Y43425870D01*
X11746220Y43425870D02*
X11799560Y43372530D01*
X11799560Y43372530D02*
X11903700Y43321730D01*
X11903700Y43321730D02*
X12216120Y43217590D01*
X12216120Y43217590D02*
X12317720Y43166790D01*
X12317720Y43166790D02*
X12371060Y43113450D01*
X12371060Y43113450D02*
X12421870Y43009310D01*
X12421870Y43009310D02*
X12421870Y42854370D01*
X12421870Y42854370D02*
X12317720Y42750230D01*
X12317720Y42750230D02*
X12162790Y42699430D01*
X12162790Y42699430D02*
X11954510Y42699430D01*
X11954510Y42699430D02*
X11799560Y42750230D01*
X11799560Y42750230D02*
X11695430Y42854370D01*
X12764770Y43789090D02*
X13026380Y42699430D01*
X13285460Y43789090D02*
X13026380Y42699430D01*
X13285460Y43789090D02*
X13544540Y42699430D01*
X13803620Y43789090D02*
X13544540Y42699430D01*
X14146530Y43580810D02*
X14250670Y43634150D01*
X14250670Y43634150D02*
X14408140Y43789090D01*
X14408140Y43789090D02*
X14408140Y42699430D01*
X26137860Y43634150D02*
X26033720Y43738290D01*
X26033720Y43738290D02*
X25878790Y43789090D01*
X25878790Y43789090D02*
X25670500Y43789090D01*
X25670500Y43789090D02*
X25515560Y43738290D01*
X25515560Y43738290D02*
X25411430Y43634150D01*
X25411430Y43634150D02*
X25411430Y43530010D01*
X25411430Y43530010D02*
X25462220Y43425870D01*
X25462220Y43425870D02*
X25515560Y43372530D01*
X25515560Y43372530D02*
X25619700Y43321730D01*
X25619700Y43321730D02*
X25932130Y43217590D01*
X25932130Y43217590D02*
X26033720Y43166790D01*
X26033720Y43166790D02*
X26087060Y43113450D01*
X26087060Y43113450D02*
X26137860Y43009310D01*
X26137860Y43009310D02*
X26137860Y42854370D01*
X26137860Y42854370D02*
X26033720Y42750230D01*
X26033720Y42750230D02*
X25878790Y42699430D01*
X25878790Y42699430D02*
X25670500Y42699430D01*
X25670500Y42699430D02*
X25515560Y42750230D01*
X25515560Y42750230D02*
X25411430Y42854370D01*
X26480770Y43789090D02*
X26742380Y42699430D01*
X27001470Y43789090D02*
X26742380Y42699430D01*
X27001470Y43789090D02*
X27260540Y42699430D01*
X27519630Y43789090D02*
X27260540Y42699430D01*
X27915860Y43530010D02*
X27915860Y43580810D01*
X27915860Y43580810D02*
X27966660Y43684950D01*
X27966660Y43684950D02*
X28020000Y43738290D01*
X28020000Y43738290D02*
X28124150Y43789090D01*
X28124150Y43789090D02*
X28332430Y43789090D01*
X28332430Y43789090D02*
X28434020Y43738290D01*
X28434020Y43738290D02*
X28487360Y43684950D01*
X28487360Y43684950D02*
X28538160Y43580810D01*
X28538160Y43580810D02*
X28538160Y43476670D01*
X28538160Y43476670D02*
X28487360Y43372530D01*
X28487360Y43372530D02*
X28383220Y43217590D01*
X28383220Y43217590D02*
X27862520Y42699430D01*
X27862520Y42699430D02*
X28591500Y42699430D01*
X39853860Y43761150D02*
X39749720Y43865290D01*
X39749720Y43865290D02*
X39594790Y43916090D01*
X39594790Y43916090D02*
X39386500Y43916090D01*
X39386500Y43916090D02*
X39231560Y43865290D01*
X39231560Y43865290D02*
X39127430Y43761150D01*
X39127430Y43761150D02*
X39127430Y43657010D01*
X39127430Y43657010D02*
X39178220Y43552870D01*
X39178220Y43552870D02*
X39231560Y43499530D01*
X39231560Y43499530D02*
X39335700Y43448730D01*
X39335700Y43448730D02*
X39648130Y43344590D01*
X39648130Y43344590D02*
X39749720Y43293790D01*
X39749720Y43293790D02*
X39803060Y43240450D01*
X39803060Y43240450D02*
X39853860Y43136310D01*
X39853860Y43136310D02*
X39853860Y42981370D01*
X39853860Y42981370D02*
X39749720Y42877230D01*
X39749720Y42877230D02*
X39594790Y42826430D01*
X39594790Y42826430D02*
X39386500Y42826430D01*
X39386500Y42826430D02*
X39231560Y42877230D01*
X39231560Y42877230D02*
X39127430Y42981370D01*
X40196770Y43916090D02*
X40458380Y42826430D01*
X40717470Y43916090D02*
X40458380Y42826430D01*
X40717470Y43916090D02*
X40976540Y42826430D01*
X41235630Y43916090D02*
X40976540Y42826430D01*
X41682660Y43916090D02*
X42254160Y43916090D01*
X42254160Y43916090D02*
X41944290Y43499530D01*
X41944290Y43499530D02*
X42099220Y43499530D01*
X42099220Y43499530D02*
X42203360Y43448730D01*
X42203360Y43448730D02*
X42254160Y43397930D01*
X42254160Y43397930D02*
X42307500Y43240450D01*
X42307500Y43240450D02*
X42307500Y43136310D01*
X42307500Y43136310D02*
X42254160Y42981370D01*
X42254160Y42981370D02*
X42150020Y42877230D01*
X42150020Y42877230D02*
X41995090Y42826430D01*
X41995090Y42826430D02*
X41840150Y42826430D01*
X41840150Y42826430D02*
X41682660Y42877230D01*
X41682660Y42877230D02*
X41631860Y42928030D01*
X41631860Y42928030D02*
X41578520Y43032170D01*
X12421870Y29473650D02*
X12317720Y29577790D01*
X12317720Y29577790D02*
X12162790Y29628590D01*
X12162790Y29628590D02*
X11954510Y29628590D01*
X11954510Y29628590D02*
X11799560Y29577790D01*
X11799560Y29577790D02*
X11695430Y29473650D01*
X11695430Y29473650D02*
X11695430Y29369510D01*
X11695430Y29369510D02*
X11746220Y29265370D01*
X11746220Y29265370D02*
X11799560Y29212030D01*
X11799560Y29212030D02*
X11903700Y29161230D01*
X11903700Y29161230D02*
X12216120Y29057090D01*
X12216120Y29057090D02*
X12317720Y29006290D01*
X12317720Y29006290D02*
X12371060Y28952950D01*
X12371060Y28952950D02*
X12421870Y28848810D01*
X12421870Y28848810D02*
X12421870Y28693870D01*
X12421870Y28693870D02*
X12317720Y28589730D01*
X12317720Y28589730D02*
X12162790Y28538930D01*
X12162790Y28538930D02*
X11954510Y28538930D01*
X11954510Y28538930D02*
X11799560Y28589730D01*
X11799560Y28589730D02*
X11695430Y28693870D01*
X12764770Y29628590D02*
X13026380Y28538930D01*
X13285460Y29628590D02*
X13026380Y28538930D01*
X13285460Y29628590D02*
X13544540Y28538930D01*
X13803620Y29628590D02*
X13544540Y28538930D01*
X14667220Y29628590D02*
X14146530Y28902150D01*
X14146530Y28902150D02*
X14926300Y28902150D01*
X14667220Y29628590D02*
X14667220Y28538930D01*
X26137860Y29473650D02*
X26033720Y29577790D01*
X26033720Y29577790D02*
X25878790Y29628590D01*
X25878790Y29628590D02*
X25670500Y29628590D01*
X25670500Y29628590D02*
X25515560Y29577790D01*
X25515560Y29577790D02*
X25411430Y29473650D01*
X25411430Y29473650D02*
X25411430Y29369510D01*
X25411430Y29369510D02*
X25462220Y29265370D01*
X25462220Y29265370D02*
X25515560Y29212030D01*
X25515560Y29212030D02*
X25619700Y29161230D01*
X25619700Y29161230D02*
X25932130Y29057090D01*
X25932130Y29057090D02*
X26033720Y29006290D01*
X26033720Y29006290D02*
X26087060Y28952950D01*
X26087060Y28952950D02*
X26137860Y28848810D01*
X26137860Y28848810D02*
X26137860Y28693870D01*
X26137860Y28693870D02*
X26033720Y28589730D01*
X26033720Y28589730D02*
X25878790Y28538930D01*
X25878790Y28538930D02*
X25670500Y28538930D01*
X25670500Y28538930D02*
X25515560Y28589730D01*
X25515560Y28589730D02*
X25411430Y28693870D01*
X26480770Y29628590D02*
X26742380Y28538930D01*
X27001470Y29628590D02*
X26742380Y28538930D01*
X27001470Y29628590D02*
X27260540Y28538930D01*
X27519630Y29628590D02*
X27260540Y28538930D01*
X28487360Y29628590D02*
X27966660Y29628590D01*
X27966660Y29628590D02*
X27915860Y29161230D01*
X27915860Y29161230D02*
X27966660Y29212030D01*
X27966660Y29212030D02*
X28124150Y29265370D01*
X28124150Y29265370D02*
X28279090Y29265370D01*
X28279090Y29265370D02*
X28434020Y29212030D01*
X28434020Y29212030D02*
X28538160Y29110430D01*
X28538160Y29110430D02*
X28591500Y28952950D01*
X28591500Y28952950D02*
X28591500Y28848810D01*
X28591500Y28848810D02*
X28538160Y28693870D01*
X28538160Y28693870D02*
X28434020Y28589730D01*
X28434020Y28589730D02*
X28279090Y28538930D01*
X28279090Y28538930D02*
X28124150Y28538930D01*
X28124150Y28538930D02*
X27966660Y28589730D01*
X27966660Y28589730D02*
X27915860Y28640530D01*
X27915860Y28640530D02*
X27862520Y28744670D01*
X39726860Y29537150D02*
X39622720Y29641290D01*
X39622720Y29641290D02*
X39467790Y29692090D01*
X39467790Y29692090D02*
X39259500Y29692090D01*
X39259500Y29692090D02*
X39104560Y29641290D01*
X39104560Y29641290D02*
X39000430Y29537150D01*
X39000430Y29537150D02*
X39000430Y29433010D01*
X39000430Y29433010D02*
X39051220Y29328870D01*
X39051220Y29328870D02*
X39104560Y29275530D01*
X39104560Y29275530D02*
X39208700Y29224730D01*
X39208700Y29224730D02*
X39521130Y29120590D01*
X39521130Y29120590D02*
X39622720Y29069790D01*
X39622720Y29069790D02*
X39676060Y29016450D01*
X39676060Y29016450D02*
X39726860Y28912310D01*
X39726860Y28912310D02*
X39726860Y28757370D01*
X39726860Y28757370D02*
X39622720Y28653230D01*
X39622720Y28653230D02*
X39467790Y28602430D01*
X39467790Y28602430D02*
X39259500Y28602430D01*
X39259500Y28602430D02*
X39104560Y28653230D01*
X39104560Y28653230D02*
X39000430Y28757370D01*
X40069770Y29692090D02*
X40331380Y28602430D01*
X40590470Y29692090D02*
X40331380Y28602430D01*
X40590470Y29692090D02*
X40849540Y28602430D01*
X41108630Y29692090D02*
X40849540Y28602430D01*
X42076360Y29537150D02*
X42023020Y29641290D01*
X42023020Y29641290D02*
X41868090Y29692090D01*
X41868090Y29692090D02*
X41763950Y29692090D01*
X41763950Y29692090D02*
X41609000Y29641290D01*
X41609000Y29641290D02*
X41504860Y29483810D01*
X41504860Y29483810D02*
X41451520Y29224730D01*
X41451520Y29224730D02*
X41451520Y28965650D01*
X41451520Y28965650D02*
X41504860Y28757370D01*
X41504860Y28757370D02*
X41609000Y28653230D01*
X41609000Y28653230D02*
X41763950Y28602430D01*
X41763950Y28602430D02*
X41817290Y28602430D01*
X41817290Y28602430D02*
X41972220Y28653230D01*
X41972220Y28653230D02*
X42076360Y28757370D01*
X42076360Y28757370D02*
X42127160Y28912310D01*
X42127160Y28912310D02*
X42127160Y28965650D01*
X42127160Y28965650D02*
X42076360Y29120590D01*
X42076360Y29120590D02*
X41972220Y29224730D01*
X41972220Y29224730D02*
X41817290Y29275530D01*
X41817290Y29275530D02*
X41763950Y29275530D01*
X41763950Y29275530D02*
X41609000Y29224730D01*
X41609000Y29224730D02*
X41504860Y29120590D01*
X41504860Y29120590D02*
X41451520Y28965650D01*
X12421870Y15313150D02*
X12317720Y15417290D01*
X12317720Y15417290D02*
X12162790Y15468090D01*
X12162790Y15468090D02*
X11954510Y15468090D01*
X11954510Y15468090D02*
X11799560Y15417290D01*
X11799560Y15417290D02*
X11695430Y15313150D01*
X11695430Y15313150D02*
X11695430Y15209010D01*
X11695430Y15209010D02*
X11746220Y15104870D01*
X11746220Y15104870D02*
X11799560Y15051530D01*
X11799560Y15051530D02*
X11903700Y15000730D01*
X11903700Y15000730D02*
X12216120Y14896590D01*
X12216120Y14896590D02*
X12317720Y14845790D01*
X12317720Y14845790D02*
X12371060Y14792450D01*
X12371060Y14792450D02*
X12421870Y14688310D01*
X12421870Y14688310D02*
X12421870Y14533370D01*
X12421870Y14533370D02*
X12317720Y14429230D01*
X12317720Y14429230D02*
X12162790Y14378430D01*
X12162790Y14378430D02*
X11954510Y14378430D01*
X11954510Y14378430D02*
X11799560Y14429230D01*
X11799560Y14429230D02*
X11695430Y14533370D01*
X12764770Y15468090D02*
X13026380Y14378430D01*
X13285460Y15468090D02*
X13026380Y14378430D01*
X13285460Y15468090D02*
X13544540Y14378430D01*
X13803620Y15468090D02*
X13544540Y14378430D01*
X14875510Y15468090D02*
X14354800Y14378430D01*
X14146530Y15468090D02*
X14875510Y15468090D01*
X26137860Y15313150D02*
X26033720Y15417290D01*
X26033720Y15417290D02*
X25878790Y15468090D01*
X25878790Y15468090D02*
X25670500Y15468090D01*
X25670500Y15468090D02*
X25515560Y15417290D01*
X25515560Y15417290D02*
X25411430Y15313150D01*
X25411430Y15313150D02*
X25411430Y15209010D01*
X25411430Y15209010D02*
X25462220Y15104870D01*
X25462220Y15104870D02*
X25515560Y15051530D01*
X25515560Y15051530D02*
X25619700Y15000730D01*
X25619700Y15000730D02*
X25932130Y14896590D01*
X25932130Y14896590D02*
X26033720Y14845790D01*
X26033720Y14845790D02*
X26087060Y14792450D01*
X26087060Y14792450D02*
X26137860Y14688310D01*
X26137860Y14688310D02*
X26137860Y14533370D01*
X26137860Y14533370D02*
X26033720Y14429230D01*
X26033720Y14429230D02*
X25878790Y14378430D01*
X25878790Y14378430D02*
X25670500Y14378430D01*
X25670500Y14378430D02*
X25515560Y14429230D01*
X25515560Y14429230D02*
X25411430Y14533370D01*
X26480770Y15468090D02*
X26742380Y14378430D01*
X27001470Y15468090D02*
X26742380Y14378430D01*
X27001470Y15468090D02*
X27260540Y14378430D01*
X27519630Y15468090D02*
X27260540Y14378430D01*
X28124150Y15468090D02*
X27966660Y15417290D01*
X27966660Y15417290D02*
X27915860Y15313150D01*
X27915860Y15313150D02*
X27915860Y15209010D01*
X27915860Y15209010D02*
X27966660Y15104870D01*
X27966660Y15104870D02*
X28070810Y15051530D01*
X28070810Y15051530D02*
X28279090Y15000730D01*
X28279090Y15000730D02*
X28434020Y14949930D01*
X28434020Y14949930D02*
X28538160Y14845790D01*
X28538160Y14845790D02*
X28591500Y14741650D01*
X28591500Y14741650D02*
X28591500Y14584170D01*
X28591500Y14584170D02*
X28538160Y14480030D01*
X28538160Y14480030D02*
X28487360Y14429230D01*
X28487360Y14429230D02*
X28332430Y14378430D01*
X28332430Y14378430D02*
X28124150Y14378430D01*
X28124150Y14378430D02*
X27966660Y14429230D01*
X27966660Y14429230D02*
X27915860Y14480030D01*
X27915860Y14480030D02*
X27862520Y14584170D01*
X27862520Y14584170D02*
X27862520Y14741650D01*
X27862520Y14741650D02*
X27915860Y14845790D01*
X27915860Y14845790D02*
X28020000Y14949930D01*
X28020000Y14949930D02*
X28174950Y15000730D01*
X28174950Y15000730D02*
X28383220Y15051530D01*
X28383220Y15051530D02*
X28487360Y15104870D01*
X28487360Y15104870D02*
X28538160Y15209010D01*
X28538160Y15209010D02*
X28538160Y15313150D01*
X28538160Y15313150D02*
X28487360Y15417290D01*
X28487360Y15417290D02*
X28332430Y15468090D01*
X28332430Y15468090D02*
X28124150Y15468090D01*
X39853860Y15313150D02*
X39749720Y15417290D01*
X39749720Y15417290D02*
X39594790Y15468090D01*
X39594790Y15468090D02*
X39386500Y15468090D01*
X39386500Y15468090D02*
X39231560Y15417290D01*
X39231560Y15417290D02*
X39127430Y15313150D01*
X39127430Y15313150D02*
X39127430Y15209010D01*
X39127430Y15209010D02*
X39178220Y15104870D01*
X39178220Y15104870D02*
X39231560Y15051530D01*
X39231560Y15051530D02*
X39335700Y15000730D01*
X39335700Y15000730D02*
X39648130Y14896590D01*
X39648130Y14896590D02*
X39749720Y14845790D01*
X39749720Y14845790D02*
X39803060Y14792450D01*
X39803060Y14792450D02*
X39853860Y14688310D01*
X39853860Y14688310D02*
X39853860Y14533370D01*
X39853860Y14533370D02*
X39749720Y14429230D01*
X39749720Y14429230D02*
X39594790Y14378430D01*
X39594790Y14378430D02*
X39386500Y14378430D01*
X39386500Y14378430D02*
X39231560Y14429230D01*
X39231560Y14429230D02*
X39127430Y14533370D01*
X40196770Y15468090D02*
X40458380Y14378430D01*
X40717470Y15468090D02*
X40458380Y14378430D01*
X40717470Y15468090D02*
X40976540Y14378430D01*
X41235630Y15468090D02*
X40976540Y14378430D01*
X42254160Y15104870D02*
X42203360Y14949930D01*
X42203360Y14949930D02*
X42099220Y14845790D01*
X42099220Y14845790D02*
X41944290Y14792450D01*
X41944290Y14792450D02*
X41890950Y14792450D01*
X41890950Y14792450D02*
X41736000Y14845790D01*
X41736000Y14845790D02*
X41631860Y14949930D01*
X41631860Y14949930D02*
X41578520Y15104870D01*
X41578520Y15104870D02*
X41578520Y15155670D01*
X41578520Y15155670D02*
X41631860Y15313150D01*
X41631860Y15313150D02*
X41736000Y15417290D01*
X41736000Y15417290D02*
X41890950Y15468090D01*
X41890950Y15468090D02*
X41944290Y15468090D01*
X41944290Y15468090D02*
X42099220Y15417290D01*
X42099220Y15417290D02*
X42203360Y15313150D01*
X42203360Y15313150D02*
X42254160Y15104870D01*
X42254160Y15104870D02*
X42254160Y14845790D01*
X42254160Y14845790D02*
X42203360Y14584170D01*
X42203360Y14584170D02*
X42099220Y14429230D01*
X42099220Y14429230D02*
X41944290Y14378430D01*
X41944290Y14378430D02*
X41840150Y14378430D01*
X41840150Y14378430D02*
X41682660Y14429230D01*
X41682660Y14429230D02*
X41631860Y14533370D01*
X11394440Y63736210D02*
X11290290Y63840360D01*
X11290290Y63840360D02*
X11135360Y63891150D01*
X11135360Y63891150D02*
X10927070Y63891150D01*
X10927070Y63891150D02*
X10772130Y63840360D01*
X10772130Y63840360D02*
X10668000Y63736210D01*
X10668000Y63736210D02*
X10668000Y63632080D01*
X10668000Y63632080D02*
X10718790Y63527940D01*
X10718790Y63527940D02*
X10772130Y63474600D01*
X10772130Y63474600D02*
X10876280Y63423790D01*
X10876280Y63423790D02*
X11188700Y63319650D01*
X11188700Y63319650D02*
X11290290Y63268860D01*
X11290290Y63268860D02*
X11343630Y63215520D01*
X11343630Y63215520D02*
X11394440Y63111370D01*
X11394440Y63111370D02*
X11394440Y62956440D01*
X11394440Y62956440D02*
X11290290Y62852290D01*
X11290290Y62852290D02*
X11135360Y62801500D01*
X11135360Y62801500D02*
X10927070Y62801500D01*
X10927070Y62801500D02*
X10772130Y62852290D01*
X10772130Y62852290D02*
X10668000Y62956440D01*
X11737340Y63891150D02*
X11998950Y62801500D01*
X12258040Y63891150D02*
X11998950Y62801500D01*
X12258040Y63891150D02*
X12517120Y62801500D01*
X12776200Y63891150D02*
X12517120Y62801500D01*
X13119100Y63682870D02*
X13223230Y63736210D01*
X13223230Y63736210D02*
X13380710Y63891150D01*
X13380710Y63891150D02*
X13380710Y62801500D01*
X14033500Y63891150D02*
X13878550Y63840360D01*
X13878550Y63840360D02*
X13774420Y63682870D01*
X13774420Y63682870D02*
X13723620Y63423790D01*
X13723620Y63423790D02*
X13723620Y63268860D01*
X13723620Y63268860D02*
X13774420Y63007230D01*
X13774420Y63007230D02*
X13878550Y62852290D01*
X13878550Y62852290D02*
X14033500Y62801500D01*
X14033500Y62801500D02*
X14137630Y62801500D01*
X14137630Y62801500D02*
X14295120Y62852290D01*
X14295120Y62852290D02*
X14399260Y63007230D01*
X14399260Y63007230D02*
X14450050Y63268860D01*
X14450050Y63268860D02*
X14450050Y63423790D01*
X14450050Y63423790D02*
X14399260Y63682870D01*
X14399260Y63682870D02*
X14295120Y63840360D01*
X14295120Y63840360D02*
X14137630Y63891150D01*
X14137630Y63891150D02*
X14033500Y63891150D01*
X22860000Y64526150D02*
X22860000Y63436500D01*
X22860000Y63436500D02*
X23482290Y63436500D01*
X23825200Y64526150D02*
X23825200Y63436500D01*
X23825200Y64526150D02*
X24500840Y64526150D01*
X23825200Y64008000D02*
X24241750Y64008000D01*
X23825200Y63436500D02*
X24500840Y63436500D01*
X24843740Y64526150D02*
X24843740Y63436500D01*
X24843740Y64526150D02*
X25209500Y64526150D01*
X25209500Y64526150D02*
X25364430Y64475360D01*
X25364430Y64475360D02*
X25468580Y64371210D01*
X25468580Y64371210D02*
X25519380Y64267080D01*
X25519380Y64267080D02*
X25572720Y64109600D01*
X25572720Y64109600D02*
X25572720Y63850520D01*
X25572720Y63850520D02*
X25519380Y63695580D01*
X25519380Y63695580D02*
X25468580Y63591440D01*
X25468580Y63591440D02*
X25364430Y63487290D01*
X25364430Y63487290D02*
X25209500Y63436500D01*
X25209500Y63436500D02*
X24843740Y63436500D01*
X25915610Y64317870D02*
X26019750Y64371210D01*
X26019750Y64371210D02*
X26174700Y64526150D01*
X26174700Y64526150D02*
X26174700Y63436500D01*
X26830020Y64526150D02*
X26672540Y64475360D01*
X26672540Y64475360D02*
X26568400Y64317870D01*
X26568400Y64317870D02*
X26517590Y64058790D01*
X26517590Y64058790D02*
X26517590Y63903860D01*
X26517590Y63903860D02*
X26568400Y63642230D01*
X26568400Y63642230D02*
X26672540Y63487290D01*
X26672540Y63487290D02*
X26830020Y63436500D01*
X26830020Y63436500D02*
X26934150Y63436500D01*
X26934150Y63436500D02*
X27089090Y63487290D01*
X27089090Y63487290D02*
X27193240Y63642230D01*
X27193240Y63642230D02*
X27244040Y63903860D01*
X27244040Y63903860D02*
X27244040Y64058790D01*
X27244040Y64058790D02*
X27193240Y64317870D01*
X27193240Y64317870D02*
X27089090Y64475360D01*
X27089090Y64475360D02*
X26934150Y64526150D01*
X26934150Y64526150D02*
X26830020Y64526150D01*
X48069500Y54599840D02*
X48069500Y55379620D01*
X48069500Y55379620D02*
X48018700Y55534550D01*
X48018700Y55534550D02*
X47914560Y55638700D01*
X47914560Y55638700D02*
X47757080Y55689500D01*
X47757080Y55689500D02*
X47652930Y55689500D01*
X47652930Y55689500D02*
X47498000Y55638700D01*
X47498000Y55638700D02*
X47393860Y55534550D01*
X47393860Y55534550D02*
X47343060Y55379620D01*
X47343060Y55379620D02*
X47343060Y54599840D01*
X46946810Y54858920D02*
X46946810Y54808120D01*
X46946810Y54808120D02*
X46896020Y54703970D01*
X46896020Y54703970D02*
X46842680Y54650630D01*
X46842680Y54650630D02*
X46738540Y54599840D01*
X46738540Y54599840D02*
X46532790Y54599840D01*
X46532790Y54599840D02*
X46428650Y54650630D01*
X46428650Y54650630D02*
X46375310Y54703970D01*
X46375310Y54703970D02*
X46324520Y54808120D01*
X46324520Y54808120D02*
X46324520Y54912260D01*
X46324520Y54912260D02*
X46375310Y55016390D01*
X46375310Y55016390D02*
X46479450Y55171340D01*
X46479450Y55171340D02*
X47000150Y55689500D01*
X47000150Y55689500D02*
X46271180Y55689500D01*
D14*
X8624490Y30980980D02*
X8624490Y33281010D01*
X8624490Y33281010D02*
X15124500Y33281010D01*
X15124500Y33250980D02*
X15124500Y31011010D01*
X15124500Y30980980D02*
X8624490Y30980980D01*
X22467490Y30980980D02*
X22467490Y33281010D01*
X22467490Y33281010D02*
X28967500Y33281010D01*
X28967500Y33250980D02*
X28967500Y31011010D01*
X28967500Y30980980D02*
X22467490Y30980980D01*
X36310490Y30980980D02*
X36310490Y33281010D01*
X36310490Y33281010D02*
X42810500Y33281010D01*
X42810500Y33250980D02*
X42810500Y31011010D01*
X42810500Y30980980D02*
X36310490Y30980980D01*
X8878490Y16629980D02*
X8878490Y18930010D01*
X8878490Y18930010D02*
X15378500Y18930010D01*
X15378500Y18899980D02*
X15378500Y16660010D01*
X15378500Y16629980D02*
X8878490Y16629980D01*
X22594490Y16629980D02*
X22594490Y18930010D01*
X22594490Y18930010D02*
X29094500Y18930010D01*
X29094500Y18899980D02*
X29094500Y16660010D01*
X29094500Y16629980D02*
X22594490Y16629980D01*
X36310490Y16629980D02*
X36310490Y18930010D01*
X36310490Y18930010D02*
X42810500Y18930010D01*
X42810500Y18899980D02*
X42810500Y16660010D01*
X42810500Y16629980D02*
X36310490Y16629980D01*
X36310490Y2913980D02*
X36310490Y5214010D01*
X36310490Y5214010D02*
X42810500Y5214010D01*
X42810500Y5183980D02*
X42810500Y2944010D01*
X42810500Y2913980D02*
X36310490Y2913980D01*
X22340490Y2913980D02*
X22340490Y5214010D01*
X22340490Y5214010D02*
X28840500Y5214010D01*
X28840500Y5183980D02*
X28840500Y2944010D01*
X28840500Y2913980D02*
X22340490Y2913980D01*
X8751490Y2913980D02*
X8751490Y5214010D01*
X8751490Y5214010D02*
X15251500Y5214010D01*
X15251500Y5183980D02*
X15251500Y2944010D01*
X15251500Y2913980D02*
X8751490Y2913980D01*
X8747480Y38115970D02*
X8747480Y40115970D01*
X14747490Y38116000D02*
X14747490Y40115990D01*
X9747220Y36116000D02*
X13747720Y36116000D01*
X9747250Y42115230D02*
X13747750Y42115230D01*
X22463480Y38115970D02*
X22463480Y40115970D01*
X28463490Y38116000D02*
X28463490Y40115990D01*
X23463220Y36116000D02*
X27463720Y36116000D01*
X23463250Y42115230D02*
X27463750Y42115230D01*
X36179480Y38242970D02*
X36179480Y40242970D01*
X42179490Y38243000D02*
X42179490Y40242990D01*
X37179220Y36243000D02*
X41179720Y36243000D01*
X37179250Y42242230D02*
X41179750Y42242230D01*
X8747480Y23955470D02*
X8747480Y25955470D01*
X14747490Y23955500D02*
X14747490Y25955490D01*
X9747220Y21955500D02*
X13747720Y21955500D01*
X9747250Y27954730D02*
X13747750Y27954730D01*
X22463480Y23955470D02*
X22463480Y25955470D01*
X28463490Y23955500D02*
X28463490Y25955490D01*
X23463220Y21955500D02*
X27463720Y21955500D01*
X23463250Y27954730D02*
X27463750Y27954730D01*
X36052480Y24018970D02*
X36052480Y26018970D01*
X42052490Y24019000D02*
X42052490Y26018990D01*
X37052220Y22019000D02*
X41052720Y22019000D01*
X37052250Y28018230D02*
X41052750Y28018230D01*
X8747480Y9794970D02*
X8747480Y11794970D01*
X14747490Y9795000D02*
X14747490Y11794990D01*
X9747220Y7795000D02*
X13747720Y7795000D01*
X9747250Y13794230D02*
X13747750Y13794230D01*
X22463480Y9794970D02*
X22463480Y11794970D01*
X28463490Y9795000D02*
X28463490Y11794990D01*
X23463220Y7795000D02*
X27463720Y7795000D01*
X23463250Y13794230D02*
X27463750Y13794230D01*
X36179480Y9794970D02*
X36179480Y11794970D01*
X42179490Y9795000D02*
X42179490Y11794990D01*
X37179220Y7795000D02*
X41179720Y7795000D01*
X37179250Y13794230D02*
X41179750Y13794230D01*
X12951760Y105581600D02*
X12751760Y105381600D01*
X12751760Y105381600D02*
X13151760Y105381600D01*
X13151760Y105381600D02*
X12951760Y105581600D01*
X21660510Y57481390D02*
X19360480Y57481390D01*
X19360480Y57481390D02*
X19360480Y63981400D01*
X19390510Y63981400D02*
X21630480Y63981400D01*
X21660510Y63981400D02*
X21660510Y57481390D01*
X9318980Y58181970D02*
X9318980Y60181970D01*
X15318990Y58182000D02*
X15318990Y60181990D01*
X10318720Y56182000D02*
X14319220Y56182000D01*
X10318750Y62181230D02*
X14319250Y62181230D01*
X35040490Y58158980D02*
X35040490Y60459010D01*
X35040490Y60459010D02*
X41540500Y60459010D01*
X41540500Y60428980D02*
X41540500Y58189010D01*
X41540500Y58158980D02*
X35040490Y58158980D01*
X35040490Y61714980D02*
X35040490Y64015010D01*
X35040490Y64015010D02*
X41540500Y64015010D01*
X41540500Y63984980D02*
X41540500Y61745010D01*
X41540500Y61714980D02*
X35040490Y61714980D01*
X35040490Y54729980D02*
X35040490Y57030010D01*
X35040490Y57030010D02*
X41540500Y57030010D01*
X41540500Y56999980D02*
X41540500Y54760010D01*
X41540500Y54729980D02*
X35040490Y54729980D01*
X51752500Y79918550D02*
X49212500Y79918550D01*
X49212500Y79918550D02*
X49212500Y100238550D01*
X49212500Y100238550D02*
X51752500Y100238550D01*
X51752500Y100238550D02*
X51752500Y79918550D01*
X51752500Y101508550D02*
X49212500Y101508550D01*
X49212500Y101508550D02*
X49212500Y127000000D01*
X49212500Y127000000D02*
X51752500Y127000000D01*
X51752500Y127000000D02*
X51752500Y101508550D01*
X3492500Y118110000D02*
X952500Y118110000D01*
X952500Y118110000D02*
X952500Y97698550D01*
X952500Y97698550D02*
X3492500Y97698550D01*
X3492500Y97698550D02*
X3492500Y118110000D01*
X952500Y95158550D02*
X3492500Y95158550D01*
X3492500Y95158550D02*
X3492500Y74838550D01*
X3492500Y74838550D02*
X952500Y74838550D01*
X952500Y74838550D02*
X952500Y95158550D01*
X49212500Y57058550D02*
X51752500Y57058550D01*
X51752500Y57058550D02*
X51752500Y77378550D01*
X51752500Y77378550D02*
X49212500Y77378550D01*
X49212500Y77378550D02*
X49212500Y57058550D01*
X952500Y51978550D02*
X3492500Y51978550D01*
X3492500Y51978550D02*
X3492500Y72298550D01*
X3492500Y72298550D02*
X952500Y72298550D01*
X952500Y72298550D02*
X952500Y51978550D01*
X6032500Y46898550D02*
X51752500Y46898550D01*
X51752500Y46898550D02*
X51752500Y51978550D01*
X51752500Y51978550D02*
X6032500Y51978550D01*
X6032500Y51978550D02*
X6032500Y46898550D01*
X13543280Y39067740D02*
G75*
G03*
X13543280Y39067740I-1750060J0D01*
G01*
X27259280Y39067740D02*
G75*
G03*
X27259280Y39067740I-1750060J0D01*
G01*
X40975280Y39194740D02*
G75*
G03*
X40975280Y39194740I-1750060J0D01*
G01*
X13543280Y24907240D02*
G75*
G03*
X13543280Y24907240I-1750060J0D01*
G01*
X27259280Y24907240D02*
G75*
G03*
X27259280Y24907240I-1750060J0D01*
G01*
X40848280Y24970740D02*
G75*
G03*
X40848280Y24970740I-1750060J0D01*
G01*
X13543280Y10746740D02*
G75*
G03*
X13543280Y10746740I-1750060J0D01*
G01*
X27259280Y10746740D02*
G75*
G03*
X27259280Y10746740I-1750060J0D01*
G01*
X40975280Y10746740D02*
G75*
G03*
X40975280Y10746740I-1750060J0D01*
G01*
X15034510Y106781600D02*
G75*
G03*
X15034510Y106781600I-2999990J0D01*
G01*
X14114780Y59133740D02*
G75*
G03*
X14114780Y59133740I-1750060J0D01*
G01*
M02*
