M48
; DRILL file {KiCad (5.1.10)-1} date 10/16/21 16:01:58
; FORMAT={-:-/ absolute / metric / decimal}
; #@! TF.CreationDate,2021-10-16T16:01:58-05:00
; #@! TF.GenerationSoftware,Kicad,Pcbnew,(5.1.10)-1
; #@! TF.FileFunction,Plated,1,2,PTH
FMAT,2
METRIC
T1C0.400
%
G90
G05
T1
X2.222Y116.749
X2.222Y114.209
X2.222Y111.669
X2.222Y109.129
X2.222Y106.589
X2.222Y104.049
X2.222Y101.509
X2.222Y98.969
X2.222Y93.889
X2.222Y91.349
X2.222Y88.809
X2.222Y86.269
X2.222Y83.729
X2.222Y81.189
X2.222Y78.649
X2.222Y76.109
X2.222Y71.029
X2.222Y68.489
X2.222Y65.949
X2.222Y63.409
X2.222Y60.869
X2.222Y58.329
X2.222Y55.789
X2.222Y53.249
X6.625Y32.131
X6.752Y4.064
X6.879Y17.78
X7.302Y50.709
X7.302Y48.169
X7.62Y118.618
X7.62Y115.57
X7.62Y112.522
X7.62Y100.076
X7.62Y97.028
X7.62Y93.98
X7.62Y82.042
X7.62Y78.74
X7.62Y75.946
X8.697Y41.366
X8.697Y36.866
X8.697Y27.205
X8.697Y22.706
X8.697Y13.045
X8.697Y8.545
X9.269Y61.432
X9.269Y56.932
X9.362Y69.266
X9.464Y87.681
X9.515Y106.655
X9.842Y50.709
X9.842Y48.169
X11.069Y69.266
X11.171Y87.681
X11.222Y106.655
X12.383Y50.709
X12.383Y48.169
X12.72Y69.266
X12.822Y87.681
X12.873Y106.655
X14.361Y69.266
X14.463Y87.681
X14.514Y106.655
X14.798Y41.366
X14.798Y36.866
X14.798Y27.205
X14.798Y22.706
X14.798Y13.045
X14.798Y8.545
X14.922Y50.709
X14.922Y48.169
X15.24Y118.618
X15.24Y115.57
X15.24Y112.522
X15.24Y100.076
X15.24Y97.028
X15.24Y93.98
X15.24Y82.042
X15.24Y78.74
X15.24Y75.946
X15.369Y61.432
X15.369Y56.932
X17.124Y32.131
X17.251Y4.064
X17.378Y17.78
X17.462Y50.709
X17.462Y48.169
X20.002Y50.709
X20.002Y48.169
X20.341Y4.064
X20.468Y32.131
X20.595Y17.78
X20.637Y64.686
X20.637Y56.726
X21.59Y118.618
X21.59Y115.57
X21.59Y112.522
X21.59Y100.076
X21.59Y97.028
X21.59Y93.98
X21.59Y82.042
X21.59Y78.994
X21.59Y75.946
X22.413Y41.366
X22.413Y36.866
X22.413Y27.205
X22.413Y22.706
X22.413Y13.045
X22.413Y8.545
X22.543Y50.709
X22.543Y48.169
X23.307Y69.266
X23.409Y87.681
X23.459Y106.655
X25.014Y69.266
X25.082Y50.709
X25.082Y48.169
X25.116Y87.681
X25.166Y106.655
X26.665Y69.266
X26.767Y87.681
X26.817Y106.655
X27.622Y50.709
X27.622Y48.169
X27.94Y62.062
X27.94Y60.355
X27.94Y58.704
X27.94Y57.064
X28.306Y69.266
X28.407Y87.681
X28.458Y106.655
X28.514Y41.366
X28.514Y36.866
X28.514Y27.205
X28.514Y22.706
X28.514Y13.045
X28.514Y8.545
X29.21Y118.618
X29.21Y115.57
X29.21Y112.522
X29.21Y100.076
X29.21Y97.028
X29.21Y93.98
X29.21Y82.042
X29.21Y78.994
X29.21Y75.946
X30.162Y50.709
X30.162Y48.169
X30.84Y4.064
X30.967Y32.131
X31.094Y17.78
X32.703Y50.709
X32.703Y48.169
X33.041Y62.865
X33.041Y59.309
X33.041Y55.88
X34.311Y32.131
X34.311Y17.78
X34.311Y4.064
X35.242Y50.709
X35.242Y48.169
X36.002Y27.269
X36.002Y22.769
X36.129Y41.493
X36.129Y36.993
X36.129Y13.045
X36.129Y8.545
X36.83Y119.38
X36.83Y115.57
X36.83Y112.522
X36.83Y100.076
X36.83Y97.028
X36.83Y93.98
X36.83Y82.042
X36.83Y78.994
X36.83Y76.2
X37.582Y69.088
X37.683Y87.503
X37.734Y106.477
X37.782Y50.709
X37.782Y48.169
X39.289Y69.088
X39.39Y87.503
X39.441Y106.477
X40.322Y50.709
X40.322Y48.169
X40.94Y69.088
X41.041Y87.503
X41.092Y106.477
X42.103Y27.269
X42.103Y22.769
X42.23Y41.493
X42.23Y36.993
X42.23Y13.045
X42.23Y8.545
X42.581Y69.088
X42.682Y87.503
X42.733Y106.477
X42.862Y50.709
X42.862Y48.169
X43.54Y62.865
X43.54Y59.309
X43.54Y55.88
X44.45Y118.618
X44.45Y115.57
X44.45Y112.522
X44.45Y100.076
X44.45Y97.028
X44.45Y93.98
X44.45Y82.042
X44.45Y78.74
X44.45Y75.946
X44.81Y32.131
X44.81Y17.78
X44.81Y4.064
X45.402Y50.709
X45.402Y48.169
X47.942Y50.709
X47.942Y48.169
X50.482Y125.893
X50.482Y123.353
X50.482Y120.813
X50.482Y118.273
X50.482Y115.733
X50.482Y113.193
X50.482Y110.653
X50.482Y108.113
X50.482Y105.573
X50.482Y103.033
X50.482Y98.969
X50.482Y96.429
X50.482Y93.889
X50.482Y91.349
X50.482Y88.809
X50.482Y86.269
X50.482Y83.729
X50.482Y81.189
X50.482Y76.109
X50.482Y73.569
X50.482Y71.029
X50.482Y68.489
X50.482Y65.949
X50.482Y63.409
X50.482Y60.869
X50.482Y58.329
X50.482Y50.709
X50.482Y48.169
T0
M30
